G75*
%MOIN*%
%OFA0B0*%
%FSLAX25Y25*%
%IPPOS*%
%LPD*%
%AMOC8*
5,1,8,0,0,1.08239X$1,22.5*
%
%ADD10C,0.00000*%
%ADD11C,0.00492*%
%ADD12R,0.06400X0.03500*%
%ADD13R,0.06400X0.12500*%
%ADD14R,0.04000X0.04000*%
%ADD15R,0.01600X0.03200*%
%ADD16R,0.02100X0.04600*%
%ADD17C,0.06000*%
%ADD18R,0.05600X0.05600*%
%ADD19C,0.05600*%
%ADD20OC8,0.06000*%
%ADD21R,0.05512X0.06299*%
%ADD22OC8,0.07400*%
%ADD23R,0.03200X0.06600*%
%ADD24R,0.06600X0.03200*%
%ADD25C,0.00800*%
%ADD26R,0.02500X0.05000*%
%ADD27C,0.01600*%
%ADD28R,0.03962X0.03962*%
%ADD29OC8,0.03962*%
%ADD30OC8,0.05906*%
D10*
X0076170Y0009224D02*
X0076170Y0023329D01*
X0076170Y0279185D01*
X0286073Y0279407D01*
X0286034Y0009052D01*
X0234165Y0040797D02*
X0234167Y0040881D01*
X0234173Y0040964D01*
X0234183Y0041047D01*
X0234197Y0041130D01*
X0234214Y0041212D01*
X0234236Y0041293D01*
X0234261Y0041372D01*
X0234290Y0041451D01*
X0234323Y0041528D01*
X0234359Y0041603D01*
X0234399Y0041677D01*
X0234442Y0041749D01*
X0234489Y0041818D01*
X0234539Y0041885D01*
X0234592Y0041950D01*
X0234648Y0042012D01*
X0234706Y0042072D01*
X0234768Y0042129D01*
X0234832Y0042182D01*
X0234899Y0042233D01*
X0234968Y0042280D01*
X0235039Y0042325D01*
X0235112Y0042365D01*
X0235187Y0042402D01*
X0235264Y0042436D01*
X0235342Y0042466D01*
X0235421Y0042492D01*
X0235502Y0042515D01*
X0235584Y0042533D01*
X0235666Y0042548D01*
X0235749Y0042559D01*
X0235832Y0042566D01*
X0235916Y0042569D01*
X0236000Y0042568D01*
X0236083Y0042563D01*
X0236167Y0042554D01*
X0236249Y0042541D01*
X0236331Y0042525D01*
X0236412Y0042504D01*
X0236493Y0042480D01*
X0236571Y0042452D01*
X0236649Y0042420D01*
X0236725Y0042384D01*
X0236799Y0042345D01*
X0236871Y0042303D01*
X0236941Y0042257D01*
X0237009Y0042208D01*
X0237074Y0042156D01*
X0237137Y0042101D01*
X0237197Y0042043D01*
X0237255Y0041982D01*
X0237309Y0041918D01*
X0237361Y0041852D01*
X0237409Y0041784D01*
X0237454Y0041713D01*
X0237495Y0041640D01*
X0237534Y0041566D01*
X0237568Y0041490D01*
X0237599Y0041412D01*
X0237626Y0041333D01*
X0237650Y0041252D01*
X0237669Y0041171D01*
X0237685Y0041089D01*
X0237697Y0041006D01*
X0237705Y0040922D01*
X0237709Y0040839D01*
X0237709Y0040755D01*
X0237705Y0040672D01*
X0237697Y0040588D01*
X0237685Y0040505D01*
X0237669Y0040423D01*
X0237650Y0040342D01*
X0237626Y0040261D01*
X0237599Y0040182D01*
X0237568Y0040104D01*
X0237534Y0040028D01*
X0237495Y0039954D01*
X0237454Y0039881D01*
X0237409Y0039810D01*
X0237361Y0039742D01*
X0237309Y0039676D01*
X0237255Y0039612D01*
X0237197Y0039551D01*
X0237137Y0039493D01*
X0237074Y0039438D01*
X0237009Y0039386D01*
X0236941Y0039337D01*
X0236871Y0039291D01*
X0236799Y0039249D01*
X0236725Y0039210D01*
X0236649Y0039174D01*
X0236571Y0039142D01*
X0236493Y0039114D01*
X0236412Y0039090D01*
X0236331Y0039069D01*
X0236249Y0039053D01*
X0236167Y0039040D01*
X0236083Y0039031D01*
X0236000Y0039026D01*
X0235916Y0039025D01*
X0235832Y0039028D01*
X0235749Y0039035D01*
X0235666Y0039046D01*
X0235584Y0039061D01*
X0235502Y0039079D01*
X0235421Y0039102D01*
X0235342Y0039128D01*
X0235264Y0039158D01*
X0235187Y0039192D01*
X0235112Y0039229D01*
X0235039Y0039269D01*
X0234968Y0039314D01*
X0234899Y0039361D01*
X0234832Y0039412D01*
X0234768Y0039465D01*
X0234706Y0039522D01*
X0234648Y0039582D01*
X0234592Y0039644D01*
X0234539Y0039709D01*
X0234489Y0039776D01*
X0234442Y0039845D01*
X0234399Y0039917D01*
X0234359Y0039991D01*
X0234323Y0040066D01*
X0234290Y0040143D01*
X0234261Y0040222D01*
X0234236Y0040301D01*
X0234214Y0040382D01*
X0234197Y0040464D01*
X0234183Y0040547D01*
X0234173Y0040630D01*
X0234167Y0040713D01*
X0234165Y0040797D01*
X0234165Y0052608D02*
X0234167Y0052692D01*
X0234173Y0052775D01*
X0234183Y0052858D01*
X0234197Y0052941D01*
X0234214Y0053023D01*
X0234236Y0053104D01*
X0234261Y0053183D01*
X0234290Y0053262D01*
X0234323Y0053339D01*
X0234359Y0053414D01*
X0234399Y0053488D01*
X0234442Y0053560D01*
X0234489Y0053629D01*
X0234539Y0053696D01*
X0234592Y0053761D01*
X0234648Y0053823D01*
X0234706Y0053883D01*
X0234768Y0053940D01*
X0234832Y0053993D01*
X0234899Y0054044D01*
X0234968Y0054091D01*
X0235039Y0054136D01*
X0235112Y0054176D01*
X0235187Y0054213D01*
X0235264Y0054247D01*
X0235342Y0054277D01*
X0235421Y0054303D01*
X0235502Y0054326D01*
X0235584Y0054344D01*
X0235666Y0054359D01*
X0235749Y0054370D01*
X0235832Y0054377D01*
X0235916Y0054380D01*
X0236000Y0054379D01*
X0236083Y0054374D01*
X0236167Y0054365D01*
X0236249Y0054352D01*
X0236331Y0054336D01*
X0236412Y0054315D01*
X0236493Y0054291D01*
X0236571Y0054263D01*
X0236649Y0054231D01*
X0236725Y0054195D01*
X0236799Y0054156D01*
X0236871Y0054114D01*
X0236941Y0054068D01*
X0237009Y0054019D01*
X0237074Y0053967D01*
X0237137Y0053912D01*
X0237197Y0053854D01*
X0237255Y0053793D01*
X0237309Y0053729D01*
X0237361Y0053663D01*
X0237409Y0053595D01*
X0237454Y0053524D01*
X0237495Y0053451D01*
X0237534Y0053377D01*
X0237568Y0053301D01*
X0237599Y0053223D01*
X0237626Y0053144D01*
X0237650Y0053063D01*
X0237669Y0052982D01*
X0237685Y0052900D01*
X0237697Y0052817D01*
X0237705Y0052733D01*
X0237709Y0052650D01*
X0237709Y0052566D01*
X0237705Y0052483D01*
X0237697Y0052399D01*
X0237685Y0052316D01*
X0237669Y0052234D01*
X0237650Y0052153D01*
X0237626Y0052072D01*
X0237599Y0051993D01*
X0237568Y0051915D01*
X0237534Y0051839D01*
X0237495Y0051765D01*
X0237454Y0051692D01*
X0237409Y0051621D01*
X0237361Y0051553D01*
X0237309Y0051487D01*
X0237255Y0051423D01*
X0237197Y0051362D01*
X0237137Y0051304D01*
X0237074Y0051249D01*
X0237009Y0051197D01*
X0236941Y0051148D01*
X0236871Y0051102D01*
X0236799Y0051060D01*
X0236725Y0051021D01*
X0236649Y0050985D01*
X0236571Y0050953D01*
X0236493Y0050925D01*
X0236412Y0050901D01*
X0236331Y0050880D01*
X0236249Y0050864D01*
X0236167Y0050851D01*
X0236083Y0050842D01*
X0236000Y0050837D01*
X0235916Y0050836D01*
X0235832Y0050839D01*
X0235749Y0050846D01*
X0235666Y0050857D01*
X0235584Y0050872D01*
X0235502Y0050890D01*
X0235421Y0050913D01*
X0235342Y0050939D01*
X0235264Y0050969D01*
X0235187Y0051003D01*
X0235112Y0051040D01*
X0235039Y0051080D01*
X0234968Y0051125D01*
X0234899Y0051172D01*
X0234832Y0051223D01*
X0234768Y0051276D01*
X0234706Y0051333D01*
X0234648Y0051393D01*
X0234592Y0051455D01*
X0234539Y0051520D01*
X0234489Y0051587D01*
X0234442Y0051656D01*
X0234399Y0051728D01*
X0234359Y0051802D01*
X0234323Y0051877D01*
X0234290Y0051954D01*
X0234261Y0052033D01*
X0234236Y0052112D01*
X0234214Y0052193D01*
X0234197Y0052275D01*
X0234183Y0052358D01*
X0234173Y0052441D01*
X0234167Y0052524D01*
X0234165Y0052608D01*
X0210677Y0019252D02*
X0210679Y0019400D01*
X0210685Y0019548D01*
X0210695Y0019696D01*
X0210709Y0019843D01*
X0210727Y0019990D01*
X0210748Y0020136D01*
X0210774Y0020282D01*
X0210804Y0020427D01*
X0210837Y0020571D01*
X0210875Y0020714D01*
X0210916Y0020856D01*
X0210961Y0020997D01*
X0211009Y0021137D01*
X0211062Y0021276D01*
X0211118Y0021413D01*
X0211178Y0021548D01*
X0211241Y0021682D01*
X0211308Y0021814D01*
X0211379Y0021944D01*
X0211453Y0022072D01*
X0211530Y0022198D01*
X0211611Y0022322D01*
X0211695Y0022444D01*
X0211782Y0022563D01*
X0211873Y0022680D01*
X0211967Y0022795D01*
X0212063Y0022907D01*
X0212163Y0023017D01*
X0212265Y0023123D01*
X0212371Y0023227D01*
X0212479Y0023328D01*
X0212590Y0023426D01*
X0212703Y0023522D01*
X0212819Y0023614D01*
X0212937Y0023703D01*
X0213058Y0023788D01*
X0213181Y0023871D01*
X0213306Y0023950D01*
X0213433Y0024026D01*
X0213562Y0024098D01*
X0213693Y0024167D01*
X0213826Y0024232D01*
X0213961Y0024293D01*
X0214097Y0024351D01*
X0214234Y0024406D01*
X0214373Y0024456D01*
X0214514Y0024503D01*
X0214655Y0024546D01*
X0214798Y0024586D01*
X0214942Y0024621D01*
X0215086Y0024653D01*
X0215232Y0024680D01*
X0215378Y0024704D01*
X0215525Y0024724D01*
X0215672Y0024740D01*
X0215819Y0024752D01*
X0215967Y0024760D01*
X0216115Y0024764D01*
X0216263Y0024764D01*
X0216411Y0024760D01*
X0216559Y0024752D01*
X0216706Y0024740D01*
X0216853Y0024724D01*
X0217000Y0024704D01*
X0217146Y0024680D01*
X0217292Y0024653D01*
X0217436Y0024621D01*
X0217580Y0024586D01*
X0217723Y0024546D01*
X0217864Y0024503D01*
X0218005Y0024456D01*
X0218144Y0024406D01*
X0218281Y0024351D01*
X0218417Y0024293D01*
X0218552Y0024232D01*
X0218685Y0024167D01*
X0218816Y0024098D01*
X0218945Y0024026D01*
X0219072Y0023950D01*
X0219197Y0023871D01*
X0219320Y0023788D01*
X0219441Y0023703D01*
X0219559Y0023614D01*
X0219675Y0023522D01*
X0219788Y0023426D01*
X0219899Y0023328D01*
X0220007Y0023227D01*
X0220113Y0023123D01*
X0220215Y0023017D01*
X0220315Y0022907D01*
X0220411Y0022795D01*
X0220505Y0022680D01*
X0220596Y0022563D01*
X0220683Y0022444D01*
X0220767Y0022322D01*
X0220848Y0022198D01*
X0220925Y0022072D01*
X0220999Y0021944D01*
X0221070Y0021814D01*
X0221137Y0021682D01*
X0221200Y0021548D01*
X0221260Y0021413D01*
X0221316Y0021276D01*
X0221369Y0021137D01*
X0221417Y0020997D01*
X0221462Y0020856D01*
X0221503Y0020714D01*
X0221541Y0020571D01*
X0221574Y0020427D01*
X0221604Y0020282D01*
X0221630Y0020136D01*
X0221651Y0019990D01*
X0221669Y0019843D01*
X0221683Y0019696D01*
X0221693Y0019548D01*
X0221699Y0019400D01*
X0221701Y0019252D01*
X0221699Y0019104D01*
X0221693Y0018956D01*
X0221683Y0018808D01*
X0221669Y0018661D01*
X0221651Y0018514D01*
X0221630Y0018368D01*
X0221604Y0018222D01*
X0221574Y0018077D01*
X0221541Y0017933D01*
X0221503Y0017790D01*
X0221462Y0017648D01*
X0221417Y0017507D01*
X0221369Y0017367D01*
X0221316Y0017228D01*
X0221260Y0017091D01*
X0221200Y0016956D01*
X0221137Y0016822D01*
X0221070Y0016690D01*
X0220999Y0016560D01*
X0220925Y0016432D01*
X0220848Y0016306D01*
X0220767Y0016182D01*
X0220683Y0016060D01*
X0220596Y0015941D01*
X0220505Y0015824D01*
X0220411Y0015709D01*
X0220315Y0015597D01*
X0220215Y0015487D01*
X0220113Y0015381D01*
X0220007Y0015277D01*
X0219899Y0015176D01*
X0219788Y0015078D01*
X0219675Y0014982D01*
X0219559Y0014890D01*
X0219441Y0014801D01*
X0219320Y0014716D01*
X0219197Y0014633D01*
X0219072Y0014554D01*
X0218945Y0014478D01*
X0218816Y0014406D01*
X0218685Y0014337D01*
X0218552Y0014272D01*
X0218417Y0014211D01*
X0218281Y0014153D01*
X0218144Y0014098D01*
X0218005Y0014048D01*
X0217864Y0014001D01*
X0217723Y0013958D01*
X0217580Y0013918D01*
X0217436Y0013883D01*
X0217292Y0013851D01*
X0217146Y0013824D01*
X0217000Y0013800D01*
X0216853Y0013780D01*
X0216706Y0013764D01*
X0216559Y0013752D01*
X0216411Y0013744D01*
X0216263Y0013740D01*
X0216115Y0013740D01*
X0215967Y0013744D01*
X0215819Y0013752D01*
X0215672Y0013764D01*
X0215525Y0013780D01*
X0215378Y0013800D01*
X0215232Y0013824D01*
X0215086Y0013851D01*
X0214942Y0013883D01*
X0214798Y0013918D01*
X0214655Y0013958D01*
X0214514Y0014001D01*
X0214373Y0014048D01*
X0214234Y0014098D01*
X0214097Y0014153D01*
X0213961Y0014211D01*
X0213826Y0014272D01*
X0213693Y0014337D01*
X0213562Y0014406D01*
X0213433Y0014478D01*
X0213306Y0014554D01*
X0213181Y0014633D01*
X0213058Y0014716D01*
X0212937Y0014801D01*
X0212819Y0014890D01*
X0212703Y0014982D01*
X0212590Y0015078D01*
X0212479Y0015176D01*
X0212371Y0015277D01*
X0212265Y0015381D01*
X0212163Y0015487D01*
X0212063Y0015597D01*
X0211967Y0015709D01*
X0211873Y0015824D01*
X0211782Y0015941D01*
X0211695Y0016060D01*
X0211611Y0016182D01*
X0211530Y0016306D01*
X0211453Y0016432D01*
X0211379Y0016560D01*
X0211308Y0016690D01*
X0211241Y0016822D01*
X0211178Y0016956D01*
X0211118Y0017091D01*
X0211062Y0017228D01*
X0211009Y0017367D01*
X0210961Y0017507D01*
X0210916Y0017648D01*
X0210875Y0017790D01*
X0210837Y0017933D01*
X0210804Y0018077D01*
X0210774Y0018222D01*
X0210748Y0018368D01*
X0210727Y0018514D01*
X0210709Y0018661D01*
X0210695Y0018808D01*
X0210685Y0018956D01*
X0210679Y0019104D01*
X0210677Y0019252D01*
X0215005Y0019242D02*
X0215007Y0019311D01*
X0215013Y0019379D01*
X0215023Y0019447D01*
X0215037Y0019514D01*
X0215055Y0019581D01*
X0215076Y0019646D01*
X0215102Y0019710D01*
X0215131Y0019772D01*
X0215163Y0019832D01*
X0215199Y0019891D01*
X0215239Y0019947D01*
X0215281Y0020001D01*
X0215327Y0020052D01*
X0215376Y0020101D01*
X0215427Y0020147D01*
X0215481Y0020189D01*
X0215537Y0020229D01*
X0215595Y0020265D01*
X0215656Y0020297D01*
X0215718Y0020326D01*
X0215782Y0020352D01*
X0215847Y0020373D01*
X0215914Y0020391D01*
X0215981Y0020405D01*
X0216049Y0020415D01*
X0216117Y0020421D01*
X0216186Y0020423D01*
X0216255Y0020421D01*
X0216323Y0020415D01*
X0216391Y0020405D01*
X0216458Y0020391D01*
X0216525Y0020373D01*
X0216590Y0020352D01*
X0216654Y0020326D01*
X0216716Y0020297D01*
X0216776Y0020265D01*
X0216835Y0020229D01*
X0216891Y0020189D01*
X0216945Y0020147D01*
X0216996Y0020101D01*
X0217045Y0020052D01*
X0217091Y0020001D01*
X0217133Y0019947D01*
X0217173Y0019891D01*
X0217209Y0019832D01*
X0217241Y0019772D01*
X0217270Y0019710D01*
X0217296Y0019646D01*
X0217317Y0019581D01*
X0217335Y0019514D01*
X0217349Y0019447D01*
X0217359Y0019379D01*
X0217365Y0019311D01*
X0217367Y0019242D01*
X0217365Y0019173D01*
X0217359Y0019105D01*
X0217349Y0019037D01*
X0217335Y0018970D01*
X0217317Y0018903D01*
X0217296Y0018838D01*
X0217270Y0018774D01*
X0217241Y0018712D01*
X0217209Y0018651D01*
X0217173Y0018593D01*
X0217133Y0018537D01*
X0217091Y0018483D01*
X0217045Y0018432D01*
X0216996Y0018383D01*
X0216945Y0018337D01*
X0216891Y0018295D01*
X0216835Y0018255D01*
X0216777Y0018219D01*
X0216716Y0018187D01*
X0216654Y0018158D01*
X0216590Y0018132D01*
X0216525Y0018111D01*
X0216458Y0018093D01*
X0216391Y0018079D01*
X0216323Y0018069D01*
X0216255Y0018063D01*
X0216186Y0018061D01*
X0216117Y0018063D01*
X0216049Y0018069D01*
X0215981Y0018079D01*
X0215914Y0018093D01*
X0215847Y0018111D01*
X0215782Y0018132D01*
X0215718Y0018158D01*
X0215656Y0018187D01*
X0215595Y0018219D01*
X0215537Y0018255D01*
X0215481Y0018295D01*
X0215427Y0018337D01*
X0215376Y0018383D01*
X0215327Y0018432D01*
X0215281Y0018483D01*
X0215239Y0018537D01*
X0215199Y0018593D01*
X0215163Y0018651D01*
X0215131Y0018712D01*
X0215102Y0018774D01*
X0215076Y0018838D01*
X0215055Y0018903D01*
X0215037Y0018970D01*
X0215023Y0019037D01*
X0215013Y0019105D01*
X0215007Y0019173D01*
X0215005Y0019242D01*
X0104986Y0019194D02*
X0104988Y0019263D01*
X0104994Y0019331D01*
X0105004Y0019399D01*
X0105018Y0019466D01*
X0105036Y0019533D01*
X0105057Y0019598D01*
X0105083Y0019662D01*
X0105112Y0019724D01*
X0105144Y0019784D01*
X0105180Y0019843D01*
X0105220Y0019899D01*
X0105262Y0019953D01*
X0105308Y0020004D01*
X0105357Y0020053D01*
X0105408Y0020099D01*
X0105462Y0020141D01*
X0105518Y0020181D01*
X0105576Y0020217D01*
X0105637Y0020249D01*
X0105699Y0020278D01*
X0105763Y0020304D01*
X0105828Y0020325D01*
X0105895Y0020343D01*
X0105962Y0020357D01*
X0106030Y0020367D01*
X0106098Y0020373D01*
X0106167Y0020375D01*
X0106236Y0020373D01*
X0106304Y0020367D01*
X0106372Y0020357D01*
X0106439Y0020343D01*
X0106506Y0020325D01*
X0106571Y0020304D01*
X0106635Y0020278D01*
X0106697Y0020249D01*
X0106757Y0020217D01*
X0106816Y0020181D01*
X0106872Y0020141D01*
X0106926Y0020099D01*
X0106977Y0020053D01*
X0107026Y0020004D01*
X0107072Y0019953D01*
X0107114Y0019899D01*
X0107154Y0019843D01*
X0107190Y0019784D01*
X0107222Y0019724D01*
X0107251Y0019662D01*
X0107277Y0019598D01*
X0107298Y0019533D01*
X0107316Y0019466D01*
X0107330Y0019399D01*
X0107340Y0019331D01*
X0107346Y0019263D01*
X0107348Y0019194D01*
X0107346Y0019125D01*
X0107340Y0019057D01*
X0107330Y0018989D01*
X0107316Y0018922D01*
X0107298Y0018855D01*
X0107277Y0018790D01*
X0107251Y0018726D01*
X0107222Y0018664D01*
X0107190Y0018603D01*
X0107154Y0018545D01*
X0107114Y0018489D01*
X0107072Y0018435D01*
X0107026Y0018384D01*
X0106977Y0018335D01*
X0106926Y0018289D01*
X0106872Y0018247D01*
X0106816Y0018207D01*
X0106758Y0018171D01*
X0106697Y0018139D01*
X0106635Y0018110D01*
X0106571Y0018084D01*
X0106506Y0018063D01*
X0106439Y0018045D01*
X0106372Y0018031D01*
X0106304Y0018021D01*
X0106236Y0018015D01*
X0106167Y0018013D01*
X0106098Y0018015D01*
X0106030Y0018021D01*
X0105962Y0018031D01*
X0105895Y0018045D01*
X0105828Y0018063D01*
X0105763Y0018084D01*
X0105699Y0018110D01*
X0105637Y0018139D01*
X0105576Y0018171D01*
X0105518Y0018207D01*
X0105462Y0018247D01*
X0105408Y0018289D01*
X0105357Y0018335D01*
X0105308Y0018384D01*
X0105262Y0018435D01*
X0105220Y0018489D01*
X0105180Y0018545D01*
X0105144Y0018603D01*
X0105112Y0018664D01*
X0105083Y0018726D01*
X0105057Y0018790D01*
X0105036Y0018855D01*
X0105018Y0018922D01*
X0105004Y0018989D01*
X0104994Y0019057D01*
X0104988Y0019125D01*
X0104986Y0019194D01*
X0100654Y0019188D02*
X0100656Y0019336D01*
X0100662Y0019484D01*
X0100672Y0019632D01*
X0100686Y0019779D01*
X0100704Y0019926D01*
X0100725Y0020072D01*
X0100751Y0020218D01*
X0100781Y0020363D01*
X0100814Y0020507D01*
X0100852Y0020650D01*
X0100893Y0020792D01*
X0100938Y0020933D01*
X0100986Y0021073D01*
X0101039Y0021212D01*
X0101095Y0021349D01*
X0101155Y0021484D01*
X0101218Y0021618D01*
X0101285Y0021750D01*
X0101356Y0021880D01*
X0101430Y0022008D01*
X0101507Y0022134D01*
X0101588Y0022258D01*
X0101672Y0022380D01*
X0101759Y0022499D01*
X0101850Y0022616D01*
X0101944Y0022731D01*
X0102040Y0022843D01*
X0102140Y0022953D01*
X0102242Y0023059D01*
X0102348Y0023163D01*
X0102456Y0023264D01*
X0102567Y0023362D01*
X0102680Y0023458D01*
X0102796Y0023550D01*
X0102914Y0023639D01*
X0103035Y0023724D01*
X0103158Y0023807D01*
X0103283Y0023886D01*
X0103410Y0023962D01*
X0103539Y0024034D01*
X0103670Y0024103D01*
X0103803Y0024168D01*
X0103938Y0024229D01*
X0104074Y0024287D01*
X0104211Y0024342D01*
X0104350Y0024392D01*
X0104491Y0024439D01*
X0104632Y0024482D01*
X0104775Y0024522D01*
X0104919Y0024557D01*
X0105063Y0024589D01*
X0105209Y0024616D01*
X0105355Y0024640D01*
X0105502Y0024660D01*
X0105649Y0024676D01*
X0105796Y0024688D01*
X0105944Y0024696D01*
X0106092Y0024700D01*
X0106240Y0024700D01*
X0106388Y0024696D01*
X0106536Y0024688D01*
X0106683Y0024676D01*
X0106830Y0024660D01*
X0106977Y0024640D01*
X0107123Y0024616D01*
X0107269Y0024589D01*
X0107413Y0024557D01*
X0107557Y0024522D01*
X0107700Y0024482D01*
X0107841Y0024439D01*
X0107982Y0024392D01*
X0108121Y0024342D01*
X0108258Y0024287D01*
X0108394Y0024229D01*
X0108529Y0024168D01*
X0108662Y0024103D01*
X0108793Y0024034D01*
X0108922Y0023962D01*
X0109049Y0023886D01*
X0109174Y0023807D01*
X0109297Y0023724D01*
X0109418Y0023639D01*
X0109536Y0023550D01*
X0109652Y0023458D01*
X0109765Y0023362D01*
X0109876Y0023264D01*
X0109984Y0023163D01*
X0110090Y0023059D01*
X0110192Y0022953D01*
X0110292Y0022843D01*
X0110388Y0022731D01*
X0110482Y0022616D01*
X0110573Y0022499D01*
X0110660Y0022380D01*
X0110744Y0022258D01*
X0110825Y0022134D01*
X0110902Y0022008D01*
X0110976Y0021880D01*
X0111047Y0021750D01*
X0111114Y0021618D01*
X0111177Y0021484D01*
X0111237Y0021349D01*
X0111293Y0021212D01*
X0111346Y0021073D01*
X0111394Y0020933D01*
X0111439Y0020792D01*
X0111480Y0020650D01*
X0111518Y0020507D01*
X0111551Y0020363D01*
X0111581Y0020218D01*
X0111607Y0020072D01*
X0111628Y0019926D01*
X0111646Y0019779D01*
X0111660Y0019632D01*
X0111670Y0019484D01*
X0111676Y0019336D01*
X0111678Y0019188D01*
X0111676Y0019040D01*
X0111670Y0018892D01*
X0111660Y0018744D01*
X0111646Y0018597D01*
X0111628Y0018450D01*
X0111607Y0018304D01*
X0111581Y0018158D01*
X0111551Y0018013D01*
X0111518Y0017869D01*
X0111480Y0017726D01*
X0111439Y0017584D01*
X0111394Y0017443D01*
X0111346Y0017303D01*
X0111293Y0017164D01*
X0111237Y0017027D01*
X0111177Y0016892D01*
X0111114Y0016758D01*
X0111047Y0016626D01*
X0110976Y0016496D01*
X0110902Y0016368D01*
X0110825Y0016242D01*
X0110744Y0016118D01*
X0110660Y0015996D01*
X0110573Y0015877D01*
X0110482Y0015760D01*
X0110388Y0015645D01*
X0110292Y0015533D01*
X0110192Y0015423D01*
X0110090Y0015317D01*
X0109984Y0015213D01*
X0109876Y0015112D01*
X0109765Y0015014D01*
X0109652Y0014918D01*
X0109536Y0014826D01*
X0109418Y0014737D01*
X0109297Y0014652D01*
X0109174Y0014569D01*
X0109049Y0014490D01*
X0108922Y0014414D01*
X0108793Y0014342D01*
X0108662Y0014273D01*
X0108529Y0014208D01*
X0108394Y0014147D01*
X0108258Y0014089D01*
X0108121Y0014034D01*
X0107982Y0013984D01*
X0107841Y0013937D01*
X0107700Y0013894D01*
X0107557Y0013854D01*
X0107413Y0013819D01*
X0107269Y0013787D01*
X0107123Y0013760D01*
X0106977Y0013736D01*
X0106830Y0013716D01*
X0106683Y0013700D01*
X0106536Y0013688D01*
X0106388Y0013680D01*
X0106240Y0013676D01*
X0106092Y0013676D01*
X0105944Y0013680D01*
X0105796Y0013688D01*
X0105649Y0013700D01*
X0105502Y0013716D01*
X0105355Y0013736D01*
X0105209Y0013760D01*
X0105063Y0013787D01*
X0104919Y0013819D01*
X0104775Y0013854D01*
X0104632Y0013894D01*
X0104491Y0013937D01*
X0104350Y0013984D01*
X0104211Y0014034D01*
X0104074Y0014089D01*
X0103938Y0014147D01*
X0103803Y0014208D01*
X0103670Y0014273D01*
X0103539Y0014342D01*
X0103410Y0014414D01*
X0103283Y0014490D01*
X0103158Y0014569D01*
X0103035Y0014652D01*
X0102914Y0014737D01*
X0102796Y0014826D01*
X0102680Y0014918D01*
X0102567Y0015014D01*
X0102456Y0015112D01*
X0102348Y0015213D01*
X0102242Y0015317D01*
X0102140Y0015423D01*
X0102040Y0015533D01*
X0101944Y0015645D01*
X0101850Y0015760D01*
X0101759Y0015877D01*
X0101672Y0015996D01*
X0101588Y0016118D01*
X0101507Y0016242D01*
X0101430Y0016368D01*
X0101356Y0016496D01*
X0101285Y0016626D01*
X0101218Y0016758D01*
X0101155Y0016892D01*
X0101095Y0017027D01*
X0101039Y0017164D01*
X0100986Y0017303D01*
X0100938Y0017443D01*
X0100893Y0017584D01*
X0100852Y0017726D01*
X0100814Y0017869D01*
X0100781Y0018013D01*
X0100751Y0018158D01*
X0100725Y0018304D01*
X0100704Y0018450D01*
X0100686Y0018597D01*
X0100672Y0018744D01*
X0100662Y0018892D01*
X0100656Y0019040D01*
X0100654Y0019188D01*
X0270665Y0219218D02*
X0270667Y0219366D01*
X0270673Y0219514D01*
X0270683Y0219662D01*
X0270697Y0219809D01*
X0270715Y0219956D01*
X0270736Y0220102D01*
X0270762Y0220248D01*
X0270792Y0220393D01*
X0270825Y0220537D01*
X0270863Y0220680D01*
X0270904Y0220822D01*
X0270949Y0220963D01*
X0270997Y0221103D01*
X0271050Y0221242D01*
X0271106Y0221379D01*
X0271166Y0221514D01*
X0271229Y0221648D01*
X0271296Y0221780D01*
X0271367Y0221910D01*
X0271441Y0222038D01*
X0271518Y0222164D01*
X0271599Y0222288D01*
X0271683Y0222410D01*
X0271770Y0222529D01*
X0271861Y0222646D01*
X0271955Y0222761D01*
X0272051Y0222873D01*
X0272151Y0222983D01*
X0272253Y0223089D01*
X0272359Y0223193D01*
X0272467Y0223294D01*
X0272578Y0223392D01*
X0272691Y0223488D01*
X0272807Y0223580D01*
X0272925Y0223669D01*
X0273046Y0223754D01*
X0273169Y0223837D01*
X0273294Y0223916D01*
X0273421Y0223992D01*
X0273550Y0224064D01*
X0273681Y0224133D01*
X0273814Y0224198D01*
X0273949Y0224259D01*
X0274085Y0224317D01*
X0274222Y0224372D01*
X0274361Y0224422D01*
X0274502Y0224469D01*
X0274643Y0224512D01*
X0274786Y0224552D01*
X0274930Y0224587D01*
X0275074Y0224619D01*
X0275220Y0224646D01*
X0275366Y0224670D01*
X0275513Y0224690D01*
X0275660Y0224706D01*
X0275807Y0224718D01*
X0275955Y0224726D01*
X0276103Y0224730D01*
X0276251Y0224730D01*
X0276399Y0224726D01*
X0276547Y0224718D01*
X0276694Y0224706D01*
X0276841Y0224690D01*
X0276988Y0224670D01*
X0277134Y0224646D01*
X0277280Y0224619D01*
X0277424Y0224587D01*
X0277568Y0224552D01*
X0277711Y0224512D01*
X0277852Y0224469D01*
X0277993Y0224422D01*
X0278132Y0224372D01*
X0278269Y0224317D01*
X0278405Y0224259D01*
X0278540Y0224198D01*
X0278673Y0224133D01*
X0278804Y0224064D01*
X0278933Y0223992D01*
X0279060Y0223916D01*
X0279185Y0223837D01*
X0279308Y0223754D01*
X0279429Y0223669D01*
X0279547Y0223580D01*
X0279663Y0223488D01*
X0279776Y0223392D01*
X0279887Y0223294D01*
X0279995Y0223193D01*
X0280101Y0223089D01*
X0280203Y0222983D01*
X0280303Y0222873D01*
X0280399Y0222761D01*
X0280493Y0222646D01*
X0280584Y0222529D01*
X0280671Y0222410D01*
X0280755Y0222288D01*
X0280836Y0222164D01*
X0280913Y0222038D01*
X0280987Y0221910D01*
X0281058Y0221780D01*
X0281125Y0221648D01*
X0281188Y0221514D01*
X0281248Y0221379D01*
X0281304Y0221242D01*
X0281357Y0221103D01*
X0281405Y0220963D01*
X0281450Y0220822D01*
X0281491Y0220680D01*
X0281529Y0220537D01*
X0281562Y0220393D01*
X0281592Y0220248D01*
X0281618Y0220102D01*
X0281639Y0219956D01*
X0281657Y0219809D01*
X0281671Y0219662D01*
X0281681Y0219514D01*
X0281687Y0219366D01*
X0281689Y0219218D01*
X0281687Y0219070D01*
X0281681Y0218922D01*
X0281671Y0218774D01*
X0281657Y0218627D01*
X0281639Y0218480D01*
X0281618Y0218334D01*
X0281592Y0218188D01*
X0281562Y0218043D01*
X0281529Y0217899D01*
X0281491Y0217756D01*
X0281450Y0217614D01*
X0281405Y0217473D01*
X0281357Y0217333D01*
X0281304Y0217194D01*
X0281248Y0217057D01*
X0281188Y0216922D01*
X0281125Y0216788D01*
X0281058Y0216656D01*
X0280987Y0216526D01*
X0280913Y0216398D01*
X0280836Y0216272D01*
X0280755Y0216148D01*
X0280671Y0216026D01*
X0280584Y0215907D01*
X0280493Y0215790D01*
X0280399Y0215675D01*
X0280303Y0215563D01*
X0280203Y0215453D01*
X0280101Y0215347D01*
X0279995Y0215243D01*
X0279887Y0215142D01*
X0279776Y0215044D01*
X0279663Y0214948D01*
X0279547Y0214856D01*
X0279429Y0214767D01*
X0279308Y0214682D01*
X0279185Y0214599D01*
X0279060Y0214520D01*
X0278933Y0214444D01*
X0278804Y0214372D01*
X0278673Y0214303D01*
X0278540Y0214238D01*
X0278405Y0214177D01*
X0278269Y0214119D01*
X0278132Y0214064D01*
X0277993Y0214014D01*
X0277852Y0213967D01*
X0277711Y0213924D01*
X0277568Y0213884D01*
X0277424Y0213849D01*
X0277280Y0213817D01*
X0277134Y0213790D01*
X0276988Y0213766D01*
X0276841Y0213746D01*
X0276694Y0213730D01*
X0276547Y0213718D01*
X0276399Y0213710D01*
X0276251Y0213706D01*
X0276103Y0213706D01*
X0275955Y0213710D01*
X0275807Y0213718D01*
X0275660Y0213730D01*
X0275513Y0213746D01*
X0275366Y0213766D01*
X0275220Y0213790D01*
X0275074Y0213817D01*
X0274930Y0213849D01*
X0274786Y0213884D01*
X0274643Y0213924D01*
X0274502Y0213967D01*
X0274361Y0214014D01*
X0274222Y0214064D01*
X0274085Y0214119D01*
X0273949Y0214177D01*
X0273814Y0214238D01*
X0273681Y0214303D01*
X0273550Y0214372D01*
X0273421Y0214444D01*
X0273294Y0214520D01*
X0273169Y0214599D01*
X0273046Y0214682D01*
X0272925Y0214767D01*
X0272807Y0214856D01*
X0272691Y0214948D01*
X0272578Y0215044D01*
X0272467Y0215142D01*
X0272359Y0215243D01*
X0272253Y0215347D01*
X0272151Y0215453D01*
X0272051Y0215563D01*
X0271955Y0215675D01*
X0271861Y0215790D01*
X0271770Y0215907D01*
X0271683Y0216026D01*
X0271599Y0216148D01*
X0271518Y0216272D01*
X0271441Y0216398D01*
X0271367Y0216526D01*
X0271296Y0216656D01*
X0271229Y0216788D01*
X0271166Y0216922D01*
X0271106Y0217057D01*
X0271050Y0217194D01*
X0270997Y0217333D01*
X0270949Y0217473D01*
X0270904Y0217614D01*
X0270863Y0217756D01*
X0270825Y0217899D01*
X0270792Y0218043D01*
X0270762Y0218188D01*
X0270736Y0218334D01*
X0270715Y0218480D01*
X0270697Y0218627D01*
X0270683Y0218774D01*
X0270673Y0218922D01*
X0270667Y0219070D01*
X0270665Y0219218D01*
X0274994Y0219227D02*
X0274996Y0219296D01*
X0275002Y0219364D01*
X0275012Y0219432D01*
X0275026Y0219499D01*
X0275044Y0219566D01*
X0275065Y0219631D01*
X0275091Y0219695D01*
X0275120Y0219757D01*
X0275152Y0219817D01*
X0275188Y0219876D01*
X0275228Y0219932D01*
X0275270Y0219986D01*
X0275316Y0220037D01*
X0275365Y0220086D01*
X0275416Y0220132D01*
X0275470Y0220174D01*
X0275526Y0220214D01*
X0275584Y0220250D01*
X0275645Y0220282D01*
X0275707Y0220311D01*
X0275771Y0220337D01*
X0275836Y0220358D01*
X0275903Y0220376D01*
X0275970Y0220390D01*
X0276038Y0220400D01*
X0276106Y0220406D01*
X0276175Y0220408D01*
X0276244Y0220406D01*
X0276312Y0220400D01*
X0276380Y0220390D01*
X0276447Y0220376D01*
X0276514Y0220358D01*
X0276579Y0220337D01*
X0276643Y0220311D01*
X0276705Y0220282D01*
X0276765Y0220250D01*
X0276824Y0220214D01*
X0276880Y0220174D01*
X0276934Y0220132D01*
X0276985Y0220086D01*
X0277034Y0220037D01*
X0277080Y0219986D01*
X0277122Y0219932D01*
X0277162Y0219876D01*
X0277198Y0219817D01*
X0277230Y0219757D01*
X0277259Y0219695D01*
X0277285Y0219631D01*
X0277306Y0219566D01*
X0277324Y0219499D01*
X0277338Y0219432D01*
X0277348Y0219364D01*
X0277354Y0219296D01*
X0277356Y0219227D01*
X0277354Y0219158D01*
X0277348Y0219090D01*
X0277338Y0219022D01*
X0277324Y0218955D01*
X0277306Y0218888D01*
X0277285Y0218823D01*
X0277259Y0218759D01*
X0277230Y0218697D01*
X0277198Y0218636D01*
X0277162Y0218578D01*
X0277122Y0218522D01*
X0277080Y0218468D01*
X0277034Y0218417D01*
X0276985Y0218368D01*
X0276934Y0218322D01*
X0276880Y0218280D01*
X0276824Y0218240D01*
X0276766Y0218204D01*
X0276705Y0218172D01*
X0276643Y0218143D01*
X0276579Y0218117D01*
X0276514Y0218096D01*
X0276447Y0218078D01*
X0276380Y0218064D01*
X0276312Y0218054D01*
X0276244Y0218048D01*
X0276175Y0218046D01*
X0276106Y0218048D01*
X0276038Y0218054D01*
X0275970Y0218064D01*
X0275903Y0218078D01*
X0275836Y0218096D01*
X0275771Y0218117D01*
X0275707Y0218143D01*
X0275645Y0218172D01*
X0275584Y0218204D01*
X0275526Y0218240D01*
X0275470Y0218280D01*
X0275416Y0218322D01*
X0275365Y0218368D01*
X0275316Y0218417D01*
X0275270Y0218468D01*
X0275228Y0218522D01*
X0275188Y0218578D01*
X0275152Y0218636D01*
X0275120Y0218697D01*
X0275091Y0218759D01*
X0275065Y0218823D01*
X0275044Y0218888D01*
X0275026Y0218955D01*
X0275012Y0219022D01*
X0275002Y0219090D01*
X0274996Y0219158D01*
X0274994Y0219227D01*
X0084990Y0224217D02*
X0084992Y0224286D01*
X0084998Y0224354D01*
X0085008Y0224422D01*
X0085022Y0224489D01*
X0085040Y0224556D01*
X0085061Y0224621D01*
X0085087Y0224685D01*
X0085116Y0224747D01*
X0085148Y0224807D01*
X0085184Y0224866D01*
X0085224Y0224922D01*
X0085266Y0224976D01*
X0085312Y0225027D01*
X0085361Y0225076D01*
X0085412Y0225122D01*
X0085466Y0225164D01*
X0085522Y0225204D01*
X0085580Y0225240D01*
X0085641Y0225272D01*
X0085703Y0225301D01*
X0085767Y0225327D01*
X0085832Y0225348D01*
X0085899Y0225366D01*
X0085966Y0225380D01*
X0086034Y0225390D01*
X0086102Y0225396D01*
X0086171Y0225398D01*
X0086240Y0225396D01*
X0086308Y0225390D01*
X0086376Y0225380D01*
X0086443Y0225366D01*
X0086510Y0225348D01*
X0086575Y0225327D01*
X0086639Y0225301D01*
X0086701Y0225272D01*
X0086761Y0225240D01*
X0086820Y0225204D01*
X0086876Y0225164D01*
X0086930Y0225122D01*
X0086981Y0225076D01*
X0087030Y0225027D01*
X0087076Y0224976D01*
X0087118Y0224922D01*
X0087158Y0224866D01*
X0087194Y0224807D01*
X0087226Y0224747D01*
X0087255Y0224685D01*
X0087281Y0224621D01*
X0087302Y0224556D01*
X0087320Y0224489D01*
X0087334Y0224422D01*
X0087344Y0224354D01*
X0087350Y0224286D01*
X0087352Y0224217D01*
X0087350Y0224148D01*
X0087344Y0224080D01*
X0087334Y0224012D01*
X0087320Y0223945D01*
X0087302Y0223878D01*
X0087281Y0223813D01*
X0087255Y0223749D01*
X0087226Y0223687D01*
X0087194Y0223626D01*
X0087158Y0223568D01*
X0087118Y0223512D01*
X0087076Y0223458D01*
X0087030Y0223407D01*
X0086981Y0223358D01*
X0086930Y0223312D01*
X0086876Y0223270D01*
X0086820Y0223230D01*
X0086762Y0223194D01*
X0086701Y0223162D01*
X0086639Y0223133D01*
X0086575Y0223107D01*
X0086510Y0223086D01*
X0086443Y0223068D01*
X0086376Y0223054D01*
X0086308Y0223044D01*
X0086240Y0223038D01*
X0086171Y0223036D01*
X0086102Y0223038D01*
X0086034Y0223044D01*
X0085966Y0223054D01*
X0085899Y0223068D01*
X0085832Y0223086D01*
X0085767Y0223107D01*
X0085703Y0223133D01*
X0085641Y0223162D01*
X0085580Y0223194D01*
X0085522Y0223230D01*
X0085466Y0223270D01*
X0085412Y0223312D01*
X0085361Y0223358D01*
X0085312Y0223407D01*
X0085266Y0223458D01*
X0085224Y0223512D01*
X0085184Y0223568D01*
X0085148Y0223626D01*
X0085116Y0223687D01*
X0085087Y0223749D01*
X0085061Y0223813D01*
X0085040Y0223878D01*
X0085022Y0223945D01*
X0085008Y0224012D01*
X0084998Y0224080D01*
X0084992Y0224148D01*
X0084990Y0224217D01*
X0080655Y0224221D02*
X0080657Y0224369D01*
X0080663Y0224517D01*
X0080673Y0224665D01*
X0080687Y0224812D01*
X0080705Y0224959D01*
X0080726Y0225105D01*
X0080752Y0225251D01*
X0080782Y0225396D01*
X0080815Y0225540D01*
X0080853Y0225683D01*
X0080894Y0225825D01*
X0080939Y0225966D01*
X0080987Y0226106D01*
X0081040Y0226245D01*
X0081096Y0226382D01*
X0081156Y0226517D01*
X0081219Y0226651D01*
X0081286Y0226783D01*
X0081357Y0226913D01*
X0081431Y0227041D01*
X0081508Y0227167D01*
X0081589Y0227291D01*
X0081673Y0227413D01*
X0081760Y0227532D01*
X0081851Y0227649D01*
X0081945Y0227764D01*
X0082041Y0227876D01*
X0082141Y0227986D01*
X0082243Y0228092D01*
X0082349Y0228196D01*
X0082457Y0228297D01*
X0082568Y0228395D01*
X0082681Y0228491D01*
X0082797Y0228583D01*
X0082915Y0228672D01*
X0083036Y0228757D01*
X0083159Y0228840D01*
X0083284Y0228919D01*
X0083411Y0228995D01*
X0083540Y0229067D01*
X0083671Y0229136D01*
X0083804Y0229201D01*
X0083939Y0229262D01*
X0084075Y0229320D01*
X0084212Y0229375D01*
X0084351Y0229425D01*
X0084492Y0229472D01*
X0084633Y0229515D01*
X0084776Y0229555D01*
X0084920Y0229590D01*
X0085064Y0229622D01*
X0085210Y0229649D01*
X0085356Y0229673D01*
X0085503Y0229693D01*
X0085650Y0229709D01*
X0085797Y0229721D01*
X0085945Y0229729D01*
X0086093Y0229733D01*
X0086241Y0229733D01*
X0086389Y0229729D01*
X0086537Y0229721D01*
X0086684Y0229709D01*
X0086831Y0229693D01*
X0086978Y0229673D01*
X0087124Y0229649D01*
X0087270Y0229622D01*
X0087414Y0229590D01*
X0087558Y0229555D01*
X0087701Y0229515D01*
X0087842Y0229472D01*
X0087983Y0229425D01*
X0088122Y0229375D01*
X0088259Y0229320D01*
X0088395Y0229262D01*
X0088530Y0229201D01*
X0088663Y0229136D01*
X0088794Y0229067D01*
X0088923Y0228995D01*
X0089050Y0228919D01*
X0089175Y0228840D01*
X0089298Y0228757D01*
X0089419Y0228672D01*
X0089537Y0228583D01*
X0089653Y0228491D01*
X0089766Y0228395D01*
X0089877Y0228297D01*
X0089985Y0228196D01*
X0090091Y0228092D01*
X0090193Y0227986D01*
X0090293Y0227876D01*
X0090389Y0227764D01*
X0090483Y0227649D01*
X0090574Y0227532D01*
X0090661Y0227413D01*
X0090745Y0227291D01*
X0090826Y0227167D01*
X0090903Y0227041D01*
X0090977Y0226913D01*
X0091048Y0226783D01*
X0091115Y0226651D01*
X0091178Y0226517D01*
X0091238Y0226382D01*
X0091294Y0226245D01*
X0091347Y0226106D01*
X0091395Y0225966D01*
X0091440Y0225825D01*
X0091481Y0225683D01*
X0091519Y0225540D01*
X0091552Y0225396D01*
X0091582Y0225251D01*
X0091608Y0225105D01*
X0091629Y0224959D01*
X0091647Y0224812D01*
X0091661Y0224665D01*
X0091671Y0224517D01*
X0091677Y0224369D01*
X0091679Y0224221D01*
X0091677Y0224073D01*
X0091671Y0223925D01*
X0091661Y0223777D01*
X0091647Y0223630D01*
X0091629Y0223483D01*
X0091608Y0223337D01*
X0091582Y0223191D01*
X0091552Y0223046D01*
X0091519Y0222902D01*
X0091481Y0222759D01*
X0091440Y0222617D01*
X0091395Y0222476D01*
X0091347Y0222336D01*
X0091294Y0222197D01*
X0091238Y0222060D01*
X0091178Y0221925D01*
X0091115Y0221791D01*
X0091048Y0221659D01*
X0090977Y0221529D01*
X0090903Y0221401D01*
X0090826Y0221275D01*
X0090745Y0221151D01*
X0090661Y0221029D01*
X0090574Y0220910D01*
X0090483Y0220793D01*
X0090389Y0220678D01*
X0090293Y0220566D01*
X0090193Y0220456D01*
X0090091Y0220350D01*
X0089985Y0220246D01*
X0089877Y0220145D01*
X0089766Y0220047D01*
X0089653Y0219951D01*
X0089537Y0219859D01*
X0089419Y0219770D01*
X0089298Y0219685D01*
X0089175Y0219602D01*
X0089050Y0219523D01*
X0088923Y0219447D01*
X0088794Y0219375D01*
X0088663Y0219306D01*
X0088530Y0219241D01*
X0088395Y0219180D01*
X0088259Y0219122D01*
X0088122Y0219067D01*
X0087983Y0219017D01*
X0087842Y0218970D01*
X0087701Y0218927D01*
X0087558Y0218887D01*
X0087414Y0218852D01*
X0087270Y0218820D01*
X0087124Y0218793D01*
X0086978Y0218769D01*
X0086831Y0218749D01*
X0086684Y0218733D01*
X0086537Y0218721D01*
X0086389Y0218713D01*
X0086241Y0218709D01*
X0086093Y0218709D01*
X0085945Y0218713D01*
X0085797Y0218721D01*
X0085650Y0218733D01*
X0085503Y0218749D01*
X0085356Y0218769D01*
X0085210Y0218793D01*
X0085064Y0218820D01*
X0084920Y0218852D01*
X0084776Y0218887D01*
X0084633Y0218927D01*
X0084492Y0218970D01*
X0084351Y0219017D01*
X0084212Y0219067D01*
X0084075Y0219122D01*
X0083939Y0219180D01*
X0083804Y0219241D01*
X0083671Y0219306D01*
X0083540Y0219375D01*
X0083411Y0219447D01*
X0083284Y0219523D01*
X0083159Y0219602D01*
X0083036Y0219685D01*
X0082915Y0219770D01*
X0082797Y0219859D01*
X0082681Y0219951D01*
X0082568Y0220047D01*
X0082457Y0220145D01*
X0082349Y0220246D01*
X0082243Y0220350D01*
X0082141Y0220456D01*
X0082041Y0220566D01*
X0081945Y0220678D01*
X0081851Y0220793D01*
X0081760Y0220910D01*
X0081673Y0221029D01*
X0081589Y0221151D01*
X0081508Y0221275D01*
X0081431Y0221401D01*
X0081357Y0221529D01*
X0081286Y0221659D01*
X0081219Y0221791D01*
X0081156Y0221925D01*
X0081096Y0222060D01*
X0081040Y0222197D01*
X0080987Y0222336D01*
X0080939Y0222476D01*
X0080894Y0222617D01*
X0080853Y0222759D01*
X0080815Y0222902D01*
X0080782Y0223046D01*
X0080752Y0223191D01*
X0080726Y0223337D01*
X0080705Y0223483D01*
X0080687Y0223630D01*
X0080673Y0223777D01*
X0080663Y0223925D01*
X0080657Y0224073D01*
X0080655Y0224221D01*
D11*
X0076160Y0275291D02*
X0076162Y0275415D01*
X0076168Y0275538D01*
X0076177Y0275661D01*
X0076190Y0275784D01*
X0076207Y0275907D01*
X0076228Y0276028D01*
X0076253Y0276150D01*
X0076281Y0276270D01*
X0076313Y0276389D01*
X0076349Y0276508D01*
X0076388Y0276625D01*
X0076431Y0276741D01*
X0076477Y0276855D01*
X0076527Y0276968D01*
X0076581Y0277080D01*
X0076637Y0277190D01*
X0076698Y0277298D01*
X0076761Y0277404D01*
X0076828Y0277508D01*
X0076898Y0277610D01*
X0076971Y0277709D01*
X0077047Y0277807D01*
X0077126Y0277902D01*
X0077207Y0277995D01*
X0077292Y0278085D01*
X0077379Y0278172D01*
X0077469Y0278257D01*
X0077562Y0278338D01*
X0077657Y0278417D01*
X0077755Y0278493D01*
X0077854Y0278566D01*
X0077956Y0278636D01*
X0078060Y0278703D01*
X0078167Y0278766D01*
X0078274Y0278827D01*
X0078384Y0278883D01*
X0078496Y0278937D01*
X0078609Y0278987D01*
X0078723Y0279033D01*
X0078839Y0279076D01*
X0078956Y0279115D01*
X0079075Y0279151D01*
X0079194Y0279183D01*
X0079314Y0279211D01*
X0079436Y0279236D01*
X0079557Y0279257D01*
X0079680Y0279274D01*
X0079803Y0279287D01*
X0079926Y0279296D01*
X0080049Y0279302D01*
X0080173Y0279304D01*
X0080373Y0279304D01*
X0080373Y0279314D01*
X0281965Y0279314D01*
X0281964Y0279315D02*
X0282090Y0279314D01*
X0282216Y0279310D01*
X0282341Y0279303D01*
X0282466Y0279291D01*
X0282591Y0279275D01*
X0282715Y0279255D01*
X0282839Y0279232D01*
X0282962Y0279205D01*
X0283083Y0279174D01*
X0283204Y0279139D01*
X0283324Y0279100D01*
X0283442Y0279058D01*
X0283559Y0279012D01*
X0283675Y0278963D01*
X0283789Y0278910D01*
X0283901Y0278853D01*
X0284011Y0278793D01*
X0284120Y0278729D01*
X0284226Y0278663D01*
X0284331Y0278593D01*
X0284433Y0278519D01*
X0284533Y0278443D01*
X0284630Y0278363D01*
X0284725Y0278281D01*
X0284817Y0278195D01*
X0284907Y0278107D01*
X0284994Y0278016D01*
X0285077Y0277922D01*
X0285158Y0277826D01*
X0285236Y0277728D01*
X0285311Y0277627D01*
X0285383Y0277523D01*
X0285451Y0277418D01*
X0285516Y0277310D01*
X0285578Y0277201D01*
X0285636Y0277089D01*
X0285691Y0276976D01*
X0285742Y0276861D01*
X0285790Y0276745D01*
X0285834Y0276627D01*
X0285874Y0276508D01*
X0285911Y0276388D01*
X0285944Y0276266D01*
X0285973Y0276144D01*
X0285998Y0276021D01*
X0286019Y0275897D01*
X0286037Y0275773D01*
X0286050Y0275648D01*
X0286060Y0275522D01*
X0286066Y0275397D01*
X0286068Y0275271D01*
X0286068Y0024303D01*
X0283871Y0022106D01*
X0283871Y0022096D01*
X0281082Y0019307D01*
X0236982Y0019307D01*
X0236976Y0019301D01*
X0236064Y0019301D01*
X0230167Y0013405D01*
X0230167Y0013404D01*
X0226070Y0009308D01*
X0216017Y0009308D01*
X0224778Y0009311D02*
X0224795Y0009294D01*
X0225888Y0009328D02*
X0225905Y0009311D01*
X0107532Y0009311D01*
X0107514Y0009294D01*
X0096350Y0009294D01*
X0096332Y0009276D01*
X0096165Y0009311D02*
X0093131Y0012345D01*
X0093131Y0012345D01*
X0086167Y0019309D01*
X0080190Y0019309D01*
X0080066Y0019311D01*
X0079943Y0019317D01*
X0079819Y0019326D01*
X0079696Y0019339D01*
X0079573Y0019357D01*
X0079451Y0019377D01*
X0079330Y0019402D01*
X0079209Y0019430D01*
X0079090Y0019462D01*
X0078971Y0019498D01*
X0078854Y0019538D01*
X0078738Y0019580D01*
X0078623Y0019627D01*
X0078510Y0019677D01*
X0078398Y0019730D01*
X0078288Y0019787D01*
X0078180Y0019848D01*
X0078074Y0019911D01*
X0077969Y0019978D01*
X0077867Y0020048D01*
X0077767Y0020121D01*
X0077670Y0020197D01*
X0077575Y0020276D01*
X0077482Y0020358D01*
X0077392Y0020443D01*
X0077304Y0020531D01*
X0077219Y0020621D01*
X0077137Y0020714D01*
X0077058Y0020809D01*
X0076982Y0020906D01*
X0076909Y0021006D01*
X0076839Y0021108D01*
X0076772Y0021213D01*
X0076709Y0021319D01*
X0076648Y0021427D01*
X0076591Y0021537D01*
X0076538Y0021649D01*
X0076488Y0021762D01*
X0076441Y0021877D01*
X0076399Y0021993D01*
X0076359Y0022110D01*
X0076323Y0022229D01*
X0076291Y0022348D01*
X0076263Y0022469D01*
X0076238Y0022590D01*
X0076218Y0022712D01*
X0076200Y0022835D01*
X0076187Y0022958D01*
X0076178Y0023082D01*
X0076172Y0023205D01*
X0076170Y0023329D01*
X0076170Y0275291D01*
X0076160Y0275291D01*
D12*
X0111170Y0268188D03*
X0111170Y0259088D03*
X0111170Y0249988D03*
D13*
X0085970Y0259088D03*
D14*
X0125541Y0257769D03*
X0125377Y0263341D03*
X0125377Y0270841D03*
X0125541Y0250269D03*
D15*
X0163996Y0220573D03*
X0169996Y0220573D03*
X0189856Y0220646D03*
X0195856Y0220646D03*
X0196717Y0191245D03*
X0190717Y0191245D03*
X0171568Y0191090D03*
X0165568Y0191090D03*
X0185647Y0154503D03*
X0191647Y0154503D03*
X0209901Y0154345D03*
X0215901Y0154345D03*
X0213992Y0127617D03*
X0219992Y0127617D03*
X0198867Y0127335D03*
X0192867Y0127335D03*
X0167559Y0127335D03*
X0161559Y0127335D03*
X0142903Y0127335D03*
X0136903Y0127335D03*
X0137221Y0153715D03*
X0143221Y0153715D03*
X0160843Y0153717D03*
X0166843Y0153717D03*
D16*
X0167516Y0144413D03*
X0160116Y0144413D03*
X0163816Y0135813D03*
X0143735Y0144808D03*
X0136335Y0144808D03*
X0140035Y0136208D03*
X0184493Y0144413D03*
X0191893Y0144413D03*
X0188193Y0135813D03*
X0209156Y0144414D03*
X0216556Y0144414D03*
X0212856Y0135814D03*
X0196793Y0203216D03*
X0189393Y0203216D03*
X0193093Y0211816D03*
X0170765Y0203179D03*
X0163365Y0203179D03*
X0167065Y0211779D03*
D17*
X0121690Y0215957D02*
X0115690Y0215957D01*
X0108544Y0216067D02*
X0102544Y0216067D01*
X0102544Y0206067D02*
X0108544Y0206067D01*
X0115690Y0205957D02*
X0121690Y0205957D01*
X0121690Y0195957D02*
X0115690Y0195957D01*
X0108544Y0196067D02*
X0102544Y0196067D01*
X0102544Y0186067D02*
X0108544Y0186067D01*
X0115690Y0185957D02*
X0121690Y0185957D01*
X0121690Y0175957D02*
X0115690Y0175957D01*
X0108544Y0176067D02*
X0102544Y0176067D01*
X0102544Y0166067D02*
X0108544Y0166067D01*
X0115690Y0165957D02*
X0121690Y0165957D01*
X0101965Y0149224D02*
X0095965Y0149224D01*
X0089170Y0149224D02*
X0083170Y0149224D01*
X0083170Y0139224D02*
X0089170Y0139224D01*
X0095965Y0139224D02*
X0101965Y0139224D01*
X0101965Y0129224D02*
X0095965Y0129224D01*
X0089170Y0129224D02*
X0083170Y0129224D01*
X0083170Y0119224D02*
X0089170Y0119224D01*
X0095965Y0119224D02*
X0101965Y0119224D01*
X0101965Y0109224D02*
X0095965Y0109224D01*
X0089170Y0109224D02*
X0083170Y0109224D01*
X0083170Y0099224D02*
X0089170Y0099224D01*
X0095965Y0099224D02*
X0101965Y0099224D01*
X0101965Y0079224D02*
X0095965Y0079224D01*
X0089170Y0079224D02*
X0083170Y0079224D01*
X0083170Y0069224D02*
X0089170Y0069224D01*
X0095965Y0069224D02*
X0101965Y0069224D01*
X0101965Y0059224D02*
X0095965Y0059224D01*
X0089170Y0059224D02*
X0083170Y0059224D01*
X0083170Y0049224D02*
X0089170Y0049224D01*
X0095965Y0049224D02*
X0101965Y0049224D01*
X0101965Y0039224D02*
X0095965Y0039224D01*
X0089170Y0039224D02*
X0083170Y0039224D01*
X0083170Y0029224D02*
X0089170Y0029224D01*
X0095965Y0029224D02*
X0101965Y0029224D01*
X0225926Y0165957D02*
X0231926Y0165957D01*
X0239179Y0166081D02*
X0245179Y0166081D01*
X0245179Y0176081D02*
X0239179Y0176081D01*
X0231926Y0175957D02*
X0225926Y0175957D01*
X0225926Y0185957D02*
X0231926Y0185957D01*
X0239179Y0186081D02*
X0245179Y0186081D01*
X0245179Y0196081D02*
X0239179Y0196081D01*
X0231926Y0195957D02*
X0225926Y0195957D01*
X0225926Y0205957D02*
X0231926Y0205957D01*
X0239179Y0206081D02*
X0245179Y0206081D01*
X0245179Y0216081D02*
X0239179Y0216081D01*
X0231926Y0215957D02*
X0225926Y0215957D01*
X0225926Y0225957D02*
X0231926Y0225957D01*
X0239179Y0226081D02*
X0245179Y0226081D01*
X0245179Y0236081D02*
X0239179Y0236081D01*
X0231926Y0235957D02*
X0225926Y0235957D01*
X0260039Y0205648D02*
X0266039Y0205648D01*
X0273255Y0205314D02*
X0279255Y0205314D01*
X0279255Y0195314D02*
X0273255Y0195314D01*
X0266039Y0195648D02*
X0260039Y0195648D01*
X0260039Y0185648D02*
X0266039Y0185648D01*
X0273255Y0185314D02*
X0279255Y0185314D01*
X0279255Y0175314D02*
X0273255Y0175314D01*
X0266039Y0175648D02*
X0260039Y0175648D01*
X0260039Y0165648D02*
X0266039Y0165648D01*
X0273255Y0165314D02*
X0279255Y0165314D01*
X0279255Y0155314D02*
X0273255Y0155314D01*
X0266039Y0155648D02*
X0260039Y0155648D01*
X0260039Y0145648D02*
X0266039Y0145648D01*
X0273255Y0145314D02*
X0279255Y0145314D01*
X0279255Y0135314D02*
X0273255Y0135314D01*
X0266039Y0135648D02*
X0260039Y0135648D01*
X0260039Y0125648D02*
X0266039Y0125648D01*
X0273255Y0125314D02*
X0279255Y0125314D01*
X0279255Y0115314D02*
X0273255Y0115314D01*
X0266039Y0115648D02*
X0260039Y0115648D01*
X0260206Y0099399D02*
X0266206Y0099399D01*
X0273589Y0099566D02*
X0279589Y0099566D01*
X0279589Y0089566D02*
X0273589Y0089566D01*
X0266206Y0089399D02*
X0260206Y0089399D01*
X0260206Y0079399D02*
X0266206Y0079399D01*
X0273589Y0079566D02*
X0279589Y0079566D01*
X0279589Y0069566D02*
X0273589Y0069566D01*
X0266206Y0069399D02*
X0260206Y0069399D01*
X0260206Y0059399D02*
X0266206Y0059399D01*
X0273589Y0059566D02*
X0279589Y0059566D01*
X0279589Y0049566D02*
X0273589Y0049566D01*
X0266206Y0049399D02*
X0260206Y0049399D01*
X0260206Y0039399D02*
X0266206Y0039399D01*
X0273589Y0039566D02*
X0279589Y0039566D01*
X0279589Y0029566D02*
X0273589Y0029566D01*
X0266206Y0029399D02*
X0260206Y0029399D01*
X0121690Y0225957D02*
X0115690Y0225957D01*
X0108544Y0226067D02*
X0102544Y0226067D01*
X0102544Y0236067D02*
X0108544Y0236067D01*
X0115690Y0235957D02*
X0121690Y0235957D01*
D18*
X0150186Y0235996D03*
X0206091Y0235996D03*
D19*
X0206091Y0228122D03*
X0206091Y0220248D03*
X0206091Y0212374D03*
X0206091Y0204500D03*
X0206091Y0196626D03*
X0206091Y0188752D03*
X0206091Y0180878D03*
X0150186Y0180878D03*
X0150186Y0188752D03*
X0150186Y0196626D03*
X0150186Y0204500D03*
X0150186Y0212374D03*
X0150186Y0220248D03*
X0150186Y0228122D03*
D20*
X0164928Y0257756D03*
X0174928Y0257756D03*
X0184928Y0257756D03*
X0184928Y0267756D03*
X0174928Y0267756D03*
X0164928Y0267756D03*
X0194928Y0267756D03*
X0194928Y0257756D03*
X0250151Y0145647D03*
X0250522Y0135544D03*
X0213926Y0114161D03*
X0203926Y0114144D03*
X0193926Y0114151D03*
X0183926Y0114153D03*
X0163926Y0113949D03*
X0153926Y0113949D03*
X0143926Y0113949D03*
X0133926Y0113949D03*
D21*
X0258454Y0237958D03*
X0275776Y0237958D03*
X0275776Y0269454D03*
X0258454Y0269454D03*
D22*
X0196209Y0028848D03*
X0186209Y0028848D03*
X0176209Y0028848D03*
X0176209Y0018848D03*
X0186209Y0018848D03*
X0196209Y0018848D03*
D23*
X0228851Y0030955D03*
X0243024Y0030955D03*
X0243024Y0062451D03*
X0228851Y0062451D03*
D24*
X0225701Y0055364D03*
X0225701Y0049852D03*
X0225701Y0038041D03*
X0246174Y0038041D03*
X0246174Y0049852D03*
X0246174Y0055364D03*
D25*
X0198561Y0168673D02*
X0195561Y0168673D01*
X0180205Y0168673D02*
X0177205Y0168673D01*
X0160951Y0168673D02*
X0157951Y0168673D01*
D26*
X0157451Y0168673D03*
X0161451Y0168673D03*
X0176705Y0168673D03*
X0180705Y0168673D03*
X0195061Y0168673D03*
X0199061Y0168673D03*
D27*
X0199032Y0181582D01*
X0206091Y0188752D01*
X0199317Y0192116D02*
X0201702Y0195201D01*
X0201491Y0195711D01*
X0201491Y0197541D01*
X0202191Y0199232D01*
X0203485Y0200526D01*
X0203576Y0200563D01*
X0203485Y0200600D01*
X0202191Y0201894D01*
X0201491Y0203585D01*
X0201491Y0205415D01*
X0202191Y0207106D01*
X0203485Y0208400D01*
X0203576Y0208437D01*
X0203485Y0208474D01*
X0202191Y0209768D01*
X0201491Y0211459D01*
X0201491Y0213289D01*
X0202191Y0214980D01*
X0203485Y0216274D01*
X0203576Y0216311D01*
X0203485Y0216348D01*
X0202191Y0217642D01*
X0201491Y0219333D01*
X0201491Y0221163D01*
X0202191Y0222854D01*
X0203485Y0224148D01*
X0203576Y0224185D01*
X0203485Y0224222D01*
X0202226Y0225482D01*
X0202049Y0225485D01*
X0201596Y0225470D01*
X0201534Y0225494D01*
X0201467Y0225495D01*
X0201052Y0225675D01*
X0200628Y0225835D01*
X0200580Y0225881D01*
X0200518Y0225907D01*
X0200204Y0226233D01*
X0199874Y0226542D01*
X0199846Y0226603D01*
X0198292Y0228212D01*
X0198304Y0228128D01*
X0198370Y0227974D01*
X0198374Y0227620D01*
X0198422Y0227269D01*
X0198380Y0227108D01*
X0198428Y0223020D01*
X0198456Y0222992D01*
X0198456Y0220662D01*
X0198462Y0220160D01*
X0198456Y0220145D01*
X0198456Y0214061D01*
X0198060Y0213105D01*
X0195943Y0210989D01*
X0195943Y0208770D01*
X0194889Y0207716D01*
X0191298Y0207716D01*
X0190243Y0208770D01*
X0190243Y0214861D01*
X0191298Y0215916D01*
X0193256Y0215916D01*
X0193256Y0220631D01*
X0193191Y0226123D01*
X0190239Y0228360D01*
X0187162Y0228360D01*
X0186221Y0229301D01*
X0186221Y0234595D01*
X0187162Y0235536D01*
X0191220Y0235536D01*
X0189088Y0237744D01*
X0181625Y0237744D01*
X0180669Y0238140D01*
X0179938Y0238871D01*
X0165852Y0252956D01*
X0162940Y0252956D01*
X0160128Y0255768D01*
X0160128Y0259745D01*
X0162940Y0262556D01*
X0166917Y0262556D01*
X0169728Y0259745D01*
X0169728Y0256434D01*
X0170128Y0256034D01*
X0170128Y0259745D01*
X0172940Y0262556D01*
X0176917Y0262556D01*
X0179728Y0259745D01*
X0179728Y0255768D01*
X0176917Y0252956D01*
X0173206Y0252956D01*
X0183219Y0242944D01*
X0189698Y0242944D01*
X0189720Y0242952D01*
X0190214Y0242944D01*
X0190709Y0242944D01*
X0190730Y0242935D01*
X0190754Y0242934D01*
X0191207Y0242737D01*
X0191664Y0242548D01*
X0191681Y0242531D01*
X0191703Y0242522D01*
X0192046Y0242166D01*
X0192396Y0241817D01*
X0192405Y0241795D01*
X0202650Y0231186D01*
X0202860Y0231396D01*
X0202546Y0231396D01*
X0201491Y0232450D01*
X0201491Y0239542D01*
X0202546Y0240596D01*
X0206563Y0240596D01*
X0206563Y0254915D01*
X0204660Y0256818D01*
X0204264Y0257774D01*
X0204264Y0261696D01*
X0200804Y0265156D01*
X0199117Y0265156D01*
X0196917Y0262956D01*
X0192940Y0262956D01*
X0190128Y0265768D01*
X0190128Y0269745D01*
X0192940Y0272556D01*
X0196917Y0272556D01*
X0199117Y0270356D01*
X0202398Y0270356D01*
X0203354Y0269961D01*
X0208337Y0264977D01*
X0209069Y0264246D01*
X0209464Y0263290D01*
X0209464Y0259368D01*
X0210636Y0258196D01*
X0211368Y0257465D01*
X0211763Y0256509D01*
X0211763Y0238513D01*
X0213144Y0238493D01*
X0213412Y0238493D01*
X0213360Y0243852D01*
X0213355Y0243864D01*
X0213355Y0244369D01*
X0213350Y0244873D01*
X0213355Y0244886D01*
X0213355Y0252993D01*
X0213328Y0255781D01*
X0213248Y0255781D01*
X0212307Y0256722D01*
X0212307Y0262016D01*
X0213248Y0262957D01*
X0218542Y0262957D01*
X0219483Y0262016D01*
X0219483Y0257241D01*
X0223824Y0257241D01*
X0224765Y0256300D01*
X0224765Y0251006D01*
X0223824Y0250065D01*
X0222907Y0250065D01*
X0222907Y0239726D01*
X0223207Y0240026D01*
X0224971Y0240757D01*
X0232881Y0240757D01*
X0234645Y0240026D01*
X0235491Y0239180D01*
X0236460Y0240150D01*
X0238225Y0240881D01*
X0246134Y0240881D01*
X0247898Y0240150D01*
X0249249Y0238800D01*
X0249979Y0237035D01*
X0249979Y0235126D01*
X0249249Y0233362D01*
X0247898Y0232011D01*
X0246134Y0231281D01*
X0238225Y0231281D01*
X0236460Y0232011D01*
X0235615Y0232857D01*
X0234645Y0231887D01*
X0232881Y0231157D01*
X0224971Y0231157D01*
X0223207Y0231887D01*
X0222907Y0232187D01*
X0222907Y0229726D01*
X0223207Y0230026D01*
X0224971Y0230757D01*
X0232881Y0230757D01*
X0234645Y0230026D01*
X0235491Y0229180D01*
X0236460Y0230150D01*
X0238225Y0230881D01*
X0246134Y0230881D01*
X0247898Y0230150D01*
X0249249Y0228800D01*
X0249979Y0227035D01*
X0249979Y0225126D01*
X0249249Y0223362D01*
X0247898Y0222011D01*
X0246134Y0221281D01*
X0238225Y0221281D01*
X0236460Y0222011D01*
X0235615Y0222857D01*
X0234645Y0221887D01*
X0232881Y0221157D01*
X0224971Y0221157D01*
X0223207Y0221887D01*
X0222907Y0222187D01*
X0222907Y0219726D01*
X0223207Y0220026D01*
X0224971Y0220757D01*
X0232881Y0220757D01*
X0234645Y0220026D01*
X0235491Y0219180D01*
X0236460Y0220150D01*
X0238225Y0220881D01*
X0246134Y0220881D01*
X0247898Y0220150D01*
X0249249Y0218800D01*
X0249979Y0217035D01*
X0249979Y0215126D01*
X0249249Y0213362D01*
X0247898Y0212011D01*
X0246134Y0211281D01*
X0238225Y0211281D01*
X0236460Y0212011D01*
X0235615Y0212857D01*
X0234645Y0211887D01*
X0232881Y0211157D01*
X0224971Y0211157D01*
X0223207Y0211887D01*
X0222907Y0212187D01*
X0222907Y0209726D01*
X0223207Y0210026D01*
X0224971Y0210757D01*
X0232881Y0210757D01*
X0234645Y0210026D01*
X0235491Y0209180D01*
X0236460Y0210150D01*
X0238225Y0210881D01*
X0246134Y0210881D01*
X0247898Y0210150D01*
X0249249Y0208800D01*
X0249979Y0207035D01*
X0249979Y0205126D01*
X0249249Y0203362D01*
X0247898Y0202011D01*
X0246134Y0201281D01*
X0238225Y0201281D01*
X0236460Y0202011D01*
X0235615Y0202857D01*
X0234645Y0201887D01*
X0232881Y0201157D01*
X0224971Y0201157D01*
X0223207Y0201887D01*
X0222907Y0202187D01*
X0222907Y0199726D01*
X0223207Y0200026D01*
X0224971Y0200757D01*
X0232881Y0200757D01*
X0234645Y0200026D01*
X0235491Y0199180D01*
X0236460Y0200150D01*
X0238225Y0200881D01*
X0246134Y0200881D01*
X0247898Y0200150D01*
X0249249Y0198800D01*
X0249979Y0197035D01*
X0249979Y0195126D01*
X0249249Y0193362D01*
X0247898Y0192011D01*
X0246134Y0191281D01*
X0238225Y0191281D01*
X0236460Y0192011D01*
X0235615Y0192857D01*
X0234645Y0191887D01*
X0232881Y0191157D01*
X0224971Y0191157D01*
X0223207Y0191887D01*
X0221857Y0193238D01*
X0221760Y0193470D01*
X0219790Y0193470D01*
X0218834Y0193866D01*
X0218634Y0194066D01*
X0218634Y0188557D01*
X0221807Y0188557D01*
X0221857Y0188676D01*
X0223207Y0190026D01*
X0224971Y0190757D01*
X0232881Y0190757D01*
X0234645Y0190026D01*
X0235491Y0189180D01*
X0236460Y0190150D01*
X0238225Y0190881D01*
X0246134Y0190881D01*
X0247898Y0190150D01*
X0249249Y0188800D01*
X0249979Y0187035D01*
X0249979Y0185126D01*
X0249249Y0183362D01*
X0247898Y0182011D01*
X0246134Y0181281D01*
X0238225Y0181281D01*
X0236460Y0182011D01*
X0235615Y0182857D01*
X0234645Y0181887D01*
X0232881Y0181157D01*
X0224971Y0181157D01*
X0223207Y0181887D01*
X0221857Y0183238D01*
X0221807Y0183357D01*
X0215767Y0183357D01*
X0215773Y0176443D01*
X0215822Y0176443D01*
X0216764Y0175502D01*
X0216764Y0170208D01*
X0215822Y0169267D01*
X0210529Y0169267D01*
X0209587Y0170208D01*
X0209587Y0175502D01*
X0210529Y0176443D01*
X0210573Y0176443D01*
X0210570Y0179777D01*
X0210354Y0179112D01*
X0210025Y0178467D01*
X0209600Y0177881D01*
X0209088Y0177369D01*
X0208502Y0176944D01*
X0207857Y0176615D01*
X0207168Y0176391D01*
X0206453Y0176278D01*
X0206191Y0176278D01*
X0206191Y0180778D01*
X0205991Y0180778D01*
X0205991Y0176278D01*
X0205729Y0176278D01*
X0205014Y0176391D01*
X0204325Y0176615D01*
X0203680Y0176944D01*
X0203094Y0177369D01*
X0202582Y0177881D01*
X0202157Y0178467D01*
X0201828Y0179112D01*
X0201636Y0179704D01*
X0201653Y0172377D01*
X0202111Y0171919D01*
X0202111Y0165428D01*
X0201057Y0164373D01*
X0197065Y0164373D01*
X0196956Y0164482D01*
X0196548Y0164373D01*
X0195061Y0164373D01*
X0195061Y0166473D01*
X0195061Y0166473D01*
X0195061Y0164373D01*
X0193574Y0164373D01*
X0193116Y0164496D01*
X0192706Y0164733D01*
X0192371Y0165068D01*
X0192134Y0165478D01*
X0192011Y0165936D01*
X0192011Y0168673D01*
X0193361Y0168673D01*
X0193361Y0168673D01*
X0192011Y0168673D01*
X0192011Y0171410D01*
X0192134Y0171868D01*
X0192371Y0172278D01*
X0192706Y0172613D01*
X0193116Y0172850D01*
X0193574Y0172973D01*
X0195061Y0172973D01*
X0195061Y0170873D01*
X0195061Y0170873D01*
X0195061Y0172973D01*
X0196451Y0172973D01*
X0196432Y0181568D01*
X0196428Y0182079D01*
X0196430Y0182086D01*
X0196430Y0182094D01*
X0196624Y0182564D01*
X0196816Y0183038D01*
X0196821Y0183043D01*
X0196824Y0183050D01*
X0197184Y0183412D01*
X0198101Y0184342D01*
X0193406Y0184385D01*
X0183705Y0174830D01*
X0183533Y0172141D01*
X0183755Y0171919D01*
X0183755Y0165428D01*
X0182700Y0164373D01*
X0178709Y0164373D01*
X0178705Y0164378D01*
X0178700Y0164373D01*
X0174709Y0164373D01*
X0173655Y0165428D01*
X0173655Y0166073D01*
X0170690Y0166073D01*
X0170690Y0161840D01*
X0191444Y0161840D01*
X0191445Y0161841D01*
X0191450Y0161841D01*
X0191455Y0161843D01*
X0191538Y0161842D01*
X0191616Y0161869D01*
X0192046Y0161840D01*
X0192477Y0161840D01*
X0192478Y0161840D01*
X0201825Y0161833D01*
X0215430Y0161833D01*
X0215442Y0161837D01*
X0215947Y0161833D01*
X0216452Y0161833D01*
X0216464Y0161828D01*
X0216476Y0161828D01*
X0216942Y0161630D01*
X0217408Y0161437D01*
X0217417Y0161428D01*
X0217428Y0161423D01*
X0217783Y0161062D01*
X0218139Y0160705D01*
X0218144Y0160694D01*
X0218153Y0160685D01*
X0218342Y0160216D01*
X0218535Y0159750D01*
X0218535Y0159738D01*
X0218540Y0159726D01*
X0218535Y0159220D01*
X0218535Y0158715D01*
X0218530Y0158704D01*
X0218501Y0155474D01*
X0218501Y0155422D01*
X0218760Y0155163D01*
X0219156Y0154207D01*
X0219156Y0147709D01*
X0219406Y0147459D01*
X0219406Y0141368D01*
X0218352Y0140314D01*
X0214761Y0140314D01*
X0213706Y0141368D01*
X0213706Y0147459D01*
X0213956Y0147709D01*
X0213956Y0151344D01*
X0213301Y0151999D01*
X0213301Y0154982D01*
X0213296Y0154993D01*
X0213301Y0155499D01*
X0213301Y0156633D01*
X0212501Y0156633D01*
X0212501Y0151999D01*
X0211756Y0151255D01*
X0211756Y0147709D01*
X0212006Y0147459D01*
X0212006Y0141368D01*
X0210952Y0140314D01*
X0210314Y0140314D01*
X0209684Y0138742D01*
X0209684Y0121346D01*
X0209711Y0118990D01*
X0209764Y0118696D01*
X0209717Y0118478D01*
X0209719Y0118254D01*
X0209608Y0117977D01*
X0209545Y0117685D01*
X0209418Y0117501D01*
X0209335Y0117294D01*
X0209126Y0117080D01*
X0208574Y0116284D01*
X0208726Y0116132D01*
X0208726Y0112156D01*
X0205914Y0109344D01*
X0201938Y0109344D01*
X0201467Y0109815D01*
X0201467Y0108867D01*
X0201471Y0108867D01*
X0201479Y0108864D01*
X0217474Y0108830D01*
X0217465Y0110912D01*
X0215914Y0109361D01*
X0211938Y0109361D01*
X0209126Y0112172D01*
X0209126Y0116149D01*
X0211392Y0118415D01*
X0211392Y0125409D01*
X0211383Y0125413D01*
X0210652Y0126144D01*
X0210256Y0127100D01*
X0210256Y0132518D01*
X0210006Y0132768D01*
X0210006Y0138859D01*
X0211061Y0139914D01*
X0214652Y0139914D01*
X0215706Y0138859D01*
X0215706Y0132768D01*
X0215456Y0132518D01*
X0215456Y0131017D01*
X0215538Y0131017D01*
X0216592Y0129963D01*
X0216592Y0118282D01*
X0217437Y0117438D01*
X0217403Y0125261D01*
X0217392Y0125271D01*
X0217392Y0127611D01*
X0217390Y0128123D01*
X0217392Y0128128D01*
X0217392Y0129963D01*
X0218447Y0131017D01*
X0221538Y0131017D01*
X0222592Y0129963D01*
X0222592Y0127621D01*
X0222684Y0106744D01*
X0222687Y0106736D01*
X0222686Y0106227D01*
X0222688Y0105718D01*
X0222685Y0105710D01*
X0222685Y0105701D01*
X0222489Y0105232D01*
X0222296Y0104761D01*
X0222290Y0104755D01*
X0222287Y0104747D01*
X0221926Y0104387D01*
X0221568Y0104026D01*
X0221560Y0104023D01*
X0221554Y0104017D01*
X0221083Y0103823D01*
X0220614Y0103626D01*
X0220606Y0103626D01*
X0220597Y0103623D01*
X0220089Y0103624D01*
X0219580Y0103622D01*
X0219572Y0103625D01*
X0200967Y0103665D01*
X0199530Y0103660D01*
X0199525Y0103657D01*
X0199013Y0103657D01*
X0198501Y0103655D01*
X0198501Y0103655D01*
X0167455Y0103533D01*
X0167449Y0103530D01*
X0166938Y0103531D01*
X0166427Y0103528D01*
X0166421Y0103531D01*
X0158997Y0103538D01*
X0158483Y0103538D01*
X0158482Y0103538D01*
X0158481Y0103538D01*
X0158000Y0103738D01*
X0157527Y0103933D01*
X0157526Y0103934D01*
X0157525Y0103935D01*
X0157156Y0104304D01*
X0156796Y0104665D01*
X0156795Y0104666D01*
X0156795Y0104667D01*
X0156597Y0105145D01*
X0156400Y0105620D01*
X0156400Y0105622D01*
X0156400Y0105623D01*
X0156400Y0106140D01*
X0156400Y0109635D01*
X0155914Y0109149D01*
X0151938Y0109149D01*
X0149126Y0111960D01*
X0149126Y0115937D01*
X0151938Y0118749D01*
X0155914Y0118749D01*
X0156398Y0118264D01*
X0156386Y0124712D01*
X0145503Y0124665D01*
X0145503Y0123064D01*
X0145542Y0122932D01*
X0145503Y0122551D01*
X0145503Y0122168D01*
X0145450Y0122040D01*
X0145436Y0121903D01*
X0145254Y0121566D01*
X0145107Y0121213D01*
X0145009Y0121115D01*
X0144944Y0120993D01*
X0144646Y0120752D01*
X0144376Y0120481D01*
X0144248Y0120428D01*
X0142180Y0118749D01*
X0145914Y0118749D01*
X0148726Y0115937D01*
X0148726Y0111960D01*
X0145914Y0109149D01*
X0141938Y0109149D01*
X0141614Y0109472D01*
X0141614Y0108054D01*
X0141620Y0108039D01*
X0141614Y0107538D01*
X0141614Y0107037D01*
X0141608Y0107021D01*
X0141607Y0106991D01*
X0141608Y0106490D01*
X0141601Y0106474D01*
X0141601Y0106457D01*
X0141404Y0105997D01*
X0141212Y0105534D01*
X0141200Y0105522D01*
X0141193Y0105506D01*
X0140835Y0105157D01*
X0140481Y0104802D01*
X0140465Y0104796D01*
X0140453Y0104784D01*
X0139988Y0104598D01*
X0139526Y0104406D01*
X0139509Y0104406D01*
X0139493Y0104400D01*
X0138992Y0104406D01*
X0122445Y0104398D01*
X0121457Y0104398D01*
X0121410Y0104398D01*
X0121410Y0104398D01*
X0121026Y0104556D01*
X0120454Y0104793D01*
X0119723Y0105524D01*
X0119326Y0106479D01*
X0119326Y0107514D01*
X0119317Y0126541D01*
X0106077Y0126608D01*
X0106034Y0126505D01*
X0104684Y0125155D01*
X0102920Y0124424D01*
X0095010Y0124424D01*
X0093246Y0125155D01*
X0092568Y0125834D01*
X0091889Y0125155D01*
X0090125Y0124424D01*
X0082215Y0124424D01*
X0081216Y0124838D01*
X0081216Y0123616D01*
X0081327Y0123673D01*
X0082046Y0123906D01*
X0082792Y0124024D01*
X0085970Y0124024D01*
X0085970Y0119424D01*
X0086370Y0119424D01*
X0093970Y0119424D01*
X0098765Y0119424D01*
X0098765Y0119024D01*
X0099165Y0119024D01*
X0099165Y0114424D01*
X0102343Y0114424D01*
X0103089Y0114542D01*
X0103808Y0114776D01*
X0104481Y0115119D01*
X0105092Y0115563D01*
X0105626Y0116097D01*
X0106070Y0116709D01*
X0106413Y0117382D01*
X0106647Y0118100D01*
X0106765Y0118847D01*
X0106765Y0119024D01*
X0099165Y0119024D01*
X0099165Y0119424D01*
X0106765Y0119424D01*
X0106765Y0119602D01*
X0106647Y0120348D01*
X0106413Y0121067D01*
X0106070Y0121740D01*
X0105626Y0122351D01*
X0105092Y0122886D01*
X0104481Y0123330D01*
X0103808Y0123673D01*
X0103089Y0123906D01*
X0102343Y0124024D01*
X0099165Y0124024D01*
X0099165Y0119424D01*
X0098765Y0119424D01*
X0098765Y0124024D01*
X0095587Y0124024D01*
X0094841Y0123906D01*
X0094123Y0123673D01*
X0093449Y0123330D01*
X0092838Y0122886D01*
X0092568Y0122615D01*
X0092297Y0122886D01*
X0091686Y0123330D01*
X0091012Y0123673D01*
X0090294Y0123906D01*
X0089548Y0124024D01*
X0086370Y0124024D01*
X0086370Y0119424D01*
X0086370Y0119024D01*
X0086370Y0114424D01*
X0089548Y0114424D01*
X0090294Y0114542D01*
X0091012Y0114776D01*
X0091686Y0115119D01*
X0092297Y0115563D01*
X0092568Y0115834D01*
X0092838Y0115563D01*
X0093449Y0115119D01*
X0094123Y0114776D01*
X0094841Y0114542D01*
X0095587Y0114424D01*
X0098765Y0114424D01*
X0098765Y0119024D01*
X0086370Y0119024D01*
X0085970Y0119024D01*
X0085970Y0114424D01*
X0082792Y0114424D01*
X0082046Y0114542D01*
X0081327Y0114776D01*
X0081216Y0114833D01*
X0081216Y0113616D01*
X0081327Y0113673D01*
X0082046Y0113906D01*
X0082792Y0114024D01*
X0085970Y0114024D01*
X0085970Y0109424D01*
X0086370Y0109424D01*
X0093970Y0109424D01*
X0098765Y0109424D01*
X0098765Y0109024D01*
X0099165Y0109024D01*
X0099165Y0104424D01*
X0102343Y0104424D01*
X0103089Y0104542D01*
X0103808Y0104776D01*
X0104481Y0105119D01*
X0105092Y0105563D01*
X0105626Y0106097D01*
X0106070Y0106709D01*
X0106413Y0107382D01*
X0106647Y0108100D01*
X0106765Y0108847D01*
X0106765Y0109024D01*
X0099165Y0109024D01*
X0099165Y0109424D01*
X0106765Y0109424D01*
X0106765Y0109602D01*
X0106647Y0110348D01*
X0106413Y0111067D01*
X0106070Y0111740D01*
X0105626Y0112351D01*
X0105092Y0112886D01*
X0104481Y0113330D01*
X0103808Y0113673D01*
X0103089Y0113906D01*
X0102343Y0114024D01*
X0099165Y0114024D01*
X0099165Y0109424D01*
X0098765Y0109424D01*
X0098765Y0114024D01*
X0095587Y0114024D01*
X0094841Y0113906D01*
X0094123Y0113673D01*
X0093449Y0113330D01*
X0092838Y0112886D01*
X0092568Y0112615D01*
X0092297Y0112886D01*
X0091686Y0113330D01*
X0091012Y0113673D01*
X0090294Y0113906D01*
X0089548Y0114024D01*
X0086370Y0114024D01*
X0086370Y0109424D01*
X0086370Y0109024D01*
X0086370Y0104424D01*
X0089548Y0104424D01*
X0090294Y0104542D01*
X0091012Y0104776D01*
X0091686Y0105119D01*
X0092297Y0105563D01*
X0092568Y0105834D01*
X0092838Y0105563D01*
X0093449Y0105119D01*
X0094123Y0104776D01*
X0094841Y0104542D01*
X0095587Y0104424D01*
X0098765Y0104424D01*
X0098765Y0109024D01*
X0086370Y0109024D01*
X0085970Y0109024D01*
X0085970Y0104424D01*
X0082792Y0104424D01*
X0082046Y0104542D01*
X0081327Y0104776D01*
X0081216Y0104833D01*
X0081216Y0103610D01*
X0082215Y0104024D01*
X0090125Y0104024D01*
X0091889Y0103294D01*
X0092568Y0102615D01*
X0093246Y0103294D01*
X0095010Y0104024D01*
X0102920Y0104024D01*
X0104684Y0103294D01*
X0106034Y0101943D01*
X0106765Y0100179D01*
X0106765Y0098270D01*
X0106034Y0096505D01*
X0104684Y0095155D01*
X0102920Y0094424D01*
X0095010Y0094424D01*
X0093246Y0095155D01*
X0092568Y0095834D01*
X0091889Y0095155D01*
X0090125Y0094424D01*
X0082215Y0094424D01*
X0081216Y0094838D01*
X0081216Y0083610D01*
X0082215Y0084024D01*
X0090125Y0084024D01*
X0091889Y0083294D01*
X0092568Y0082615D01*
X0093246Y0083294D01*
X0095010Y0084024D01*
X0102920Y0084024D01*
X0104684Y0083294D01*
X0106034Y0081943D01*
X0106765Y0080179D01*
X0106765Y0078270D01*
X0106034Y0076505D01*
X0104684Y0075155D01*
X0102920Y0074424D01*
X0095010Y0074424D01*
X0093246Y0075155D01*
X0092568Y0075834D01*
X0091889Y0075155D01*
X0090125Y0074424D01*
X0082215Y0074424D01*
X0081216Y0074838D01*
X0081216Y0073610D01*
X0082215Y0074024D01*
X0090125Y0074024D01*
X0091889Y0073294D01*
X0092568Y0072615D01*
X0093246Y0073294D01*
X0095010Y0074024D01*
X0102920Y0074024D01*
X0104684Y0073294D01*
X0106034Y0071943D01*
X0106765Y0070179D01*
X0106765Y0068270D01*
X0106034Y0066505D01*
X0104684Y0065155D01*
X0102920Y0064424D01*
X0095010Y0064424D01*
X0093246Y0065155D01*
X0092568Y0065834D01*
X0091889Y0065155D01*
X0090125Y0064424D01*
X0082215Y0064424D01*
X0081216Y0064838D01*
X0081216Y0063610D01*
X0082215Y0064024D01*
X0090125Y0064024D01*
X0091889Y0063294D01*
X0092568Y0062615D01*
X0093246Y0063294D01*
X0095010Y0064024D01*
X0102920Y0064024D01*
X0104684Y0063294D01*
X0106034Y0061943D01*
X0106765Y0060179D01*
X0106765Y0058270D01*
X0106034Y0056505D01*
X0104684Y0055155D01*
X0102920Y0054424D01*
X0095010Y0054424D01*
X0093246Y0055155D01*
X0092568Y0055834D01*
X0091889Y0055155D01*
X0090125Y0054424D01*
X0082215Y0054424D01*
X0081216Y0054838D01*
X0081216Y0053610D01*
X0082215Y0054024D01*
X0090125Y0054024D01*
X0091889Y0053294D01*
X0092568Y0052615D01*
X0093246Y0053294D01*
X0095010Y0054024D01*
X0102920Y0054024D01*
X0104684Y0053294D01*
X0106034Y0051943D01*
X0106765Y0050179D01*
X0106765Y0048270D01*
X0106034Y0046505D01*
X0104684Y0045155D01*
X0102920Y0044424D01*
X0095010Y0044424D01*
X0093246Y0045155D01*
X0092568Y0045834D01*
X0091889Y0045155D01*
X0090125Y0044424D01*
X0082215Y0044424D01*
X0081216Y0044838D01*
X0081216Y0043610D01*
X0082215Y0044024D01*
X0090125Y0044024D01*
X0091889Y0043294D01*
X0092568Y0042615D01*
X0093246Y0043294D01*
X0095010Y0044024D01*
X0102920Y0044024D01*
X0104684Y0043294D01*
X0106034Y0041943D01*
X0106765Y0040179D01*
X0106765Y0038270D01*
X0106034Y0036505D01*
X0104684Y0035155D01*
X0102920Y0034424D01*
X0095010Y0034424D01*
X0093246Y0035155D01*
X0092568Y0035834D01*
X0091889Y0035155D01*
X0090125Y0034424D01*
X0082215Y0034424D01*
X0081216Y0034838D01*
X0081216Y0033610D01*
X0082215Y0034024D01*
X0090125Y0034024D01*
X0091889Y0033294D01*
X0092568Y0032615D01*
X0093246Y0033294D01*
X0095010Y0034024D01*
X0102920Y0034024D01*
X0104684Y0033294D01*
X0106034Y0031943D01*
X0106765Y0030179D01*
X0106765Y0029500D01*
X0107524Y0029500D01*
X0110147Y0028797D01*
X0112498Y0027440D01*
X0114418Y0025520D01*
X0115775Y0023168D01*
X0116478Y0020546D01*
X0116478Y0017831D01*
X0115775Y0015208D01*
X0115284Y0014357D01*
X0172922Y0014357D01*
X0170709Y0016570D01*
X0170709Y0021126D01*
X0173431Y0023848D01*
X0170709Y0026570D01*
X0170709Y0031126D01*
X0173931Y0034348D01*
X0178487Y0034348D01*
X0181209Y0031626D01*
X0183931Y0034348D01*
X0188487Y0034348D01*
X0191209Y0031626D01*
X0193931Y0034348D01*
X0198487Y0034348D01*
X0201709Y0031126D01*
X0201709Y0026570D01*
X0198987Y0023848D01*
X0201709Y0021126D01*
X0201709Y0016570D01*
X0199497Y0014357D01*
X0207108Y0014357D01*
X0206579Y0015272D01*
X0205877Y0017894D01*
X0205877Y0020610D01*
X0206579Y0023232D01*
X0207937Y0025584D01*
X0209857Y0027504D01*
X0212208Y0028861D01*
X0213749Y0029274D01*
X0206813Y0029274D01*
X0205858Y0029670D01*
X0205846Y0029681D01*
X0205126Y0030401D01*
X0204850Y0031069D01*
X0204730Y0031357D01*
X0204730Y0050112D01*
X0204729Y0050115D01*
X0204730Y0050630D01*
X0204730Y0051143D01*
X0204732Y0051146D01*
X0204740Y0054280D01*
X0202160Y0051700D01*
X0198382Y0051700D01*
X0195711Y0054371D01*
X0195711Y0058149D01*
X0198382Y0060820D01*
X0202160Y0060820D01*
X0204831Y0058149D01*
X0204831Y0056117D01*
X0204941Y0056381D01*
X0205137Y0056855D01*
X0205140Y0056858D01*
X0205142Y0056863D01*
X0205506Y0057225D01*
X0205867Y0057587D01*
X0205872Y0057589D01*
X0205876Y0057592D01*
X0206351Y0057788D01*
X0206823Y0057984D01*
X0206827Y0057984D01*
X0206832Y0057986D01*
X0207344Y0057984D01*
X0214029Y0057992D01*
X0214029Y0058043D01*
X0214971Y0058984D01*
X0220264Y0058984D01*
X0221070Y0058179D01*
X0221656Y0058764D01*
X0225451Y0058764D01*
X0225451Y0066496D01*
X0226067Y0067113D01*
X0214253Y0067113D01*
X0214274Y0065724D01*
X0214375Y0065724D01*
X0215316Y0064782D01*
X0215316Y0059489D01*
X0214375Y0058547D01*
X0209081Y0058547D01*
X0208140Y0059489D01*
X0208140Y0064782D01*
X0209073Y0065716D01*
X0209021Y0069177D01*
X0209013Y0069196D01*
X0209013Y0069693D01*
X0209006Y0070191D01*
X0209013Y0070210D01*
X0209013Y0070230D01*
X0209204Y0070690D01*
X0209387Y0071152D01*
X0209401Y0071167D01*
X0209409Y0071186D01*
X0209761Y0071537D01*
X0209897Y0071677D01*
X0208423Y0071677D01*
X0205751Y0074348D01*
X0205751Y0078126D01*
X0208423Y0080797D01*
X0212200Y0080797D01*
X0214871Y0078126D01*
X0214871Y0074348D01*
X0212835Y0072313D01*
X0217776Y0072313D01*
X0215773Y0074316D01*
X0215773Y0078093D01*
X0218444Y0080764D01*
X0222222Y0080764D01*
X0224893Y0078093D01*
X0224893Y0074316D01*
X0222890Y0072313D01*
X0227798Y0072313D01*
X0225779Y0074332D01*
X0225779Y0078110D01*
X0228450Y0080781D01*
X0232227Y0080781D01*
X0234898Y0078110D01*
X0234898Y0074332D01*
X0232879Y0072313D01*
X0247914Y0072313D01*
X0247778Y0072647D01*
X0247584Y0073098D01*
X0247583Y0073125D01*
X0247573Y0073149D01*
X0247576Y0073641D01*
X0247569Y0074133D01*
X0247579Y0074157D01*
X0247899Y0131379D01*
X0246315Y0132963D01*
X0236871Y0133006D01*
X0226894Y0133000D01*
X0226894Y0132951D01*
X0225953Y0132009D01*
X0220659Y0132009D01*
X0219718Y0132951D01*
X0219718Y0138244D01*
X0220659Y0139186D01*
X0225953Y0139186D01*
X0226894Y0138244D01*
X0226894Y0138200D01*
X0236362Y0138206D01*
X0236369Y0138209D01*
X0236879Y0138206D01*
X0237389Y0138207D01*
X0237396Y0138204D01*
X0246353Y0138163D01*
X0248534Y0140344D01*
X0252511Y0140344D01*
X0255322Y0137532D01*
X0255322Y0136805D01*
X0255969Y0138367D01*
X0257320Y0139717D01*
X0259084Y0140448D01*
X0266993Y0140448D01*
X0268758Y0139717D01*
X0269814Y0138661D01*
X0270536Y0139383D01*
X0272300Y0140114D01*
X0280209Y0140114D01*
X0281022Y0139777D01*
X0281022Y0140850D01*
X0280209Y0140514D01*
X0272300Y0140514D01*
X0270536Y0141245D01*
X0269479Y0142301D01*
X0268758Y0141579D01*
X0266993Y0140848D01*
X0259084Y0140848D01*
X0257320Y0141579D01*
X0255969Y0142929D01*
X0255239Y0144693D01*
X0255239Y0146603D01*
X0255969Y0148367D01*
X0257320Y0149717D01*
X0259084Y0150448D01*
X0266993Y0150448D01*
X0268758Y0149717D01*
X0269814Y0148661D01*
X0270536Y0149383D01*
X0272300Y0150114D01*
X0280209Y0150114D01*
X0281022Y0149777D01*
X0281022Y0150850D01*
X0280209Y0150514D01*
X0272300Y0150514D01*
X0270536Y0151245D01*
X0269479Y0152301D01*
X0268758Y0151579D01*
X0266993Y0150848D01*
X0259084Y0150848D01*
X0257320Y0151579D01*
X0255969Y0152929D01*
X0255239Y0154693D01*
X0255239Y0156603D01*
X0255969Y0158367D01*
X0257320Y0159717D01*
X0259084Y0160448D01*
X0266993Y0160448D01*
X0268758Y0159717D01*
X0269814Y0158661D01*
X0270536Y0159383D01*
X0272300Y0160114D01*
X0280209Y0160114D01*
X0281022Y0159777D01*
X0281022Y0160850D01*
X0280209Y0160514D01*
X0272300Y0160514D01*
X0270536Y0161245D01*
X0269479Y0162301D01*
X0268758Y0161579D01*
X0266993Y0160848D01*
X0259084Y0160848D01*
X0257320Y0161579D01*
X0255969Y0162929D01*
X0255239Y0164693D01*
X0255239Y0166603D01*
X0255969Y0168367D01*
X0257320Y0169717D01*
X0259084Y0170448D01*
X0266993Y0170448D01*
X0268758Y0169717D01*
X0269814Y0168661D01*
X0270536Y0169383D01*
X0272300Y0170114D01*
X0280209Y0170114D01*
X0281022Y0169777D01*
X0281022Y0170841D01*
X0280379Y0170632D01*
X0279632Y0170514D01*
X0276455Y0170514D01*
X0276455Y0175114D01*
X0276055Y0175114D01*
X0276055Y0170514D01*
X0272877Y0170514D01*
X0272131Y0170632D01*
X0271412Y0170865D01*
X0270739Y0171208D01*
X0270128Y0171653D01*
X0269593Y0172187D01*
X0269498Y0172319D01*
X0269166Y0171987D01*
X0268554Y0171543D01*
X0267881Y0171200D01*
X0267163Y0170966D01*
X0266416Y0170848D01*
X0263239Y0170848D01*
X0263239Y0175448D01*
X0263239Y0175848D01*
X0268479Y0175848D01*
X0268455Y0175692D01*
X0268455Y0175514D01*
X0276055Y0175514D01*
X0276055Y0180114D01*
X0272877Y0180114D01*
X0272131Y0179996D01*
X0271412Y0179762D01*
X0270739Y0179419D01*
X0270128Y0178975D01*
X0269796Y0178643D01*
X0269700Y0178775D01*
X0269166Y0179309D01*
X0268554Y0179753D01*
X0267881Y0180096D01*
X0267163Y0180330D01*
X0266416Y0180448D01*
X0263239Y0180448D01*
X0263239Y0175848D01*
X0262839Y0175848D01*
X0262839Y0180448D01*
X0259661Y0180448D01*
X0258915Y0180330D01*
X0258196Y0180096D01*
X0257523Y0179753D01*
X0256912Y0179309D01*
X0256377Y0178775D01*
X0255933Y0178164D01*
X0255590Y0177491D01*
X0255357Y0176772D01*
X0255239Y0176026D01*
X0255239Y0175848D01*
X0262839Y0175848D01*
X0262839Y0175448D01*
X0263239Y0175448D01*
X0270839Y0175448D01*
X0270839Y0175270D01*
X0270814Y0175114D01*
X0276055Y0175114D01*
X0276055Y0175514D01*
X0276455Y0175514D01*
X0276455Y0180114D01*
X0279632Y0180114D01*
X0280379Y0179996D01*
X0281022Y0179787D01*
X0281022Y0180850D01*
X0280209Y0180514D01*
X0272300Y0180514D01*
X0270536Y0181245D01*
X0269479Y0182301D01*
X0268758Y0181579D01*
X0266993Y0180848D01*
X0259084Y0180848D01*
X0257320Y0181579D01*
X0255969Y0182929D01*
X0255239Y0184693D01*
X0255239Y0186603D01*
X0255969Y0188367D01*
X0257320Y0189717D01*
X0259084Y0190448D01*
X0266993Y0190448D01*
X0268758Y0189717D01*
X0269814Y0188661D01*
X0270536Y0189383D01*
X0272300Y0190114D01*
X0280209Y0190114D01*
X0281022Y0189777D01*
X0281022Y0190850D01*
X0280209Y0190514D01*
X0272300Y0190514D01*
X0270536Y0191245D01*
X0269479Y0192301D01*
X0268758Y0191579D01*
X0266993Y0190848D01*
X0259084Y0190848D01*
X0257320Y0191579D01*
X0255969Y0192929D01*
X0255239Y0194693D01*
X0255239Y0196603D01*
X0255969Y0198367D01*
X0257320Y0199717D01*
X0259084Y0200448D01*
X0266993Y0200448D01*
X0268758Y0199717D01*
X0269814Y0198661D01*
X0270536Y0199383D01*
X0272300Y0200114D01*
X0280209Y0200114D01*
X0281022Y0199777D01*
X0281022Y0200850D01*
X0280209Y0200514D01*
X0272300Y0200514D01*
X0270536Y0201245D01*
X0269479Y0202301D01*
X0268758Y0201579D01*
X0266993Y0200848D01*
X0259084Y0200848D01*
X0257320Y0201579D01*
X0255969Y0202929D01*
X0255239Y0204693D01*
X0255239Y0206603D01*
X0255969Y0208367D01*
X0257320Y0209717D01*
X0259084Y0210448D01*
X0266993Y0210448D01*
X0268758Y0209717D01*
X0269814Y0208661D01*
X0270536Y0209383D01*
X0271731Y0209878D01*
X0269845Y0210967D01*
X0267925Y0212887D01*
X0266568Y0215238D01*
X0265865Y0217861D01*
X0265865Y0220576D01*
X0266568Y0223198D01*
X0267925Y0225550D01*
X0269845Y0227470D01*
X0272197Y0228827D01*
X0274819Y0229530D01*
X0277535Y0229530D01*
X0280157Y0228827D01*
X0281022Y0228328D01*
X0281022Y0274259D01*
X0281000Y0274268D01*
X0279250Y0274268D01*
X0279638Y0274044D01*
X0279973Y0273709D01*
X0280210Y0273298D01*
X0280332Y0272840D01*
X0280332Y0270032D01*
X0276355Y0270032D01*
X0276355Y0268876D01*
X0280332Y0268876D01*
X0280332Y0266067D01*
X0280210Y0265610D01*
X0279973Y0265199D01*
X0279638Y0264864D01*
X0279227Y0264627D01*
X0278769Y0264504D01*
X0276354Y0264504D01*
X0276354Y0268876D01*
X0275199Y0268876D01*
X0275199Y0264504D01*
X0272784Y0264504D01*
X0272326Y0264627D01*
X0271915Y0264864D01*
X0271580Y0265199D01*
X0271343Y0265610D01*
X0271221Y0266067D01*
X0271221Y0268876D01*
X0275198Y0268876D01*
X0275198Y0270032D01*
X0271221Y0270032D01*
X0271221Y0272840D01*
X0271343Y0273298D01*
X0271580Y0273709D01*
X0271915Y0274044D01*
X0272303Y0274268D01*
X0262091Y0274268D01*
X0263010Y0273349D01*
X0263010Y0265559D01*
X0261955Y0264504D01*
X0261047Y0264504D01*
X0261039Y0259097D01*
X0261081Y0259097D01*
X0262023Y0258155D01*
X0262023Y0252862D01*
X0261081Y0251920D01*
X0261038Y0251920D01*
X0261048Y0242907D01*
X0261955Y0242907D01*
X0263010Y0241853D01*
X0263010Y0234063D01*
X0261955Y0233008D01*
X0254952Y0233008D01*
X0253898Y0234063D01*
X0253898Y0241853D01*
X0254952Y0242907D01*
X0255848Y0242907D01*
X0255839Y0251920D01*
X0255788Y0251920D01*
X0254846Y0252862D01*
X0254846Y0258155D01*
X0255788Y0259097D01*
X0255840Y0259097D01*
X0255847Y0264504D01*
X0254952Y0264504D01*
X0253898Y0265559D01*
X0253898Y0273349D01*
X0254816Y0274268D01*
X0128496Y0274268D01*
X0129177Y0273587D01*
X0129177Y0273409D01*
X0129517Y0273406D01*
X0143599Y0273406D01*
X0144555Y0273010D01*
X0145286Y0272279D01*
X0145682Y0271323D01*
X0145682Y0269938D01*
X0152227Y0269938D01*
X0152406Y0270117D01*
X0153362Y0270513D01*
X0160896Y0270513D01*
X0162940Y0272556D01*
X0166917Y0272556D01*
X0169728Y0269745D01*
X0169728Y0265768D01*
X0166917Y0262956D01*
X0162940Y0262956D01*
X0160584Y0265313D01*
X0155904Y0265313D01*
X0155904Y0259942D01*
X0177119Y0238728D01*
X0177514Y0237772D01*
X0177514Y0235374D01*
X0177561Y0235374D01*
X0178503Y0234433D01*
X0178503Y0229140D01*
X0177561Y0228198D01*
X0172268Y0228198D01*
X0171326Y0229140D01*
X0171326Y0234433D01*
X0172268Y0235374D01*
X0172314Y0235374D01*
X0172314Y0236178D01*
X0151832Y0256661D01*
X0151100Y0257392D01*
X0150704Y0258348D01*
X0150704Y0264738D01*
X0142565Y0264738D01*
X0141609Y0265134D01*
X0140878Y0265865D01*
X0140482Y0266821D01*
X0140482Y0268206D01*
X0130012Y0268206D01*
X0130001Y0268202D01*
X0129495Y0268206D01*
X0129177Y0268206D01*
X0129177Y0268095D01*
X0128123Y0267041D01*
X0127987Y0267041D01*
X0128072Y0267018D01*
X0128482Y0266781D01*
X0128818Y0266446D01*
X0129055Y0266036D01*
X0129177Y0265578D01*
X0129177Y0263541D01*
X0125577Y0263541D01*
X0125577Y0263141D01*
X0125577Y0259541D01*
X0125741Y0259541D01*
X0125741Y0257969D01*
X0129341Y0257969D01*
X0129341Y0260006D01*
X0129219Y0260464D01*
X0129073Y0260716D01*
X0129177Y0261104D01*
X0129177Y0263141D01*
X0125577Y0263141D01*
X0125177Y0263141D01*
X0121577Y0263141D01*
X0121577Y0261104D01*
X0121700Y0260646D01*
X0121845Y0260394D01*
X0121741Y0260006D01*
X0121741Y0257969D01*
X0125341Y0257969D01*
X0125341Y0257569D01*
X0121741Y0257569D01*
X0121741Y0255532D01*
X0121864Y0255075D01*
X0122101Y0254664D01*
X0122436Y0254329D01*
X0122846Y0254092D01*
X0122931Y0254069D01*
X0122796Y0254069D01*
X0121741Y0253015D01*
X0121741Y0252865D01*
X0121496Y0252865D01*
X0121046Y0252888D01*
X0120981Y0252865D01*
X0115788Y0252865D01*
X0115116Y0253538D01*
X0107224Y0253538D01*
X0106170Y0252483D01*
X0106170Y0247492D01*
X0107224Y0246438D01*
X0108715Y0246438D01*
X0108184Y0245907D01*
X0096106Y0245907D01*
X0095151Y0245511D01*
X0094419Y0244779D01*
X0094024Y0243824D01*
X0094024Y0230948D01*
X0092498Y0232473D01*
X0090147Y0233830D01*
X0087524Y0234533D01*
X0084809Y0234533D01*
X0082187Y0233830D01*
X0081216Y0233270D01*
X0081216Y0251929D01*
X0081330Y0251732D01*
X0081665Y0251397D01*
X0082075Y0251160D01*
X0082533Y0251038D01*
X0085170Y0251038D01*
X0085170Y0258288D01*
X0086770Y0258288D01*
X0086770Y0259888D01*
X0085170Y0259888D01*
X0085170Y0267138D01*
X0082533Y0267138D01*
X0082075Y0267015D01*
X0081665Y0266778D01*
X0081330Y0266443D01*
X0081216Y0266246D01*
X0081216Y0274258D01*
X0081377Y0274258D01*
X0081401Y0274268D01*
X0122258Y0274268D01*
X0121577Y0273587D01*
X0121577Y0273441D01*
X0113306Y0273441D01*
X0112350Y0273045D01*
X0111619Y0272314D01*
X0111043Y0271738D01*
X0107224Y0271738D01*
X0106170Y0270683D01*
X0106170Y0265692D01*
X0107224Y0264638D01*
X0115116Y0264638D01*
X0116170Y0265692D01*
X0116170Y0268241D01*
X0121577Y0268241D01*
X0121577Y0268095D01*
X0122632Y0267041D01*
X0122767Y0267041D01*
X0122682Y0267018D01*
X0122272Y0266781D01*
X0121937Y0266446D01*
X0121700Y0266036D01*
X0121577Y0265578D01*
X0121577Y0263541D01*
X0125177Y0263541D01*
X0125177Y0263141D01*
X0125177Y0261569D01*
X0125341Y0261569D01*
X0125341Y0257969D01*
X0125741Y0257969D01*
X0125741Y0257569D01*
X0129341Y0257569D01*
X0129341Y0255532D01*
X0129219Y0255075D01*
X0128982Y0254664D01*
X0128646Y0254329D01*
X0128236Y0254092D01*
X0128151Y0254069D01*
X0128287Y0254069D01*
X0129341Y0253015D01*
X0129341Y0252859D01*
X0129542Y0252858D01*
X0141644Y0252858D01*
X0142599Y0252462D01*
X0143330Y0251731D01*
X0143726Y0250775D01*
X0143726Y0246298D01*
X0160222Y0246298D01*
X0161178Y0245902D01*
X0161909Y0245171D01*
X0162305Y0244215D01*
X0162305Y0234513D01*
X0166147Y0229877D01*
X0166194Y0229850D01*
X0166476Y0229481D01*
X0166772Y0229123D01*
X0166788Y0229071D01*
X0170673Y0223973D01*
X0171541Y0223973D01*
X0172341Y0223173D01*
X0187437Y0223173D01*
X0188310Y0224046D01*
X0191402Y0224046D01*
X0192456Y0222992D01*
X0192456Y0218301D01*
X0191402Y0217246D01*
X0188310Y0217246D01*
X0187584Y0217973D01*
X0172341Y0217973D01*
X0171813Y0217445D01*
X0176583Y0217445D01*
X0177525Y0216503D01*
X0177525Y0211210D01*
X0176583Y0210268D01*
X0174025Y0210268D01*
X0173332Y0209575D01*
X0172376Y0209179D01*
X0169915Y0209179D01*
X0169915Y0208881D01*
X0169963Y0208899D01*
X0170387Y0209075D01*
X0170447Y0209075D01*
X0170504Y0209096D01*
X0170962Y0209076D01*
X0178594Y0209088D01*
X0178594Y0209140D01*
X0179535Y0210081D01*
X0184829Y0210081D01*
X0185770Y0209140D01*
X0185770Y0203953D01*
X0186543Y0203953D01*
X0186543Y0206261D01*
X0187598Y0207316D01*
X0191189Y0207316D01*
X0192243Y0206261D01*
X0192243Y0200170D01*
X0191189Y0199116D01*
X0190787Y0199116D01*
X0189911Y0198753D01*
X0188362Y0198753D01*
X0188454Y0198660D01*
X0188454Y0198613D01*
X0194117Y0198613D01*
X0194117Y0199997D01*
X0193943Y0200170D01*
X0193943Y0206261D01*
X0194998Y0207316D01*
X0198589Y0207316D01*
X0199643Y0206261D01*
X0199643Y0200170D01*
X0199317Y0199843D01*
X0199317Y0192116D01*
X0199317Y0193053D02*
X0200041Y0193053D01*
X0199317Y0194652D02*
X0201278Y0194652D01*
X0201491Y0196250D02*
X0199317Y0196250D01*
X0199317Y0197849D02*
X0201619Y0197849D01*
X0202407Y0199447D02*
X0199317Y0199447D01*
X0199643Y0201046D02*
X0203040Y0201046D01*
X0201881Y0202644D02*
X0199643Y0202644D01*
X0199643Y0204243D02*
X0201491Y0204243D01*
X0201668Y0205841D02*
X0199643Y0205841D01*
X0202526Y0207440D02*
X0185770Y0207440D01*
X0185770Y0209038D02*
X0190243Y0209038D01*
X0190243Y0210637D02*
X0176952Y0210637D01*
X0177525Y0212235D02*
X0190243Y0212235D01*
X0190243Y0213834D02*
X0177525Y0213834D01*
X0177525Y0215432D02*
X0190815Y0215432D01*
X0193256Y0217031D02*
X0176997Y0217031D01*
X0173936Y0213856D02*
X0171859Y0211779D01*
X0167065Y0211779D01*
X0163996Y0214848D01*
X0163996Y0220573D01*
X0169996Y0220573D02*
X0164440Y0227862D01*
X0159705Y0233575D01*
X0159705Y0243698D01*
X0141126Y0243698D01*
X0141126Y0250258D01*
X0129539Y0250258D01*
X0125541Y0250269D01*
X0122324Y0250220D01*
X0121430Y0250265D01*
X0111170Y0250265D01*
X0111170Y0249988D01*
X0113556Y0247602D01*
X0109261Y0243307D01*
X0096624Y0243307D01*
X0096624Y0157789D01*
X0124416Y0157789D01*
X0124416Y0129224D01*
X0098965Y0129224D01*
X0098985Y0129245D01*
X0121916Y0129128D01*
X0121926Y0106998D01*
X0139007Y0107006D01*
X0139014Y0107554D01*
X0139014Y0119527D01*
X0142903Y0122685D01*
X0142903Y0127335D01*
X0143124Y0127255D01*
X0161559Y0127335D01*
X0158994Y0127412D01*
X0158983Y0126516D01*
X0159000Y0117327D01*
X0159000Y0106138D01*
X0166934Y0106131D01*
X0199008Y0106257D01*
X0198867Y0106257D01*
X0198867Y0127335D01*
X0193943Y0124666D02*
X0193926Y0114151D01*
X0199008Y0106257D02*
X0200965Y0106265D01*
X0220086Y0106224D01*
X0219992Y0127617D01*
X0217392Y0127514D02*
X0216592Y0127514D01*
X0216592Y0125916D02*
X0217392Y0125916D01*
X0217407Y0124317D02*
X0216592Y0124317D01*
X0216592Y0122719D02*
X0217414Y0122719D01*
X0217421Y0121120D02*
X0216592Y0121120D01*
X0216592Y0119522D02*
X0217428Y0119522D01*
X0217435Y0117923D02*
X0216952Y0117923D01*
X0213992Y0114161D02*
X0213926Y0114161D01*
X0213992Y0114161D02*
X0213992Y0127617D01*
X0212856Y0127617D01*
X0212856Y0135814D01*
X0210006Y0135507D02*
X0209684Y0135507D01*
X0209684Y0137105D02*
X0210006Y0137105D01*
X0210006Y0138704D02*
X0209684Y0138704D01*
X0210309Y0140302D02*
X0248492Y0140302D01*
X0248162Y0140847D02*
X0252139Y0140847D01*
X0254951Y0143659D01*
X0254951Y0147635D01*
X0252139Y0150447D01*
X0248162Y0150447D01*
X0245351Y0147635D01*
X0245351Y0143659D01*
X0248162Y0140847D01*
X0247109Y0141901D02*
X0219406Y0141901D01*
X0219406Y0143499D02*
X0245510Y0143499D01*
X0245351Y0145098D02*
X0219406Y0145098D01*
X0219406Y0146696D02*
X0245351Y0146696D01*
X0246010Y0148295D02*
X0219156Y0148295D01*
X0219156Y0149893D02*
X0247609Y0149893D01*
X0252692Y0149893D02*
X0257744Y0149893D01*
X0257530Y0151492D02*
X0219156Y0151492D01*
X0219156Y0153090D02*
X0255903Y0153090D01*
X0255241Y0154689D02*
X0218957Y0154689D01*
X0218508Y0156287D02*
X0255239Y0156287D01*
X0255770Y0157886D02*
X0218523Y0157886D01*
X0218537Y0159484D02*
X0257087Y0159484D01*
X0258517Y0161083D02*
X0217762Y0161083D01*
X0215935Y0159233D02*
X0215901Y0155487D01*
X0215901Y0154345D01*
X0216556Y0153690D01*
X0216556Y0144414D01*
X0213706Y0145098D02*
X0212006Y0145098D01*
X0212006Y0146696D02*
X0213706Y0146696D01*
X0213956Y0148295D02*
X0211756Y0148295D01*
X0211756Y0149893D02*
X0213956Y0149893D01*
X0213809Y0151492D02*
X0211993Y0151492D01*
X0212501Y0153090D02*
X0213301Y0153090D01*
X0213301Y0154689D02*
X0212501Y0154689D01*
X0212501Y0156287D02*
X0213301Y0156287D01*
X0209901Y0154345D02*
X0209156Y0153600D01*
X0209156Y0144414D01*
X0207084Y0139244D01*
X0207084Y0121330D01*
X0207114Y0118742D01*
X0203926Y0114144D01*
X0208726Y0114726D02*
X0209126Y0114726D01*
X0209126Y0113128D02*
X0208726Y0113128D01*
X0208099Y0111529D02*
X0209769Y0111529D01*
X0211368Y0109930D02*
X0206500Y0109930D01*
X0208602Y0116325D02*
X0209302Y0116325D01*
X0209597Y0117923D02*
X0210900Y0117923D01*
X0211392Y0119522D02*
X0209705Y0119522D01*
X0209687Y0121120D02*
X0211392Y0121120D01*
X0211392Y0122719D02*
X0209684Y0122719D01*
X0209684Y0124317D02*
X0211392Y0124317D01*
X0210881Y0125916D02*
X0209684Y0125916D01*
X0209684Y0127514D02*
X0210256Y0127514D01*
X0210256Y0129113D02*
X0209684Y0129113D01*
X0209684Y0130711D02*
X0210256Y0130711D01*
X0210256Y0132310D02*
X0209684Y0132310D01*
X0209684Y0133908D02*
X0210006Y0133908D01*
X0215456Y0132310D02*
X0220359Y0132310D01*
X0219718Y0133908D02*
X0215706Y0133908D01*
X0215706Y0135507D02*
X0219718Y0135507D01*
X0219718Y0137105D02*
X0215706Y0137105D01*
X0215706Y0138704D02*
X0220177Y0138704D01*
X0223306Y0135598D02*
X0236874Y0135606D01*
X0250522Y0135544D01*
X0250176Y0073652D01*
X0252970Y0073691D01*
X0253022Y0055364D01*
X0246174Y0055364D01*
X0247953Y0055364D01*
X0247953Y0069713D01*
X0211613Y0069713D01*
X0211728Y0062136D01*
X0208140Y0061975D02*
X0202416Y0061975D01*
X0202162Y0061721D02*
X0204833Y0064392D01*
X0204833Y0068170D01*
X0202162Y0070841D01*
X0198384Y0070841D01*
X0195713Y0068170D01*
X0195713Y0064392D01*
X0198384Y0061721D01*
X0202162Y0061721D01*
X0202603Y0060377D02*
X0208140Y0060377D01*
X0208850Y0058778D02*
X0204201Y0058778D01*
X0204831Y0057180D02*
X0205461Y0057180D01*
X0207343Y0055384D02*
X0217618Y0055396D01*
X0216904Y0055364D01*
X0225701Y0055364D01*
X0225701Y0055367D01*
X0225451Y0058778D02*
X0220471Y0058778D01*
X0225451Y0060377D02*
X0215316Y0060377D01*
X0215316Y0061975D02*
X0225451Y0061975D01*
X0225451Y0063574D02*
X0215316Y0063574D01*
X0214926Y0065172D02*
X0225451Y0065172D01*
X0225725Y0066771D02*
X0214258Y0066771D01*
X0209057Y0066771D02*
X0204833Y0066771D01*
X0204833Y0065172D02*
X0208529Y0065172D01*
X0208140Y0063574D02*
X0204015Y0063574D01*
X0204634Y0068369D02*
X0209033Y0068369D01*
X0209009Y0069968D02*
X0203035Y0069968D01*
X0202227Y0071677D02*
X0204898Y0074348D01*
X0204898Y0078126D01*
X0202227Y0080797D01*
X0198450Y0080797D01*
X0195779Y0078126D01*
X0195779Y0074348D01*
X0198450Y0071677D01*
X0202227Y0071677D01*
X0203715Y0073165D02*
X0206935Y0073165D01*
X0205751Y0074763D02*
X0204898Y0074763D01*
X0204898Y0076362D02*
X0205751Y0076362D01*
X0205751Y0077960D02*
X0204898Y0077960D01*
X0203466Y0079559D02*
X0207184Y0079559D01*
X0208439Y0081666D02*
X0212216Y0081666D01*
X0214888Y0084337D01*
X0214888Y0088115D01*
X0212216Y0090786D01*
X0208439Y0090786D01*
X0205768Y0088115D01*
X0205768Y0084337D01*
X0208439Y0081666D01*
X0207350Y0082756D02*
X0203317Y0082756D01*
X0202227Y0081666D02*
X0204898Y0084337D01*
X0204898Y0088115D01*
X0202227Y0090786D01*
X0198450Y0090786D01*
X0195779Y0088115D01*
X0195779Y0084337D01*
X0198450Y0081666D01*
X0202227Y0081666D01*
X0204898Y0084354D02*
X0205768Y0084354D01*
X0205768Y0085953D02*
X0204898Y0085953D01*
X0204898Y0087551D02*
X0205768Y0087551D01*
X0206803Y0089150D02*
X0203864Y0089150D01*
X0202265Y0090748D02*
X0208401Y0090748D01*
X0208341Y0091312D02*
X0212118Y0091312D01*
X0214789Y0093983D01*
X0214789Y0097761D01*
X0212118Y0100432D01*
X0208341Y0100432D01*
X0205670Y0097761D01*
X0205670Y0093983D01*
X0208341Y0091312D01*
X0207306Y0092347D02*
X0203180Y0092347D01*
X0202146Y0091312D02*
X0204817Y0093983D01*
X0204817Y0097761D01*
X0202146Y0100432D01*
X0198368Y0100432D01*
X0195697Y0097761D01*
X0195697Y0093983D01*
X0198368Y0091312D01*
X0202146Y0091312D01*
X0204779Y0093945D02*
X0205708Y0093945D01*
X0205670Y0095544D02*
X0204817Y0095544D01*
X0204817Y0097142D02*
X0205670Y0097142D01*
X0206650Y0098741D02*
X0203836Y0098741D01*
X0202238Y0100339D02*
X0208249Y0100339D01*
X0212211Y0100339D02*
X0218270Y0100339D01*
X0218363Y0100432D02*
X0215692Y0097761D01*
X0215692Y0093983D01*
X0218363Y0091312D01*
X0222140Y0091312D01*
X0224811Y0093983D01*
X0224811Y0097761D01*
X0222140Y0100432D01*
X0218363Y0100432D01*
X0216672Y0098741D02*
X0213809Y0098741D01*
X0214789Y0097142D02*
X0215692Y0097142D01*
X0215692Y0095544D02*
X0214789Y0095544D01*
X0214752Y0093945D02*
X0215729Y0093945D01*
X0217328Y0092347D02*
X0213153Y0092347D01*
X0212254Y0090748D02*
X0218423Y0090748D01*
X0218444Y0090770D02*
X0215773Y0088099D01*
X0215773Y0084321D01*
X0218444Y0081650D01*
X0222222Y0081650D01*
X0224893Y0084321D01*
X0224893Y0088099D01*
X0222222Y0090770D01*
X0218444Y0090770D01*
X0216824Y0089150D02*
X0213853Y0089150D01*
X0214888Y0087551D02*
X0215773Y0087551D01*
X0215773Y0085953D02*
X0214888Y0085953D01*
X0214888Y0084354D02*
X0215773Y0084354D01*
X0217339Y0082756D02*
X0213306Y0082756D01*
X0213438Y0079559D02*
X0217239Y0079559D01*
X0215773Y0077960D02*
X0214871Y0077960D01*
X0214871Y0076362D02*
X0215773Y0076362D01*
X0215773Y0074763D02*
X0214871Y0074763D01*
X0213687Y0073165D02*
X0216924Y0073165D01*
X0209789Y0071566D02*
X0106191Y0071566D01*
X0106765Y0069968D02*
X0117533Y0069968D01*
X0118390Y0070824D02*
X0115719Y0068153D01*
X0115719Y0064376D01*
X0118390Y0061705D01*
X0122168Y0061705D01*
X0124839Y0064376D01*
X0124839Y0068153D01*
X0122168Y0070824D01*
X0118390Y0070824D01*
X0118439Y0071661D02*
X0115768Y0074332D01*
X0115768Y0078110D01*
X0118439Y0080781D01*
X0122217Y0080781D01*
X0124888Y0078110D01*
X0124888Y0074332D01*
X0122217Y0071661D01*
X0118439Y0071661D01*
X0116935Y0073165D02*
X0104813Y0073165D01*
X0103738Y0074763D02*
X0115768Y0074763D01*
X0115768Y0076362D02*
X0105891Y0076362D01*
X0106637Y0077960D02*
X0115768Y0077960D01*
X0117217Y0079559D02*
X0106765Y0079559D01*
X0106360Y0081157D02*
X0247618Y0081157D01*
X0247609Y0079559D02*
X0233449Y0079559D01*
X0234898Y0077960D02*
X0247600Y0077960D01*
X0247591Y0076362D02*
X0234898Y0076362D01*
X0234898Y0074763D02*
X0247582Y0074763D01*
X0247573Y0073165D02*
X0233731Y0073165D01*
X0226946Y0073165D02*
X0223742Y0073165D01*
X0224893Y0074763D02*
X0225779Y0074763D01*
X0225779Y0076362D02*
X0224893Y0076362D01*
X0224893Y0077960D02*
X0225779Y0077960D01*
X0227228Y0079559D02*
X0223427Y0079559D01*
X0223328Y0082756D02*
X0227360Y0082756D01*
X0228450Y0081666D02*
X0232227Y0081666D01*
X0234898Y0084337D01*
X0234898Y0088115D01*
X0232227Y0090786D01*
X0228450Y0090786D01*
X0225779Y0088115D01*
X0225779Y0084337D01*
X0228450Y0081666D01*
X0225779Y0084354D02*
X0224893Y0084354D01*
X0224893Y0085953D02*
X0225779Y0085953D01*
X0225779Y0087551D02*
X0224893Y0087551D01*
X0223842Y0089150D02*
X0226814Y0089150D01*
X0228412Y0090748D02*
X0222243Y0090748D01*
X0223175Y0092347D02*
X0227317Y0092347D01*
X0228368Y0091296D02*
X0232146Y0091296D01*
X0234817Y0093967D01*
X0234817Y0097744D01*
X0232146Y0100415D01*
X0228368Y0100415D01*
X0225697Y0097744D01*
X0225697Y0093967D01*
X0228368Y0091296D01*
X0225718Y0093945D02*
X0224773Y0093945D01*
X0224811Y0095544D02*
X0225697Y0095544D01*
X0225697Y0097142D02*
X0224811Y0097142D01*
X0223831Y0098741D02*
X0226694Y0098741D01*
X0228292Y0100339D02*
X0222232Y0100339D01*
X0222449Y0105135D02*
X0247752Y0105135D01*
X0247761Y0106733D02*
X0222687Y0106733D01*
X0222677Y0108332D02*
X0247770Y0108332D01*
X0247779Y0109930D02*
X0222670Y0109930D01*
X0222663Y0111529D02*
X0247788Y0111529D01*
X0247797Y0113128D02*
X0222656Y0113128D01*
X0222649Y0114726D02*
X0247806Y0114726D01*
X0247815Y0116325D02*
X0222642Y0116325D01*
X0222635Y0117923D02*
X0247824Y0117923D01*
X0247833Y0119522D02*
X0222628Y0119522D01*
X0222621Y0121120D02*
X0247842Y0121120D01*
X0247851Y0122719D02*
X0222614Y0122719D01*
X0222607Y0124317D02*
X0247860Y0124317D01*
X0247868Y0125916D02*
X0222600Y0125916D01*
X0222593Y0127514D02*
X0247877Y0127514D01*
X0247886Y0129113D02*
X0222592Y0129113D01*
X0221844Y0130711D02*
X0247895Y0130711D01*
X0246969Y0132310D02*
X0226253Y0132310D01*
X0226435Y0138704D02*
X0246894Y0138704D01*
X0252553Y0140302D02*
X0258732Y0140302D01*
X0256998Y0141901D02*
X0253192Y0141901D01*
X0254791Y0143499D02*
X0255733Y0143499D01*
X0255239Y0145098D02*
X0254951Y0145098D01*
X0254951Y0146696D02*
X0255277Y0146696D01*
X0255940Y0148295D02*
X0254291Y0148295D01*
X0254151Y0138704D02*
X0256306Y0138704D01*
X0255447Y0137105D02*
X0255322Y0137105D01*
X0267346Y0140302D02*
X0281022Y0140302D01*
X0281022Y0149893D02*
X0280742Y0149893D01*
X0271768Y0149893D02*
X0268333Y0149893D01*
X0268547Y0151492D02*
X0270288Y0151492D01*
X0270780Y0159484D02*
X0268991Y0159484D01*
X0267560Y0161083D02*
X0270926Y0161083D01*
X0270228Y0169075D02*
X0269400Y0169075D01*
X0272001Y0170674D02*
X0246576Y0170674D01*
X0246303Y0170762D02*
X0245557Y0170881D01*
X0242379Y0170881D01*
X0242379Y0166281D01*
X0241979Y0166281D01*
X0241979Y0170881D01*
X0238802Y0170881D01*
X0238055Y0170762D01*
X0237337Y0170529D01*
X0236664Y0170186D01*
X0236052Y0169742D01*
X0235518Y0169208D01*
X0235495Y0169176D01*
X0235053Y0169618D01*
X0234442Y0170062D01*
X0233768Y0170405D01*
X0233050Y0170638D01*
X0232304Y0170757D01*
X0229126Y0170757D01*
X0229126Y0166157D01*
X0228726Y0166157D01*
X0228726Y0170757D01*
X0225548Y0170757D01*
X0224802Y0170638D01*
X0224083Y0170405D01*
X0223410Y0170062D01*
X0222799Y0169618D01*
X0222265Y0169084D01*
X0221820Y0168472D01*
X0221477Y0167799D01*
X0221244Y0167081D01*
X0221126Y0166334D01*
X0221126Y0166157D01*
X0228726Y0166157D01*
X0228726Y0165757D01*
X0221126Y0165757D01*
X0221126Y0165579D01*
X0221244Y0164833D01*
X0221477Y0164114D01*
X0221820Y0163441D01*
X0222265Y0162830D01*
X0222799Y0162295D01*
X0223410Y0161851D01*
X0224083Y0161508D01*
X0224802Y0161275D01*
X0225548Y0161157D01*
X0228726Y0161157D01*
X0228726Y0165756D01*
X0229126Y0165756D01*
X0229126Y0161157D01*
X0232304Y0161157D01*
X0233050Y0161275D01*
X0233768Y0161508D01*
X0234442Y0161851D01*
X0235053Y0162295D01*
X0235587Y0162830D01*
X0235610Y0162862D01*
X0236052Y0162419D01*
X0236664Y0161975D01*
X0237337Y0161632D01*
X0238055Y0161399D01*
X0238802Y0161281D01*
X0241979Y0161281D01*
X0241979Y0165881D01*
X0234379Y0165881D01*
X0234379Y0165757D01*
X0229126Y0165757D01*
X0229126Y0166157D01*
X0236726Y0166157D01*
X0236726Y0166281D01*
X0241979Y0166281D01*
X0241979Y0165881D01*
X0242379Y0165881D01*
X0242379Y0161281D01*
X0245557Y0161281D01*
X0246303Y0161399D01*
X0247022Y0161632D01*
X0247695Y0161975D01*
X0248306Y0162419D01*
X0248841Y0162954D01*
X0249285Y0163565D01*
X0249628Y0164238D01*
X0249861Y0164957D01*
X0249979Y0165703D01*
X0249979Y0165881D01*
X0242379Y0165881D01*
X0242379Y0166281D01*
X0249979Y0166281D01*
X0249979Y0166458D01*
X0249861Y0167205D01*
X0249628Y0167923D01*
X0249285Y0168596D01*
X0248841Y0169208D01*
X0248306Y0169742D01*
X0247695Y0170186D01*
X0247022Y0170529D01*
X0246303Y0170762D01*
X0246134Y0171281D02*
X0247898Y0172011D01*
X0249249Y0173362D01*
X0249979Y0175126D01*
X0249979Y0177035D01*
X0249249Y0178800D01*
X0247898Y0180150D01*
X0246134Y0180881D01*
X0238225Y0180881D01*
X0236460Y0180150D01*
X0235491Y0179180D01*
X0234645Y0180026D01*
X0232881Y0180757D01*
X0224971Y0180757D01*
X0223207Y0180026D01*
X0221857Y0178676D01*
X0221126Y0176911D01*
X0221126Y0175002D01*
X0221857Y0173238D01*
X0223207Y0171887D01*
X0224971Y0171157D01*
X0232881Y0171157D01*
X0234645Y0171887D01*
X0235615Y0172857D01*
X0236460Y0172011D01*
X0238225Y0171281D01*
X0246134Y0171281D01*
X0248159Y0172272D02*
X0256626Y0172272D01*
X0256377Y0172521D02*
X0256912Y0171987D01*
X0257523Y0171543D01*
X0258196Y0171200D01*
X0258915Y0170966D01*
X0259661Y0170848D01*
X0262839Y0170848D01*
X0262839Y0175448D01*
X0255239Y0175448D01*
X0255239Y0175270D01*
X0255357Y0174524D01*
X0255590Y0173806D01*
X0255933Y0173132D01*
X0256377Y0172521D01*
X0255569Y0173871D02*
X0249460Y0173871D01*
X0249979Y0175469D02*
X0262839Y0175469D01*
X0263239Y0175469D02*
X0276055Y0175469D01*
X0276055Y0173871D02*
X0276455Y0173871D01*
X0276455Y0172272D02*
X0276055Y0172272D01*
X0276055Y0170674D02*
X0276455Y0170674D01*
X0280508Y0170674D02*
X0281022Y0170674D01*
X0276455Y0177068D02*
X0276055Y0177068D01*
X0276055Y0178666D02*
X0276455Y0178666D01*
X0281022Y0180265D02*
X0267363Y0180265D01*
X0269042Y0181864D02*
X0269917Y0181864D01*
X0269819Y0178666D02*
X0269779Y0178666D01*
X0269531Y0172272D02*
X0269451Y0172272D01*
X0263239Y0172272D02*
X0262839Y0172272D01*
X0262839Y0173871D02*
X0263239Y0173871D01*
X0263239Y0177068D02*
X0262839Y0177068D01*
X0262839Y0178666D02*
X0263239Y0178666D01*
X0263239Y0180265D02*
X0262839Y0180265D01*
X0258715Y0180265D02*
X0247620Y0180265D01*
X0247541Y0181864D02*
X0257035Y0181864D01*
X0255749Y0183462D02*
X0249290Y0183462D01*
X0249952Y0185061D02*
X0255239Y0185061D01*
X0255262Y0186659D02*
X0249979Y0186659D01*
X0249473Y0188258D02*
X0255924Y0188258D01*
X0257655Y0189856D02*
X0248192Y0189856D01*
X0246554Y0191455D02*
X0257620Y0191455D01*
X0255918Y0193053D02*
X0248940Y0193053D01*
X0249783Y0194652D02*
X0255256Y0194652D01*
X0255239Y0196250D02*
X0249979Y0196250D01*
X0249643Y0197849D02*
X0255755Y0197849D01*
X0257049Y0199447D02*
X0248601Y0199447D01*
X0248531Y0202644D02*
X0256254Y0202644D01*
X0255425Y0204243D02*
X0249614Y0204243D01*
X0249979Y0205841D02*
X0255239Y0205841D01*
X0255585Y0207440D02*
X0249812Y0207440D01*
X0249010Y0209038D02*
X0256641Y0209038D01*
X0258607Y0201046D02*
X0222907Y0201046D01*
X0220307Y0196070D02*
X0220307Y0253653D01*
X0221177Y0253653D01*
X0224765Y0253797D02*
X0254846Y0253797D01*
X0254846Y0255395D02*
X0224765Y0255395D01*
X0224071Y0256994D02*
X0254846Y0256994D01*
X0255283Y0258592D02*
X0219483Y0258592D01*
X0219483Y0260191D02*
X0255841Y0260191D01*
X0255843Y0261789D02*
X0219483Y0261789D01*
X0215895Y0259369D02*
X0215955Y0253005D01*
X0215955Y0244382D01*
X0216034Y0236248D01*
X0216034Y0185957D01*
X0228926Y0185957D01*
X0224252Y0191455D02*
X0218634Y0191455D01*
X0218634Y0193053D02*
X0222041Y0193053D01*
X0223037Y0189856D02*
X0218634Y0189856D01*
X0220307Y0196070D02*
X0228926Y0196070D01*
X0228926Y0195957D01*
X0233600Y0191455D02*
X0237805Y0191455D01*
X0236167Y0189856D02*
X0234814Y0189856D01*
X0234587Y0181864D02*
X0236817Y0181864D01*
X0236738Y0180265D02*
X0234067Y0180265D01*
X0235030Y0172272D02*
X0236199Y0172272D01*
X0237783Y0170674D02*
X0232825Y0170674D01*
X0234379Y0165878D02*
X0229126Y0165878D01*
X0228726Y0165878D02*
X0202111Y0165878D01*
X0202111Y0167477D02*
X0221373Y0167477D01*
X0222259Y0169075D02*
X0202111Y0169075D01*
X0202111Y0170674D02*
X0209587Y0170674D01*
X0209587Y0172272D02*
X0201757Y0172272D01*
X0201649Y0173871D02*
X0209587Y0173871D01*
X0209587Y0175469D02*
X0201646Y0175469D01*
X0201642Y0177068D02*
X0203509Y0177068D01*
X0202055Y0178666D02*
X0201638Y0178666D01*
X0205991Y0178666D02*
X0206191Y0178666D01*
X0206191Y0177068D02*
X0205991Y0177068D01*
X0208673Y0177068D02*
X0210572Y0177068D01*
X0210571Y0178666D02*
X0210127Y0178666D01*
X0206191Y0180265D02*
X0205991Y0180265D01*
X0197234Y0183462D02*
X0192469Y0183462D01*
X0190846Y0181864D02*
X0196429Y0181864D01*
X0196435Y0180265D02*
X0189223Y0180265D01*
X0187600Y0178666D02*
X0196438Y0178666D01*
X0196442Y0177068D02*
X0185978Y0177068D01*
X0184355Y0175469D02*
X0196446Y0175469D01*
X0196449Y0173871D02*
X0183644Y0173871D01*
X0183541Y0172272D02*
X0192367Y0172272D01*
X0192011Y0170674D02*
X0183755Y0170674D01*
X0183755Y0169075D02*
X0192011Y0169075D01*
X0192011Y0167477D02*
X0183755Y0167477D01*
X0183755Y0165878D02*
X0192027Y0165878D01*
X0195061Y0165878D02*
X0195061Y0165878D01*
X0195061Y0172272D02*
X0195061Y0172272D01*
X0191960Y0159240D02*
X0168090Y0159240D01*
X0168090Y0168673D01*
X0176705Y0168673D01*
X0180705Y0168673D02*
X0181174Y0175986D01*
X0192350Y0186994D01*
X0198599Y0186938D01*
X0206091Y0196626D01*
X0196717Y0196259D02*
X0196717Y0191245D01*
X0196471Y0196013D02*
X0196717Y0196259D01*
X0196717Y0203139D01*
X0196793Y0203216D01*
X0193943Y0202644D02*
X0192243Y0202644D01*
X0192243Y0201046D02*
X0193943Y0201046D01*
X0194117Y0199447D02*
X0191521Y0199447D01*
X0189393Y0201353D02*
X0189393Y0203216D01*
X0189393Y0201353D02*
X0180004Y0201353D01*
X0180004Y0191203D01*
X0179969Y0191203D01*
X0179969Y0186879D01*
X0165584Y0186879D01*
X0165584Y0181007D01*
X0165514Y0186879D02*
X0165584Y0186879D01*
X0165514Y0186879D02*
X0165514Y0191090D01*
X0165568Y0191090D01*
X0165568Y0189950D01*
X0165568Y0191090D02*
X0165568Y0200977D01*
X0163365Y0203179D01*
X0169915Y0209038D02*
X0170298Y0209038D01*
X0170908Y0206476D02*
X0182182Y0206493D01*
X0185770Y0205841D02*
X0186543Y0205841D01*
X0186543Y0204243D02*
X0185770Y0204243D01*
X0192243Y0204243D02*
X0193943Y0204243D01*
X0193943Y0205841D02*
X0192243Y0205841D01*
X0195943Y0209038D02*
X0202921Y0209038D01*
X0201832Y0210637D02*
X0195943Y0210637D01*
X0197190Y0212235D02*
X0201491Y0212235D01*
X0201717Y0213834D02*
X0198362Y0213834D01*
X0198456Y0215432D02*
X0202644Y0215432D01*
X0202803Y0217031D02*
X0198456Y0217031D01*
X0198456Y0218629D02*
X0201783Y0218629D01*
X0201491Y0220228D02*
X0198461Y0220228D01*
X0198456Y0221826D02*
X0201766Y0221826D01*
X0202763Y0223425D02*
X0198423Y0223425D01*
X0198405Y0225023D02*
X0202684Y0225023D01*
X0202029Y0228086D02*
X0203152Y0228122D01*
X0206091Y0228122D01*
X0202029Y0228086D02*
X0190191Y0240344D01*
X0182142Y0240344D01*
X0165592Y0256894D01*
X0165592Y0257756D01*
X0164928Y0257756D01*
X0169728Y0256994D02*
X0170128Y0256994D01*
X0170128Y0258592D02*
X0169728Y0258592D01*
X0169282Y0260191D02*
X0170574Y0260191D01*
X0172173Y0261789D02*
X0167684Y0261789D01*
X0167348Y0263388D02*
X0172509Y0263388D01*
X0172940Y0262956D02*
X0176917Y0262956D01*
X0179728Y0265768D01*
X0179728Y0269745D01*
X0176917Y0272556D01*
X0172940Y0272556D01*
X0170128Y0269745D01*
X0170128Y0265768D01*
X0172940Y0262956D01*
X0170910Y0264986D02*
X0168946Y0264986D01*
X0169728Y0266585D02*
X0170128Y0266585D01*
X0170128Y0268183D02*
X0169728Y0268183D01*
X0169691Y0269782D02*
X0170165Y0269782D01*
X0171764Y0271380D02*
X0168093Y0271380D01*
X0164928Y0267913D02*
X0164928Y0267756D01*
X0164928Y0267913D02*
X0153879Y0267913D01*
X0153304Y0267338D01*
X0143082Y0267338D01*
X0143082Y0270806D01*
X0129506Y0270806D01*
X0125377Y0270841D01*
X0113823Y0270841D01*
X0111170Y0268188D01*
X0106170Y0268183D02*
X0081216Y0268183D01*
X0081216Y0266585D02*
X0081471Y0266585D01*
X0081216Y0269782D02*
X0106170Y0269782D01*
X0106867Y0271380D02*
X0081216Y0271380D01*
X0081216Y0272979D02*
X0112284Y0272979D01*
X0116170Y0268183D02*
X0121577Y0268183D01*
X0122075Y0266585D02*
X0116170Y0266585D01*
X0115464Y0264986D02*
X0121577Y0264986D01*
X0121577Y0261789D02*
X0115899Y0261789D01*
X0115810Y0261943D02*
X0115475Y0262278D01*
X0115065Y0262515D01*
X0114607Y0262638D01*
X0111245Y0262638D01*
X0111245Y0259163D01*
X0111095Y0259163D01*
X0111095Y0262638D01*
X0107733Y0262638D01*
X0107275Y0262515D01*
X0106865Y0262278D01*
X0106530Y0261943D01*
X0106293Y0261532D01*
X0106170Y0261075D01*
X0106170Y0259163D01*
X0111095Y0259163D01*
X0111095Y0259013D01*
X0106170Y0259013D01*
X0106170Y0257101D01*
X0106293Y0256643D01*
X0106530Y0256232D01*
X0106865Y0255897D01*
X0107275Y0255660D01*
X0107733Y0255538D01*
X0111095Y0255538D01*
X0111095Y0259013D01*
X0111245Y0259013D01*
X0111245Y0259163D01*
X0116170Y0259163D01*
X0116170Y0261075D01*
X0116047Y0261532D01*
X0115810Y0261943D01*
X0116170Y0260191D02*
X0121791Y0260191D01*
X0121741Y0258592D02*
X0116170Y0258592D01*
X0116170Y0259013D02*
X0111245Y0259013D01*
X0111245Y0255538D01*
X0114607Y0255538D01*
X0115065Y0255660D01*
X0115475Y0255897D01*
X0115810Y0256232D01*
X0116047Y0256643D01*
X0116170Y0257101D01*
X0116170Y0259013D01*
X0116141Y0256994D02*
X0121741Y0256994D01*
X0121778Y0255395D02*
X0090970Y0255395D01*
X0090970Y0253797D02*
X0122523Y0253797D01*
X0125341Y0258592D02*
X0125741Y0258592D01*
X0125577Y0260191D02*
X0125341Y0260191D01*
X0125177Y0261789D02*
X0125577Y0261789D01*
X0125577Y0263388D02*
X0150704Y0263388D01*
X0150704Y0261789D02*
X0129177Y0261789D01*
X0129292Y0260191D02*
X0150704Y0260191D01*
X0150704Y0258592D02*
X0129341Y0258592D01*
X0129341Y0256994D02*
X0151499Y0256994D01*
X0153098Y0255395D02*
X0129304Y0255395D01*
X0128560Y0253797D02*
X0154696Y0253797D01*
X0156295Y0252198D02*
X0142863Y0252198D01*
X0143726Y0250599D02*
X0157893Y0250599D01*
X0159492Y0249001D02*
X0143726Y0249001D01*
X0143726Y0247402D02*
X0161090Y0247402D01*
X0161276Y0245804D02*
X0162689Y0245804D01*
X0162305Y0244205D02*
X0164287Y0244205D01*
X0165886Y0242607D02*
X0162305Y0242607D01*
X0162305Y0241008D02*
X0167484Y0241008D01*
X0169083Y0239410D02*
X0162305Y0239410D01*
X0162305Y0237811D02*
X0170681Y0237811D01*
X0172280Y0236213D02*
X0162305Y0236213D01*
X0162305Y0234614D02*
X0171507Y0234614D01*
X0171326Y0233016D02*
X0163546Y0233016D01*
X0164871Y0231417D02*
X0171326Y0231417D01*
X0171326Y0229819D02*
X0166218Y0229819D01*
X0167436Y0228220D02*
X0172245Y0228220D01*
X0168655Y0226622D02*
X0192533Y0226622D01*
X0193204Y0225023D02*
X0169873Y0225023D01*
X0172090Y0223425D02*
X0187689Y0223425D01*
X0189856Y0220646D02*
X0189856Y0220573D01*
X0169996Y0220573D01*
X0177583Y0228220D02*
X0190423Y0228220D01*
X0186221Y0229819D02*
X0178503Y0229819D01*
X0178503Y0231417D02*
X0186221Y0231417D01*
X0186221Y0233016D02*
X0178503Y0233016D01*
X0178321Y0234614D02*
X0186240Y0234614D01*
X0189809Y0231948D02*
X0195776Y0227427D01*
X0195856Y0220646D01*
X0195856Y0214578D01*
X0193093Y0211816D01*
X0193256Y0218629D02*
X0192456Y0218629D01*
X0192456Y0220228D02*
X0193256Y0220228D01*
X0193242Y0221826D02*
X0192456Y0221826D01*
X0192023Y0223425D02*
X0193223Y0223425D01*
X0198386Y0226622D02*
X0199828Y0226622D01*
X0202426Y0231417D02*
X0202524Y0231417D01*
X0201491Y0233016D02*
X0200882Y0233016D01*
X0201491Y0234614D02*
X0199339Y0234614D01*
X0197795Y0236213D02*
X0201491Y0236213D01*
X0201491Y0237811D02*
X0196251Y0237811D01*
X0194708Y0239410D02*
X0201491Y0239410D01*
X0206563Y0241008D02*
X0193164Y0241008D01*
X0191522Y0242607D02*
X0206563Y0242607D01*
X0206563Y0244205D02*
X0181957Y0244205D01*
X0180359Y0245804D02*
X0206563Y0245804D01*
X0206563Y0247402D02*
X0178760Y0247402D01*
X0177162Y0249001D02*
X0206563Y0249001D01*
X0206563Y0250599D02*
X0175563Y0250599D01*
X0173965Y0252198D02*
X0206563Y0252198D01*
X0206563Y0253797D02*
X0197757Y0253797D01*
X0196917Y0252956D02*
X0199728Y0255768D01*
X0199728Y0257556D01*
X0195128Y0257556D01*
X0195128Y0252956D01*
X0196917Y0252956D01*
X0195128Y0253797D02*
X0194728Y0253797D01*
X0194728Y0252956D02*
X0194728Y0257556D01*
X0195128Y0257556D01*
X0195128Y0257956D01*
X0199728Y0257956D01*
X0199728Y0259745D01*
X0196917Y0262556D01*
X0195128Y0262556D01*
X0195128Y0257956D01*
X0194728Y0257956D01*
X0194728Y0257556D01*
X0190128Y0257556D01*
X0190128Y0255768D01*
X0192940Y0252956D01*
X0194728Y0252956D01*
X0194728Y0255395D02*
X0195128Y0255395D01*
X0195128Y0256994D02*
X0194728Y0256994D01*
X0194728Y0257956D02*
X0190128Y0257956D01*
X0190128Y0259745D01*
X0192940Y0262556D01*
X0194728Y0262556D01*
X0194728Y0257956D01*
X0194728Y0258592D02*
X0195128Y0258592D01*
X0195128Y0260191D02*
X0194728Y0260191D01*
X0194728Y0261789D02*
X0195128Y0261789D01*
X0197684Y0261789D02*
X0204171Y0261789D01*
X0204264Y0260191D02*
X0199282Y0260191D01*
X0199728Y0258592D02*
X0204264Y0258592D01*
X0204588Y0256994D02*
X0199728Y0256994D01*
X0199355Y0255395D02*
X0206083Y0255395D01*
X0206864Y0258291D02*
X0209163Y0255992D01*
X0209163Y0236073D01*
X0206091Y0235996D01*
X0213125Y0235893D01*
X0213176Y0172855D01*
X0216764Y0172272D02*
X0222822Y0172272D01*
X0221594Y0173871D02*
X0216764Y0173871D01*
X0216764Y0175469D02*
X0221126Y0175469D01*
X0221191Y0177068D02*
X0215772Y0177068D01*
X0215771Y0178666D02*
X0221853Y0178666D01*
X0223784Y0180265D02*
X0215770Y0180265D01*
X0215768Y0181864D02*
X0223264Y0181864D01*
X0225026Y0170674D02*
X0216764Y0170674D01*
X0221424Y0164280D02*
X0170690Y0164280D01*
X0170690Y0165878D02*
X0173655Y0165878D01*
X0170690Y0162681D02*
X0222413Y0162681D01*
X0228726Y0162681D02*
X0229126Y0162681D01*
X0229126Y0164280D02*
X0228726Y0164280D01*
X0228726Y0167477D02*
X0229126Y0167477D01*
X0229126Y0169075D02*
X0228726Y0169075D01*
X0228726Y0170674D02*
X0229126Y0170674D01*
X0235439Y0162681D02*
X0235790Y0162681D01*
X0241979Y0162681D02*
X0242379Y0162681D01*
X0242379Y0164280D02*
X0241979Y0164280D01*
X0241979Y0165878D02*
X0242379Y0165878D01*
X0242379Y0167477D02*
X0241979Y0167477D01*
X0241979Y0169075D02*
X0242379Y0169075D01*
X0242379Y0170674D02*
X0241979Y0170674D01*
X0248937Y0169075D02*
X0256678Y0169075D01*
X0255601Y0167477D02*
X0249773Y0167477D01*
X0249979Y0165878D02*
X0255239Y0165878D01*
X0255410Y0164280D02*
X0249641Y0164280D01*
X0248568Y0162681D02*
X0256217Y0162681D01*
X0255453Y0177068D02*
X0249966Y0177068D01*
X0249304Y0178666D02*
X0256299Y0178666D01*
X0268423Y0189856D02*
X0271678Y0189856D01*
X0270326Y0191455D02*
X0268458Y0191455D01*
X0269028Y0199447D02*
X0270691Y0199447D01*
X0271016Y0201046D02*
X0267470Y0201046D01*
X0269437Y0209038D02*
X0270191Y0209038D01*
X0270417Y0210637D02*
X0246723Y0210637D01*
X0248122Y0212235D02*
X0268577Y0212235D01*
X0267379Y0213834D02*
X0249444Y0213834D01*
X0249979Y0215432D02*
X0266516Y0215432D01*
X0266088Y0217031D02*
X0249979Y0217031D01*
X0249319Y0218629D02*
X0265865Y0218629D01*
X0265865Y0220228D02*
X0247710Y0220228D01*
X0247451Y0221826D02*
X0266200Y0221826D01*
X0266699Y0223425D02*
X0249275Y0223425D01*
X0249937Y0225023D02*
X0267622Y0225023D01*
X0268998Y0226622D02*
X0249979Y0226622D01*
X0249489Y0228220D02*
X0271146Y0228220D01*
X0272326Y0233131D02*
X0272784Y0233008D01*
X0275199Y0233008D01*
X0275199Y0237380D01*
X0276354Y0237380D01*
X0276354Y0233008D01*
X0278769Y0233008D01*
X0279227Y0233131D01*
X0279638Y0233368D01*
X0279973Y0233703D01*
X0280210Y0234113D01*
X0280332Y0234571D01*
X0280332Y0237380D01*
X0276355Y0237380D01*
X0276355Y0238536D01*
X0280332Y0238536D01*
X0280332Y0241344D01*
X0280210Y0241802D01*
X0279973Y0242213D01*
X0279638Y0242548D01*
X0279227Y0242785D01*
X0278769Y0242907D01*
X0276354Y0242907D01*
X0276354Y0238536D01*
X0275199Y0238536D01*
X0275199Y0242907D01*
X0272784Y0242907D01*
X0272326Y0242785D01*
X0271915Y0242548D01*
X0271580Y0242213D01*
X0271343Y0241802D01*
X0271221Y0241344D01*
X0271221Y0238536D01*
X0275198Y0238536D01*
X0275198Y0237380D01*
X0271221Y0237380D01*
X0271221Y0234571D01*
X0271343Y0234113D01*
X0271580Y0233703D01*
X0271915Y0233368D01*
X0272326Y0233131D01*
X0272755Y0233016D02*
X0261963Y0233016D01*
X0263010Y0234614D02*
X0271221Y0234614D01*
X0271221Y0236213D02*
X0263010Y0236213D01*
X0263010Y0237811D02*
X0275198Y0237811D01*
X0276355Y0237811D02*
X0281022Y0237811D01*
X0281022Y0236213D02*
X0280332Y0236213D01*
X0280332Y0234614D02*
X0281022Y0234614D01*
X0281022Y0233016D02*
X0278798Y0233016D01*
X0276354Y0233016D02*
X0275199Y0233016D01*
X0275199Y0234614D02*
X0276354Y0234614D01*
X0276354Y0236213D02*
X0275199Y0236213D01*
X0275199Y0239410D02*
X0276354Y0239410D01*
X0276354Y0241008D02*
X0275199Y0241008D01*
X0275199Y0242607D02*
X0276354Y0242607D01*
X0272018Y0242607D02*
X0262256Y0242607D01*
X0263010Y0241008D02*
X0271221Y0241008D01*
X0271221Y0239410D02*
X0263010Y0239410D01*
X0258454Y0237958D02*
X0258435Y0255508D01*
X0258454Y0269454D01*
X0253898Y0269782D02*
X0203533Y0269782D01*
X0205131Y0268183D02*
X0253898Y0268183D01*
X0253898Y0266585D02*
X0206730Y0266585D01*
X0208328Y0264986D02*
X0254470Y0264986D01*
X0255845Y0263388D02*
X0209424Y0263388D01*
X0209464Y0261789D02*
X0212307Y0261789D01*
X0212307Y0260191D02*
X0209464Y0260191D01*
X0210240Y0258592D02*
X0212307Y0258592D01*
X0212307Y0256994D02*
X0211563Y0256994D01*
X0211763Y0255395D02*
X0213332Y0255395D01*
X0213347Y0253797D02*
X0211763Y0253797D01*
X0211763Y0252198D02*
X0213355Y0252198D01*
X0213355Y0250599D02*
X0211763Y0250599D01*
X0211763Y0249001D02*
X0213355Y0249001D01*
X0213355Y0247402D02*
X0211763Y0247402D01*
X0211763Y0245804D02*
X0213355Y0245804D01*
X0213355Y0244205D02*
X0211763Y0244205D01*
X0211763Y0242607D02*
X0213372Y0242607D01*
X0213387Y0241008D02*
X0211763Y0241008D01*
X0211763Y0239410D02*
X0213403Y0239410D01*
X0222907Y0241008D02*
X0253898Y0241008D01*
X0253898Y0239410D02*
X0248638Y0239410D01*
X0249658Y0237811D02*
X0253898Y0237811D01*
X0253898Y0236213D02*
X0249979Y0236213D01*
X0249767Y0234614D02*
X0253898Y0234614D01*
X0254945Y0233016D02*
X0248903Y0233016D01*
X0246464Y0231417D02*
X0281022Y0231417D01*
X0281022Y0229819D02*
X0248229Y0229819D01*
X0237894Y0231417D02*
X0233510Y0231417D01*
X0234852Y0229819D02*
X0236129Y0229819D01*
X0236907Y0221826D02*
X0234497Y0221826D01*
X0234157Y0220228D02*
X0236649Y0220228D01*
X0236237Y0212235D02*
X0234993Y0212235D01*
X0233170Y0210637D02*
X0237636Y0210637D01*
X0235828Y0202644D02*
X0235402Y0202644D01*
X0235223Y0199447D02*
X0235758Y0199447D01*
X0224682Y0210637D02*
X0222907Y0210637D01*
X0222907Y0220228D02*
X0223694Y0220228D01*
X0223354Y0221826D02*
X0222907Y0221826D01*
X0222907Y0229819D02*
X0223000Y0229819D01*
X0222907Y0231417D02*
X0224341Y0231417D01*
X0235261Y0239410D02*
X0235720Y0239410D01*
X0224359Y0250599D02*
X0255840Y0250599D01*
X0255842Y0249001D02*
X0222907Y0249001D01*
X0222907Y0247402D02*
X0255843Y0247402D01*
X0255845Y0245804D02*
X0222907Y0245804D01*
X0222907Y0244205D02*
X0255847Y0244205D01*
X0254652Y0242607D02*
X0222907Y0242607D01*
X0224765Y0252198D02*
X0255510Y0252198D01*
X0261040Y0250599D02*
X0281022Y0250599D01*
X0281022Y0249001D02*
X0261042Y0249001D01*
X0261043Y0247402D02*
X0281022Y0247402D01*
X0281022Y0245804D02*
X0261045Y0245804D01*
X0261047Y0244205D02*
X0281022Y0244205D01*
X0281022Y0242607D02*
X0279535Y0242607D01*
X0280332Y0241008D02*
X0281022Y0241008D01*
X0281022Y0239410D02*
X0280332Y0239410D01*
X0281022Y0252198D02*
X0261359Y0252198D01*
X0262023Y0253797D02*
X0281022Y0253797D01*
X0281022Y0255395D02*
X0262023Y0255395D01*
X0262023Y0256994D02*
X0281022Y0256994D01*
X0281022Y0258592D02*
X0261586Y0258592D01*
X0261041Y0260191D02*
X0281022Y0260191D01*
X0281022Y0261789D02*
X0261043Y0261789D01*
X0261045Y0263388D02*
X0281022Y0263388D01*
X0281022Y0264986D02*
X0279760Y0264986D01*
X0280332Y0266585D02*
X0281022Y0266585D01*
X0281022Y0268183D02*
X0280332Y0268183D01*
X0281022Y0269782D02*
X0276355Y0269782D01*
X0275198Y0269782D02*
X0263010Y0269782D01*
X0263010Y0271380D02*
X0271221Y0271380D01*
X0271258Y0272979D02*
X0263010Y0272979D01*
X0263010Y0268183D02*
X0271221Y0268183D01*
X0271221Y0266585D02*
X0263010Y0266585D01*
X0262437Y0264986D02*
X0271793Y0264986D01*
X0275199Y0264986D02*
X0276354Y0264986D01*
X0276354Y0266585D02*
X0275199Y0266585D01*
X0275199Y0268183D02*
X0276354Y0268183D01*
X0280332Y0271380D02*
X0281022Y0271380D01*
X0281022Y0272979D02*
X0280295Y0272979D01*
X0253898Y0272979D02*
X0144586Y0272979D01*
X0145658Y0271380D02*
X0161764Y0271380D01*
X0160910Y0264986D02*
X0155904Y0264986D01*
X0155904Y0263388D02*
X0162509Y0263388D01*
X0162173Y0261789D02*
X0155904Y0261789D01*
X0155904Y0260191D02*
X0160574Y0260191D01*
X0160128Y0258592D02*
X0157254Y0258592D01*
X0158853Y0256994D02*
X0160128Y0256994D01*
X0160451Y0255395D02*
X0160501Y0255395D01*
X0162050Y0253797D02*
X0162100Y0253797D01*
X0163648Y0252198D02*
X0166611Y0252198D01*
X0165247Y0250599D02*
X0168209Y0250599D01*
X0166845Y0249001D02*
X0169808Y0249001D01*
X0168444Y0247402D02*
X0171406Y0247402D01*
X0170042Y0245804D02*
X0173005Y0245804D01*
X0171641Y0244205D02*
X0174603Y0244205D01*
X0173240Y0242607D02*
X0176202Y0242607D01*
X0174838Y0241008D02*
X0177800Y0241008D01*
X0176437Y0239410D02*
X0179399Y0239410D01*
X0177498Y0237811D02*
X0181462Y0237811D01*
X0177514Y0236213D02*
X0190566Y0236213D01*
X0174914Y0237255D02*
X0174914Y0231786D01*
X0174914Y0237255D02*
X0153304Y0258865D01*
X0153304Y0267338D01*
X0141965Y0264986D02*
X0129177Y0264986D01*
X0128679Y0266585D02*
X0140580Y0266585D01*
X0140482Y0268183D02*
X0129177Y0268183D01*
X0125177Y0263388D02*
X0090970Y0263388D01*
X0090970Y0264986D02*
X0106876Y0264986D01*
X0106170Y0266585D02*
X0090469Y0266585D01*
X0090610Y0266443D02*
X0090275Y0266778D01*
X0089865Y0267015D01*
X0089407Y0267138D01*
X0086770Y0267138D01*
X0086770Y0259888D01*
X0090970Y0259888D01*
X0090970Y0265575D01*
X0090847Y0266032D01*
X0090610Y0266443D01*
X0086770Y0266585D02*
X0085170Y0266585D01*
X0085170Y0264986D02*
X0086770Y0264986D01*
X0086770Y0263388D02*
X0085170Y0263388D01*
X0085170Y0261789D02*
X0086770Y0261789D01*
X0086770Y0260191D02*
X0085170Y0260191D01*
X0086770Y0258592D02*
X0106170Y0258592D01*
X0106170Y0260191D02*
X0090970Y0260191D01*
X0090970Y0261789D02*
X0106441Y0261789D01*
X0111095Y0261789D02*
X0111245Y0261789D01*
X0111245Y0260191D02*
X0111095Y0260191D01*
X0111095Y0258592D02*
X0111245Y0258592D01*
X0111245Y0256994D02*
X0111095Y0256994D01*
X0106199Y0256994D02*
X0090970Y0256994D01*
X0090970Y0258288D02*
X0086770Y0258288D01*
X0086770Y0251038D01*
X0089407Y0251038D01*
X0089865Y0251160D01*
X0090275Y0251397D01*
X0090610Y0251732D01*
X0090847Y0252143D01*
X0090970Y0252601D01*
X0090970Y0258288D01*
X0086770Y0256994D02*
X0085170Y0256994D01*
X0085170Y0255395D02*
X0086770Y0255395D01*
X0086770Y0253797D02*
X0085170Y0253797D01*
X0085170Y0252198D02*
X0086770Y0252198D01*
X0090862Y0252198D02*
X0106170Y0252198D01*
X0106170Y0250599D02*
X0081216Y0250599D01*
X0081216Y0249001D02*
X0106170Y0249001D01*
X0106259Y0247402D02*
X0081216Y0247402D01*
X0081216Y0245804D02*
X0095859Y0245804D01*
X0094182Y0244205D02*
X0081216Y0244205D01*
X0081216Y0242607D02*
X0094024Y0242607D01*
X0094024Y0241008D02*
X0081216Y0241008D01*
X0081216Y0239410D02*
X0094024Y0239410D01*
X0094024Y0237811D02*
X0081216Y0237811D01*
X0081216Y0236213D02*
X0094024Y0236213D01*
X0094024Y0234614D02*
X0081216Y0234614D01*
X0091558Y0233016D02*
X0094024Y0233016D01*
X0094024Y0231417D02*
X0093554Y0231417D01*
X0105544Y0236067D02*
X0113528Y0235957D01*
X0118690Y0235957D01*
X0150186Y0235957D01*
X0150186Y0228122D02*
X0134421Y0228122D01*
X0132244Y0225945D01*
X0118690Y0225945D01*
X0118690Y0225957D01*
X0113528Y0225957D01*
X0105544Y0226067D01*
X0150186Y0220248D02*
X0157331Y0220248D01*
X0157331Y0168673D01*
X0157451Y0168673D01*
X0157338Y0168204D01*
X0161451Y0168673D02*
X0161387Y0160162D01*
X0161387Y0157993D01*
X0166843Y0157993D01*
X0168090Y0159240D01*
X0166843Y0157993D02*
X0166843Y0153717D01*
X0167516Y0153044D01*
X0167516Y0144413D01*
X0160116Y0144413D02*
X0159621Y0143918D01*
X0153911Y0143918D01*
X0160116Y0144413D02*
X0160116Y0152990D01*
X0160843Y0153717D01*
X0161387Y0157993D02*
X0162992Y0157990D01*
X0157884Y0157988D01*
X0150221Y0157972D01*
X0143221Y0153715D01*
X0143221Y0145322D01*
X0143735Y0144808D01*
X0137221Y0145694D02*
X0136335Y0144808D01*
X0128096Y0136569D01*
X0128096Y0119758D01*
X0133703Y0114151D01*
X0133926Y0113949D01*
X0141614Y0108332D02*
X0156400Y0108332D01*
X0156400Y0106733D02*
X0141607Y0106733D01*
X0140813Y0105135D02*
X0156601Y0105135D01*
X0160200Y0103536D02*
X0104098Y0103536D01*
X0104503Y0105135D02*
X0120112Y0105135D01*
X0119326Y0106733D02*
X0106083Y0106733D01*
X0106684Y0108332D02*
X0119325Y0108332D01*
X0119325Y0109930D02*
X0106713Y0109930D01*
X0106178Y0111529D02*
X0119324Y0111529D01*
X0119323Y0113128D02*
X0104759Y0113128D01*
X0103654Y0114726D02*
X0119322Y0114726D01*
X0119322Y0116325D02*
X0105791Y0116325D01*
X0106589Y0117923D02*
X0119321Y0117923D01*
X0119320Y0119522D02*
X0106765Y0119522D01*
X0106386Y0121120D02*
X0119319Y0121120D01*
X0119319Y0122719D02*
X0105259Y0122719D01*
X0105445Y0125916D02*
X0119317Y0125916D01*
X0119318Y0124317D02*
X0081216Y0124317D01*
X0085970Y0122719D02*
X0086370Y0122719D01*
X0086370Y0121120D02*
X0085970Y0121120D01*
X0085970Y0119522D02*
X0086370Y0119522D01*
X0086370Y0117923D02*
X0085970Y0117923D01*
X0085970Y0116325D02*
X0086370Y0116325D01*
X0086370Y0114726D02*
X0085970Y0114726D01*
X0085970Y0113128D02*
X0086370Y0113128D01*
X0086370Y0111529D02*
X0085970Y0111529D01*
X0085970Y0109930D02*
X0086370Y0109930D01*
X0086370Y0108332D02*
X0085970Y0108332D01*
X0085970Y0106733D02*
X0086370Y0106733D01*
X0086370Y0105135D02*
X0085970Y0105135D01*
X0091302Y0103536D02*
X0093833Y0103536D01*
X0093427Y0105135D02*
X0091708Y0105135D01*
X0098765Y0105135D02*
X0099165Y0105135D01*
X0099165Y0106733D02*
X0098765Y0106733D01*
X0098765Y0108332D02*
X0099165Y0108332D01*
X0099165Y0109930D02*
X0098765Y0109930D01*
X0098765Y0111529D02*
X0099165Y0111529D01*
X0099165Y0113128D02*
X0098765Y0113128D01*
X0098765Y0114726D02*
X0099165Y0114726D01*
X0099165Y0116325D02*
X0098765Y0116325D01*
X0098765Y0117923D02*
X0099165Y0117923D01*
X0099165Y0119522D02*
X0098765Y0119522D01*
X0098765Y0121120D02*
X0099165Y0121120D01*
X0099165Y0122719D02*
X0098765Y0122719D01*
X0092671Y0122719D02*
X0092464Y0122719D01*
X0090859Y0114726D02*
X0094276Y0114726D01*
X0093171Y0113128D02*
X0091964Y0113128D01*
X0081481Y0114726D02*
X0081216Y0114726D01*
X0092278Y0095544D02*
X0092857Y0095544D01*
X0081216Y0093945D02*
X0115708Y0093945D01*
X0115670Y0093983D02*
X0118341Y0091312D01*
X0122118Y0091312D01*
X0124790Y0093983D01*
X0124790Y0097761D01*
X0122118Y0100432D01*
X0118341Y0100432D01*
X0115670Y0097761D01*
X0115670Y0093983D01*
X0115670Y0095544D02*
X0105073Y0095544D01*
X0106298Y0097142D02*
X0115670Y0097142D01*
X0116650Y0098741D02*
X0106765Y0098741D01*
X0106699Y0100339D02*
X0118249Y0100339D01*
X0122211Y0100339D02*
X0128254Y0100339D01*
X0128346Y0100432D02*
X0125675Y0097761D01*
X0125675Y0093983D01*
X0128346Y0091312D01*
X0132124Y0091312D01*
X0134795Y0093983D01*
X0134795Y0097761D01*
X0132124Y0100432D01*
X0128346Y0100432D01*
X0126656Y0098741D02*
X0123809Y0098741D01*
X0124790Y0097142D02*
X0125675Y0097142D01*
X0125675Y0095544D02*
X0124790Y0095544D01*
X0124752Y0093945D02*
X0125713Y0093945D01*
X0127312Y0092347D02*
X0123153Y0092347D01*
X0122233Y0090786D02*
X0118455Y0090786D01*
X0115784Y0088115D01*
X0115784Y0084337D01*
X0118455Y0081666D01*
X0122233Y0081666D01*
X0124904Y0084337D01*
X0124904Y0088115D01*
X0122233Y0090786D01*
X0122271Y0090748D02*
X0128423Y0090748D01*
X0128461Y0090786D02*
X0125790Y0088115D01*
X0125790Y0084337D01*
X0128461Y0081666D01*
X0132238Y0081666D01*
X0134909Y0084337D01*
X0134909Y0088115D01*
X0132238Y0090786D01*
X0128461Y0090786D01*
X0126825Y0089150D02*
X0123869Y0089150D01*
X0124904Y0087551D02*
X0125790Y0087551D01*
X0125790Y0085953D02*
X0124904Y0085953D01*
X0124904Y0084354D02*
X0125790Y0084354D01*
X0127371Y0082756D02*
X0123322Y0082756D01*
X0123439Y0079559D02*
X0127223Y0079559D01*
X0128445Y0080781D02*
X0125773Y0078110D01*
X0125773Y0074332D01*
X0128445Y0071661D01*
X0132222Y0071661D01*
X0134893Y0074332D01*
X0134893Y0078110D01*
X0132222Y0080781D01*
X0128445Y0080781D01*
X0125773Y0077960D02*
X0124888Y0077960D01*
X0124888Y0076362D02*
X0125773Y0076362D01*
X0125773Y0074763D02*
X0124888Y0074763D01*
X0123720Y0073165D02*
X0126941Y0073165D01*
X0128412Y0070841D02*
X0125741Y0068170D01*
X0125741Y0064392D01*
X0128412Y0061721D01*
X0132189Y0061721D01*
X0134860Y0064392D01*
X0134860Y0068170D01*
X0132189Y0070841D01*
X0128412Y0070841D01*
X0127539Y0069968D02*
X0123024Y0069968D01*
X0124623Y0068369D02*
X0125940Y0068369D01*
X0125741Y0066771D02*
X0124839Y0066771D01*
X0124839Y0065172D02*
X0125741Y0065172D01*
X0126559Y0063574D02*
X0124036Y0063574D01*
X0122438Y0061975D02*
X0128158Y0061975D01*
X0128390Y0060820D02*
X0125719Y0058149D01*
X0125719Y0054371D01*
X0128390Y0051700D01*
X0132168Y0051700D01*
X0134839Y0054371D01*
X0134839Y0058149D01*
X0132168Y0060820D01*
X0128390Y0060820D01*
X0127947Y0060377D02*
X0122620Y0060377D01*
X0122177Y0060820D02*
X0118399Y0060820D01*
X0115728Y0058149D01*
X0115728Y0054371D01*
X0118399Y0051700D01*
X0122177Y0051700D01*
X0124848Y0054371D01*
X0124848Y0058149D01*
X0122177Y0060820D01*
X0124218Y0058778D02*
X0126349Y0058778D01*
X0125719Y0057180D02*
X0124848Y0057180D01*
X0124848Y0055581D02*
X0125719Y0055581D01*
X0126108Y0053983D02*
X0124460Y0053983D01*
X0122861Y0052384D02*
X0127706Y0052384D01*
X0128526Y0050806D02*
X0125855Y0048135D01*
X0125855Y0044358D01*
X0128526Y0041687D01*
X0132304Y0041687D01*
X0134975Y0044358D01*
X0134975Y0048135D01*
X0132304Y0050806D01*
X0128526Y0050806D01*
X0128506Y0050786D02*
X0122288Y0050786D01*
X0122279Y0050795D02*
X0118502Y0050795D01*
X0115831Y0048124D01*
X0115831Y0044346D01*
X0118502Y0041675D01*
X0122279Y0041675D01*
X0124950Y0044346D01*
X0124950Y0048124D01*
X0122279Y0050795D01*
X0123887Y0049187D02*
X0126907Y0049187D01*
X0125855Y0047589D02*
X0124950Y0047589D01*
X0124950Y0045990D02*
X0125855Y0045990D01*
X0125855Y0044392D02*
X0124950Y0044392D01*
X0123397Y0042793D02*
X0127420Y0042793D01*
X0128506Y0040766D02*
X0125835Y0038095D01*
X0125835Y0034318D01*
X0128506Y0031647D01*
X0132283Y0031647D01*
X0134955Y0034318D01*
X0134955Y0038095D01*
X0132283Y0040766D01*
X0128506Y0040766D01*
X0127336Y0039596D02*
X0123465Y0039596D01*
X0122279Y0040782D02*
X0118502Y0040782D01*
X0115831Y0038110D01*
X0115831Y0034333D01*
X0118502Y0031662D01*
X0122279Y0031662D01*
X0124950Y0034333D01*
X0124950Y0038110D01*
X0122279Y0040782D01*
X0124950Y0037997D02*
X0125835Y0037997D01*
X0125835Y0036399D02*
X0124950Y0036399D01*
X0124950Y0034800D02*
X0125835Y0034800D01*
X0126951Y0033202D02*
X0123819Y0033202D01*
X0122302Y0030802D02*
X0118524Y0030802D01*
X0115853Y0028131D01*
X0115853Y0024354D01*
X0118524Y0021683D01*
X0122302Y0021683D01*
X0124973Y0024354D01*
X0124973Y0028131D01*
X0122302Y0030802D01*
X0123099Y0030005D02*
X0127733Y0030005D01*
X0128485Y0030756D02*
X0125813Y0028085D01*
X0125813Y0024307D01*
X0128485Y0021636D01*
X0132262Y0021636D01*
X0134933Y0024307D01*
X0134933Y0028085D01*
X0132262Y0030756D01*
X0128485Y0030756D01*
X0126135Y0028406D02*
X0124698Y0028406D01*
X0124973Y0026808D02*
X0125813Y0026808D01*
X0125813Y0025209D02*
X0124973Y0025209D01*
X0124230Y0023611D02*
X0126510Y0023611D01*
X0128109Y0022012D02*
X0122632Y0022012D01*
X0118195Y0022012D02*
X0116085Y0022012D01*
X0116478Y0020414D02*
X0170709Y0020414D01*
X0170709Y0018815D02*
X0116478Y0018815D01*
X0116314Y0017217D02*
X0170709Y0017217D01*
X0171661Y0015618D02*
X0115885Y0015618D01*
X0115520Y0023611D02*
X0116596Y0023611D01*
X0115853Y0025209D02*
X0114597Y0025209D01*
X0115853Y0026808D02*
X0113130Y0026808D01*
X0110823Y0028406D02*
X0116128Y0028406D01*
X0117727Y0030005D02*
X0106765Y0030005D01*
X0106175Y0031603D02*
X0171187Y0031603D01*
X0170709Y0030005D02*
X0143045Y0030005D01*
X0142283Y0030766D02*
X0138506Y0030766D01*
X0135835Y0028095D01*
X0135835Y0024318D01*
X0138506Y0021647D01*
X0142283Y0021647D01*
X0144955Y0024318D01*
X0144955Y0028095D01*
X0142283Y0030766D01*
X0142408Y0031616D02*
X0138631Y0031616D01*
X0135960Y0034288D01*
X0135960Y0038065D01*
X0138631Y0040736D01*
X0142408Y0040736D01*
X0145079Y0038065D01*
X0145079Y0034288D01*
X0142408Y0031616D01*
X0143994Y0033202D02*
X0147025Y0033202D01*
X0145950Y0034276D02*
X0148622Y0031605D01*
X0152399Y0031605D01*
X0155070Y0034276D01*
X0155070Y0038054D01*
X0152399Y0040725D01*
X0148622Y0040725D01*
X0145950Y0038054D01*
X0145950Y0034276D01*
X0145950Y0034800D02*
X0145079Y0034800D01*
X0145079Y0036399D02*
X0145950Y0036399D01*
X0145950Y0037997D02*
X0145079Y0037997D01*
X0143548Y0039596D02*
X0147493Y0039596D01*
X0148610Y0041630D02*
X0152388Y0041630D01*
X0155059Y0044301D01*
X0155059Y0048078D01*
X0152388Y0050750D01*
X0148610Y0050750D01*
X0145939Y0048078D01*
X0145939Y0044301D01*
X0148610Y0041630D01*
X0147447Y0042793D02*
X0143549Y0042793D01*
X0142374Y0041618D02*
X0145045Y0044290D01*
X0145045Y0048067D01*
X0142374Y0050738D01*
X0138597Y0050738D01*
X0135926Y0048067D01*
X0135926Y0044290D01*
X0138597Y0041618D01*
X0142374Y0041618D01*
X0145045Y0044392D02*
X0145939Y0044392D01*
X0145939Y0045990D02*
X0145045Y0045990D01*
X0145045Y0047589D02*
X0145939Y0047589D01*
X0147048Y0049187D02*
X0143925Y0049187D01*
X0142170Y0051723D02*
X0138392Y0051723D01*
X0135721Y0054394D01*
X0135721Y0058171D01*
X0138392Y0060842D01*
X0142170Y0060842D01*
X0144841Y0058171D01*
X0144841Y0054394D01*
X0142170Y0051723D01*
X0142831Y0052384D02*
X0147733Y0052384D01*
X0148406Y0051711D02*
X0152183Y0051711D01*
X0154854Y0054382D01*
X0154854Y0058160D01*
X0152183Y0060831D01*
X0148406Y0060831D01*
X0145735Y0058160D01*
X0145735Y0054382D01*
X0148406Y0051711D01*
X0146134Y0053983D02*
X0144430Y0053983D01*
X0144841Y0055581D02*
X0145735Y0055581D01*
X0145735Y0057180D02*
X0144841Y0057180D01*
X0144234Y0058778D02*
X0146353Y0058778D01*
X0147951Y0060377D02*
X0142636Y0060377D01*
X0142178Y0061721D02*
X0144849Y0064392D01*
X0144849Y0068170D01*
X0142178Y0070841D01*
X0138401Y0070841D01*
X0135730Y0068170D01*
X0135730Y0064392D01*
X0138401Y0061721D01*
X0142178Y0061721D01*
X0142432Y0061975D02*
X0148152Y0061975D01*
X0148406Y0061721D02*
X0152184Y0061721D01*
X0154855Y0064392D01*
X0154855Y0068170D01*
X0152184Y0070841D01*
X0148406Y0070841D01*
X0145735Y0068170D01*
X0145735Y0064392D01*
X0148406Y0061721D01*
X0146554Y0063574D02*
X0144031Y0063574D01*
X0144849Y0065172D02*
X0145735Y0065172D01*
X0145735Y0066771D02*
X0144849Y0066771D01*
X0144650Y0068369D02*
X0145935Y0068369D01*
X0147533Y0069968D02*
X0143051Y0069968D01*
X0142211Y0071645D02*
X0138434Y0071645D01*
X0135763Y0074316D01*
X0135763Y0078093D01*
X0138434Y0080764D01*
X0142211Y0080764D01*
X0144882Y0078093D01*
X0144882Y0074316D01*
X0142211Y0071645D01*
X0143731Y0073165D02*
X0146903Y0073165D01*
X0145752Y0074316D02*
X0148423Y0071645D01*
X0152200Y0071645D01*
X0154871Y0074316D01*
X0154871Y0078093D01*
X0152200Y0080764D01*
X0148423Y0080764D01*
X0145752Y0078093D01*
X0145752Y0074316D01*
X0145752Y0074763D02*
X0144882Y0074763D01*
X0144882Y0076362D02*
X0145752Y0076362D01*
X0145752Y0077960D02*
X0144882Y0077960D01*
X0143417Y0079559D02*
X0147217Y0079559D01*
X0148439Y0081666D02*
X0152217Y0081666D01*
X0154888Y0084337D01*
X0154888Y0088115D01*
X0152217Y0090786D01*
X0148439Y0090786D01*
X0145768Y0088115D01*
X0145768Y0084337D01*
X0148439Y0081666D01*
X0147350Y0082756D02*
X0143333Y0082756D01*
X0142227Y0081650D02*
X0144899Y0084321D01*
X0144899Y0088099D01*
X0142227Y0090770D01*
X0138450Y0090770D01*
X0135779Y0088099D01*
X0135779Y0084321D01*
X0138450Y0081650D01*
X0142227Y0081650D01*
X0144899Y0084354D02*
X0145768Y0084354D01*
X0145768Y0085953D02*
X0144899Y0085953D01*
X0144899Y0087551D02*
X0145768Y0087551D01*
X0146803Y0089150D02*
X0143847Y0089150D01*
X0142249Y0090748D02*
X0148401Y0090748D01*
X0148357Y0091328D02*
X0152135Y0091328D01*
X0154806Y0094000D01*
X0154806Y0097777D01*
X0152135Y0100448D01*
X0148357Y0100448D01*
X0145686Y0097777D01*
X0145686Y0094000D01*
X0148357Y0091328D01*
X0147339Y0092347D02*
X0143164Y0092347D01*
X0142129Y0091312D02*
X0138352Y0091312D01*
X0135681Y0093983D01*
X0135681Y0097761D01*
X0138352Y0100432D01*
X0142129Y0100432D01*
X0144800Y0097761D01*
X0144800Y0093983D01*
X0142129Y0091312D01*
X0144763Y0093945D02*
X0145740Y0093945D01*
X0145686Y0095544D02*
X0144800Y0095544D01*
X0144800Y0097142D02*
X0145686Y0097142D01*
X0146650Y0098741D02*
X0143820Y0098741D01*
X0142222Y0100339D02*
X0148249Y0100339D01*
X0152243Y0100339D02*
X0158270Y0100339D01*
X0158346Y0100415D02*
X0155675Y0097744D01*
X0155675Y0093967D01*
X0158346Y0091296D01*
X0162124Y0091296D01*
X0164795Y0093967D01*
X0164795Y0097744D01*
X0162124Y0100415D01*
X0158346Y0100415D01*
X0156672Y0098741D02*
X0153842Y0098741D01*
X0154806Y0097142D02*
X0155675Y0097142D01*
X0155675Y0095544D02*
X0154806Y0095544D01*
X0154752Y0093945D02*
X0155697Y0093945D01*
X0157295Y0092347D02*
X0153153Y0092347D01*
X0152254Y0090748D02*
X0158407Y0090748D01*
X0158444Y0090786D02*
X0155773Y0088115D01*
X0155773Y0084337D01*
X0158444Y0081666D01*
X0162222Y0081666D01*
X0164893Y0084337D01*
X0164893Y0088115D01*
X0162222Y0090786D01*
X0158444Y0090786D01*
X0156808Y0089150D02*
X0153853Y0089150D01*
X0154888Y0087551D02*
X0155773Y0087551D01*
X0155773Y0085953D02*
X0154888Y0085953D01*
X0154888Y0084354D02*
X0155773Y0084354D01*
X0157355Y0082756D02*
X0153306Y0082756D01*
X0153406Y0079559D02*
X0157223Y0079559D01*
X0158444Y0080781D02*
X0155773Y0078110D01*
X0155773Y0074332D01*
X0158444Y0071661D01*
X0162222Y0071661D01*
X0164893Y0074332D01*
X0164893Y0078110D01*
X0162222Y0080781D01*
X0158444Y0080781D01*
X0155773Y0077960D02*
X0154871Y0077960D01*
X0154871Y0076362D02*
X0155773Y0076362D01*
X0155773Y0074763D02*
X0154871Y0074763D01*
X0153720Y0073165D02*
X0156941Y0073165D01*
X0158428Y0070841D02*
X0155757Y0068170D01*
X0155757Y0064392D01*
X0158428Y0061721D01*
X0162206Y0061721D01*
X0164877Y0064392D01*
X0164877Y0068170D01*
X0162206Y0070841D01*
X0158428Y0070841D01*
X0157555Y0069968D02*
X0153057Y0069968D01*
X0154655Y0068369D02*
X0155957Y0068369D01*
X0155757Y0066771D02*
X0154855Y0066771D01*
X0154855Y0065172D02*
X0155757Y0065172D01*
X0156576Y0063574D02*
X0154036Y0063574D01*
X0152438Y0061975D02*
X0158174Y0061975D01*
X0158397Y0060831D02*
X0155725Y0058160D01*
X0155725Y0054382D01*
X0158397Y0051711D01*
X0162174Y0051711D01*
X0164845Y0054382D01*
X0164845Y0058160D01*
X0162174Y0060831D01*
X0158397Y0060831D01*
X0157942Y0060377D02*
X0152638Y0060377D01*
X0154236Y0058778D02*
X0156344Y0058778D01*
X0155725Y0057180D02*
X0154854Y0057180D01*
X0154854Y0055581D02*
X0155725Y0055581D01*
X0156125Y0053983D02*
X0154455Y0053983D01*
X0152856Y0052384D02*
X0157724Y0052384D01*
X0158612Y0050727D02*
X0155941Y0048056D01*
X0155941Y0044278D01*
X0158612Y0041607D01*
X0162390Y0041607D01*
X0165061Y0044278D01*
X0165061Y0048056D01*
X0162390Y0050727D01*
X0158612Y0050727D01*
X0157073Y0049187D02*
X0153950Y0049187D01*
X0155059Y0047589D02*
X0155941Y0047589D01*
X0155941Y0045990D02*
X0155059Y0045990D01*
X0155059Y0044392D02*
X0155941Y0044392D01*
X0157426Y0042793D02*
X0153551Y0042793D01*
X0153528Y0039596D02*
X0157472Y0039596D01*
X0158601Y0040725D02*
X0155930Y0038054D01*
X0155930Y0034276D01*
X0158601Y0031605D01*
X0162378Y0031605D01*
X0165050Y0034276D01*
X0165050Y0038054D01*
X0162378Y0040725D01*
X0158601Y0040725D01*
X0155930Y0037997D02*
X0155070Y0037997D01*
X0155070Y0036399D02*
X0155930Y0036399D01*
X0155930Y0034800D02*
X0155070Y0034800D01*
X0153996Y0033202D02*
X0157004Y0033202D01*
X0163975Y0033202D02*
X0172785Y0033202D01*
X0170709Y0028406D02*
X0144643Y0028406D01*
X0144955Y0026808D02*
X0170709Y0026808D01*
X0172070Y0025209D02*
X0144955Y0025209D01*
X0144248Y0023611D02*
X0173194Y0023611D01*
X0171596Y0022012D02*
X0142649Y0022012D01*
X0138140Y0022012D02*
X0132638Y0022012D01*
X0134237Y0023611D02*
X0136542Y0023611D01*
X0135835Y0025209D02*
X0134933Y0025209D01*
X0134933Y0026808D02*
X0135835Y0026808D01*
X0136146Y0028406D02*
X0134612Y0028406D01*
X0133013Y0030005D02*
X0137744Y0030005D01*
X0137045Y0033202D02*
X0133839Y0033202D01*
X0134955Y0034800D02*
X0135960Y0034800D01*
X0135960Y0036399D02*
X0134955Y0036399D01*
X0134955Y0037997D02*
X0135960Y0037997D01*
X0137491Y0039596D02*
X0133454Y0039596D01*
X0133410Y0042793D02*
X0137422Y0042793D01*
X0135926Y0044392D02*
X0134975Y0044392D01*
X0134975Y0045990D02*
X0135926Y0045990D01*
X0135926Y0047589D02*
X0134975Y0047589D01*
X0133923Y0049187D02*
X0137046Y0049187D01*
X0137731Y0052384D02*
X0132852Y0052384D01*
X0132325Y0050786D02*
X0204730Y0050786D01*
X0204735Y0052384D02*
X0202844Y0052384D01*
X0204442Y0053983D02*
X0204739Y0053983D01*
X0207343Y0055384D02*
X0207330Y0050626D01*
X0207330Y0031874D01*
X0219182Y0031874D01*
X0225014Y0031873D01*
X0225014Y0024649D01*
X0248297Y0024649D01*
X0248297Y0038179D01*
X0246036Y0038179D01*
X0246174Y0038041D01*
X0256627Y0039399D02*
X0246174Y0049852D01*
X0256627Y0039399D02*
X0263206Y0039399D01*
X0225701Y0038041D02*
X0211861Y0038041D01*
X0211861Y0038131D01*
X0204730Y0037997D02*
X0165050Y0037997D01*
X0165050Y0036399D02*
X0204730Y0036399D01*
X0204730Y0034800D02*
X0165050Y0034800D01*
X0163507Y0039596D02*
X0204730Y0039596D01*
X0204730Y0041195D02*
X0106345Y0041195D01*
X0106765Y0039596D02*
X0117316Y0039596D01*
X0115831Y0037997D02*
X0106652Y0037997D01*
X0105928Y0036399D02*
X0115831Y0036399D01*
X0115831Y0034800D02*
X0103828Y0034800D01*
X0104776Y0033202D02*
X0116962Y0033202D01*
X0117384Y0042793D02*
X0105185Y0042793D01*
X0105519Y0045990D02*
X0115831Y0045990D01*
X0115831Y0044392D02*
X0081216Y0044392D01*
X0081216Y0053983D02*
X0082115Y0053983D01*
X0090225Y0053983D02*
X0094910Y0053983D01*
X0092820Y0055581D02*
X0092315Y0055581D01*
X0091213Y0063574D02*
X0093923Y0063574D01*
X0093229Y0065172D02*
X0091906Y0065172D01*
X0092018Y0073165D02*
X0093117Y0073165D01*
X0094192Y0074763D02*
X0090943Y0074763D01*
X0092427Y0082756D02*
X0092708Y0082756D01*
X0081216Y0084354D02*
X0115784Y0084354D01*
X0115784Y0085953D02*
X0081216Y0085953D01*
X0081216Y0087551D02*
X0115784Y0087551D01*
X0116819Y0089150D02*
X0081216Y0089150D01*
X0081216Y0090748D02*
X0118418Y0090748D01*
X0117306Y0092347D02*
X0081216Y0092347D01*
X0081216Y0074763D02*
X0081397Y0074763D01*
X0105222Y0082756D02*
X0117366Y0082756D01*
X0115935Y0068369D02*
X0106765Y0068369D01*
X0106144Y0066771D02*
X0115719Y0066771D01*
X0115719Y0065172D02*
X0104701Y0065172D01*
X0104008Y0063574D02*
X0116521Y0063574D01*
X0118120Y0061975D02*
X0106002Y0061975D01*
X0106683Y0060377D02*
X0117956Y0060377D01*
X0116358Y0058778D02*
X0106765Y0058778D01*
X0106314Y0057180D02*
X0115728Y0057180D01*
X0115728Y0055581D02*
X0105110Y0055581D01*
X0103021Y0053983D02*
X0116117Y0053983D01*
X0117715Y0052384D02*
X0105594Y0052384D01*
X0106514Y0050786D02*
X0118492Y0050786D01*
X0116894Y0049187D02*
X0106765Y0049187D01*
X0106483Y0047589D02*
X0115831Y0047589D01*
X0134450Y0053983D02*
X0136132Y0053983D01*
X0135721Y0055581D02*
X0134839Y0055581D01*
X0134839Y0057180D02*
X0135721Y0057180D01*
X0136328Y0058778D02*
X0134209Y0058778D01*
X0132611Y0060377D02*
X0137927Y0060377D01*
X0138147Y0061975D02*
X0132443Y0061975D01*
X0134042Y0063574D02*
X0136548Y0063574D01*
X0135730Y0065172D02*
X0134860Y0065172D01*
X0134860Y0066771D02*
X0135730Y0066771D01*
X0135929Y0068369D02*
X0134661Y0068369D01*
X0133062Y0069968D02*
X0137528Y0069968D01*
X0136914Y0073165D02*
X0133726Y0073165D01*
X0134893Y0074763D02*
X0135763Y0074763D01*
X0135763Y0076362D02*
X0134893Y0076362D01*
X0134893Y0077960D02*
X0135763Y0077960D01*
X0137228Y0079559D02*
X0133444Y0079559D01*
X0133328Y0082756D02*
X0137344Y0082756D01*
X0135779Y0084354D02*
X0134909Y0084354D01*
X0134909Y0085953D02*
X0135779Y0085953D01*
X0135779Y0087551D02*
X0134909Y0087551D01*
X0133875Y0089150D02*
X0136830Y0089150D01*
X0138429Y0090748D02*
X0132276Y0090748D01*
X0133159Y0092347D02*
X0137317Y0092347D01*
X0135719Y0093945D02*
X0134757Y0093945D01*
X0134795Y0095544D02*
X0135681Y0095544D01*
X0135681Y0097142D02*
X0134795Y0097142D01*
X0133815Y0098741D02*
X0136661Y0098741D01*
X0138260Y0100339D02*
X0132216Y0100339D01*
X0146696Y0109930D02*
X0151156Y0109930D01*
X0149557Y0111529D02*
X0148294Y0111529D01*
X0148726Y0113128D02*
X0149126Y0113128D01*
X0149126Y0114726D02*
X0148726Y0114726D01*
X0148338Y0116325D02*
X0149513Y0116325D01*
X0151112Y0117923D02*
X0146740Y0117923D01*
X0145015Y0121120D02*
X0156393Y0121120D01*
X0156396Y0119522D02*
X0143132Y0119522D01*
X0145520Y0122719D02*
X0156390Y0122719D01*
X0156387Y0124317D02*
X0145503Y0124317D01*
X0136960Y0126552D02*
X0136960Y0131986D01*
X0140035Y0135061D01*
X0140035Y0136208D01*
X0140035Y0133539D01*
X0148492Y0133539D01*
X0158994Y0127412D02*
X0161631Y0127444D01*
X0161469Y0126693D01*
X0161491Y0126693D01*
X0163946Y0121361D02*
X0163926Y0113949D01*
X0163946Y0121361D02*
X0167559Y0127335D01*
X0167559Y0132070D01*
X0163816Y0135813D01*
X0179967Y0139888D02*
X0179967Y0119615D01*
X0182742Y0116840D01*
X0183926Y0114153D01*
X0182135Y0100432D02*
X0178357Y0100432D01*
X0175686Y0097761D01*
X0175686Y0093983D01*
X0178357Y0091312D01*
X0182135Y0091312D01*
X0184806Y0093983D01*
X0184806Y0097761D01*
X0182135Y0100432D01*
X0182227Y0100339D02*
X0188270Y0100339D01*
X0188363Y0100432D02*
X0185692Y0097761D01*
X0185692Y0093983D01*
X0188363Y0091312D01*
X0192140Y0091312D01*
X0194811Y0093983D01*
X0194811Y0097761D01*
X0192140Y0100432D01*
X0188363Y0100432D01*
X0186672Y0098741D02*
X0183826Y0098741D01*
X0184806Y0097142D02*
X0185692Y0097142D01*
X0185692Y0095544D02*
X0184806Y0095544D01*
X0184768Y0093945D02*
X0185729Y0093945D01*
X0187328Y0092347D02*
X0183170Y0092347D01*
X0182216Y0090802D02*
X0178439Y0090802D01*
X0175768Y0088131D01*
X0175768Y0084354D01*
X0178439Y0081683D01*
X0182216Y0081683D01*
X0184888Y0084354D01*
X0184888Y0088131D01*
X0182216Y0090802D01*
X0182271Y0090748D02*
X0188407Y0090748D01*
X0188444Y0090786D02*
X0185773Y0088115D01*
X0185773Y0084337D01*
X0188444Y0081666D01*
X0192222Y0081666D01*
X0194893Y0084337D01*
X0194893Y0088115D01*
X0192222Y0090786D01*
X0188444Y0090786D01*
X0186808Y0089150D02*
X0183869Y0089150D01*
X0184888Y0087551D02*
X0185773Y0087551D01*
X0185773Y0085953D02*
X0184888Y0085953D01*
X0184888Y0084354D02*
X0185773Y0084354D01*
X0187355Y0082756D02*
X0183290Y0082756D01*
X0182216Y0080764D02*
X0184888Y0078093D01*
X0184888Y0074316D01*
X0182216Y0071645D01*
X0178439Y0071645D01*
X0175768Y0074316D01*
X0175768Y0078093D01*
X0178439Y0080764D01*
X0182216Y0080764D01*
X0183422Y0079559D02*
X0187239Y0079559D01*
X0188461Y0080781D02*
X0185790Y0078110D01*
X0185790Y0074332D01*
X0188461Y0071661D01*
X0192238Y0071661D01*
X0194909Y0074332D01*
X0194909Y0078110D01*
X0192238Y0080781D01*
X0188461Y0080781D01*
X0185790Y0077960D02*
X0184888Y0077960D01*
X0184888Y0076362D02*
X0185790Y0076362D01*
X0185790Y0074763D02*
X0184888Y0074763D01*
X0183737Y0073165D02*
X0186957Y0073165D01*
X0188428Y0070857D02*
X0185757Y0068186D01*
X0185757Y0064409D01*
X0188428Y0061737D01*
X0192206Y0061737D01*
X0194877Y0064409D01*
X0194877Y0068186D01*
X0192206Y0070857D01*
X0188428Y0070857D01*
X0187539Y0069968D02*
X0183073Y0069968D01*
X0182200Y0070841D02*
X0184871Y0068170D01*
X0184871Y0064392D01*
X0182200Y0061721D01*
X0178423Y0061721D01*
X0175752Y0064392D01*
X0175752Y0068170D01*
X0178423Y0070841D01*
X0182200Y0070841D01*
X0184672Y0068369D02*
X0185940Y0068369D01*
X0185757Y0066771D02*
X0184871Y0066771D01*
X0184871Y0065172D02*
X0185757Y0065172D01*
X0186592Y0063574D02*
X0184053Y0063574D01*
X0182454Y0061975D02*
X0188190Y0061975D01*
X0188414Y0060842D02*
X0185743Y0058171D01*
X0185743Y0054394D01*
X0188414Y0051723D01*
X0192192Y0051723D01*
X0194863Y0054394D01*
X0194863Y0058171D01*
X0192192Y0060842D01*
X0188414Y0060842D01*
X0187949Y0060377D02*
X0182633Y0060377D01*
X0182178Y0060831D02*
X0184849Y0058160D01*
X0184849Y0054382D01*
X0182178Y0051711D01*
X0178401Y0051711D01*
X0175730Y0054382D01*
X0175730Y0058160D01*
X0178401Y0060831D01*
X0182178Y0060831D01*
X0184231Y0058778D02*
X0186350Y0058778D01*
X0185743Y0057180D02*
X0184849Y0057180D01*
X0184849Y0055581D02*
X0185743Y0055581D01*
X0186154Y0053983D02*
X0184450Y0053983D01*
X0182851Y0052384D02*
X0187753Y0052384D01*
X0192853Y0052384D02*
X0197698Y0052384D01*
X0196100Y0053983D02*
X0194452Y0053983D01*
X0194863Y0055581D02*
X0195711Y0055581D01*
X0195711Y0057180D02*
X0194863Y0057180D01*
X0194256Y0058778D02*
X0196341Y0058778D01*
X0197939Y0060377D02*
X0192657Y0060377D01*
X0192443Y0061975D02*
X0198130Y0061975D01*
X0196532Y0063574D02*
X0194042Y0063574D01*
X0194877Y0065172D02*
X0195713Y0065172D01*
X0195713Y0066771D02*
X0194877Y0066771D01*
X0194693Y0068369D02*
X0195913Y0068369D01*
X0197511Y0069968D02*
X0193095Y0069968D01*
X0193742Y0073165D02*
X0196962Y0073165D01*
X0195779Y0074763D02*
X0194909Y0074763D01*
X0194909Y0076362D02*
X0195779Y0076362D01*
X0195779Y0077960D02*
X0194909Y0077960D01*
X0193460Y0079559D02*
X0197212Y0079559D01*
X0197360Y0082756D02*
X0193311Y0082756D01*
X0194893Y0084354D02*
X0195779Y0084354D01*
X0195779Y0085953D02*
X0194893Y0085953D01*
X0194893Y0087551D02*
X0195779Y0087551D01*
X0196814Y0089150D02*
X0193858Y0089150D01*
X0192260Y0090748D02*
X0198412Y0090748D01*
X0197333Y0092347D02*
X0193175Y0092347D01*
X0194773Y0093945D02*
X0195735Y0093945D01*
X0195697Y0095544D02*
X0194811Y0095544D01*
X0194811Y0097142D02*
X0195697Y0097142D01*
X0196677Y0098741D02*
X0193831Y0098741D01*
X0192232Y0100339D02*
X0198276Y0100339D01*
X0216484Y0109930D02*
X0217470Y0109930D01*
X0232222Y0100339D02*
X0247725Y0100339D01*
X0247716Y0098741D02*
X0233820Y0098741D01*
X0234817Y0097142D02*
X0247707Y0097142D01*
X0247699Y0095544D02*
X0234817Y0095544D01*
X0234795Y0093945D02*
X0247690Y0093945D01*
X0247681Y0092347D02*
X0233197Y0092347D01*
X0232265Y0090748D02*
X0247672Y0090748D01*
X0247663Y0089150D02*
X0233864Y0089150D01*
X0234898Y0087551D02*
X0247654Y0087551D01*
X0247645Y0085953D02*
X0234898Y0085953D01*
X0234898Y0084354D02*
X0247636Y0084354D01*
X0247627Y0082756D02*
X0233317Y0082756D01*
X0247734Y0101938D02*
X0106037Y0101938D01*
X0136960Y0126552D02*
X0136903Y0127335D01*
X0137221Y0145694D02*
X0137221Y0153715D01*
X0150221Y0157972D02*
X0150186Y0180878D01*
X0170765Y0191892D02*
X0171568Y0191090D01*
X0170765Y0191892D02*
X0170765Y0203179D01*
X0170908Y0206476D01*
X0184866Y0196013D02*
X0196471Y0196013D01*
X0190717Y0191245D02*
X0190717Y0191203D01*
X0180004Y0191203D01*
X0190407Y0191245D02*
X0190717Y0191245D01*
X0191960Y0159240D02*
X0201821Y0159233D01*
X0215935Y0159233D01*
X0213706Y0143499D02*
X0212006Y0143499D01*
X0212006Y0141901D02*
X0213706Y0141901D01*
X0215844Y0130711D02*
X0218141Y0130711D01*
X0217392Y0129113D02*
X0216592Y0129113D01*
X0193943Y0124666D02*
X0192867Y0127335D01*
X0188161Y0127356D01*
X0188193Y0135813D01*
X0179967Y0139888D02*
X0184493Y0144413D01*
X0184493Y0153349D01*
X0185647Y0154503D01*
X0191647Y0154503D02*
X0191960Y0159240D01*
X0191893Y0144413D01*
X0168437Y0103536D02*
X0247743Y0103536D01*
X0269771Y0138704D02*
X0269856Y0138704D01*
X0269879Y0141901D02*
X0269080Y0141901D01*
X0280831Y0189856D02*
X0281022Y0189856D01*
X0206864Y0258291D02*
X0206864Y0262773D01*
X0201881Y0267756D01*
X0194928Y0267756D01*
X0191764Y0271380D02*
X0188093Y0271380D01*
X0186917Y0272556D02*
X0182940Y0272556D01*
X0180128Y0269745D01*
X0180128Y0265768D01*
X0182940Y0262956D01*
X0186917Y0262956D01*
X0189728Y0265768D01*
X0189728Y0269745D01*
X0186917Y0272556D01*
X0189691Y0269782D02*
X0190165Y0269782D01*
X0190128Y0268183D02*
X0189728Y0268183D01*
X0189728Y0266585D02*
X0190128Y0266585D01*
X0190910Y0264986D02*
X0188946Y0264986D01*
X0187348Y0263388D02*
X0192509Y0263388D01*
X0192173Y0261789D02*
X0187684Y0261789D01*
X0186917Y0262556D02*
X0182940Y0262556D01*
X0180128Y0259745D01*
X0180128Y0255768D01*
X0182940Y0252956D01*
X0186917Y0252956D01*
X0189728Y0255768D01*
X0189728Y0259745D01*
X0186917Y0262556D01*
X0189282Y0260191D02*
X0190574Y0260191D01*
X0190128Y0258592D02*
X0189728Y0258592D01*
X0189728Y0256994D02*
X0190128Y0256994D01*
X0190501Y0255395D02*
X0189355Y0255395D01*
X0187757Y0253797D02*
X0192100Y0253797D01*
X0182100Y0253797D02*
X0177757Y0253797D01*
X0179355Y0255395D02*
X0180501Y0255395D01*
X0180128Y0256994D02*
X0179728Y0256994D01*
X0179728Y0258592D02*
X0180128Y0258592D01*
X0180574Y0260191D02*
X0179282Y0260191D01*
X0177684Y0261789D02*
X0182173Y0261789D01*
X0182509Y0263388D02*
X0177348Y0263388D01*
X0178946Y0264986D02*
X0180910Y0264986D01*
X0180128Y0266585D02*
X0179728Y0266585D01*
X0179728Y0268183D02*
X0180128Y0268183D01*
X0180165Y0269782D02*
X0179691Y0269782D01*
X0178093Y0271380D02*
X0181764Y0271380D01*
X0198093Y0271380D02*
X0253898Y0271380D01*
X0202573Y0263388D02*
X0197348Y0263388D01*
X0198946Y0264986D02*
X0200974Y0264986D01*
X0178265Y0100339D02*
X0172205Y0100339D01*
X0172129Y0100415D02*
X0168352Y0100415D01*
X0165681Y0097744D01*
X0165681Y0093967D01*
X0168352Y0091296D01*
X0172129Y0091296D01*
X0174800Y0093967D01*
X0174800Y0097744D01*
X0172129Y0100415D01*
X0173804Y0098741D02*
X0176666Y0098741D01*
X0175686Y0097142D02*
X0174800Y0097142D01*
X0174800Y0095544D02*
X0175686Y0095544D01*
X0175724Y0093945D02*
X0174779Y0093945D01*
X0173180Y0092347D02*
X0177322Y0092347D01*
X0178385Y0090748D02*
X0172249Y0090748D01*
X0172227Y0090770D02*
X0168450Y0090770D01*
X0165779Y0088099D01*
X0165779Y0084321D01*
X0168450Y0081650D01*
X0172227Y0081650D01*
X0174898Y0084321D01*
X0174898Y0088099D01*
X0172227Y0090770D01*
X0173847Y0089150D02*
X0176786Y0089150D01*
X0175768Y0087551D02*
X0174898Y0087551D01*
X0174898Y0085953D02*
X0175768Y0085953D01*
X0175768Y0084354D02*
X0174898Y0084354D01*
X0173333Y0082756D02*
X0177366Y0082756D01*
X0177233Y0079559D02*
X0173449Y0079559D01*
X0172227Y0080781D02*
X0168450Y0080781D01*
X0165779Y0078110D01*
X0165779Y0074332D01*
X0168450Y0071661D01*
X0172227Y0071661D01*
X0174898Y0074332D01*
X0174898Y0078110D01*
X0172227Y0080781D01*
X0174898Y0077960D02*
X0175768Y0077960D01*
X0175768Y0076362D02*
X0174898Y0076362D01*
X0174898Y0074763D02*
X0175768Y0074763D01*
X0176919Y0073165D02*
X0173731Y0073165D01*
X0172162Y0070824D02*
X0168384Y0070824D01*
X0165713Y0068153D01*
X0165713Y0064376D01*
X0168384Y0061705D01*
X0172162Y0061705D01*
X0174833Y0064376D01*
X0174833Y0068153D01*
X0172162Y0070824D01*
X0173019Y0069968D02*
X0177550Y0069968D01*
X0175951Y0068369D02*
X0174617Y0068369D01*
X0174833Y0066771D02*
X0175752Y0066771D01*
X0175752Y0065172D02*
X0174833Y0065172D01*
X0174031Y0063574D02*
X0176570Y0063574D01*
X0178169Y0061975D02*
X0172432Y0061975D01*
X0172165Y0060854D02*
X0168387Y0060854D01*
X0165716Y0058183D01*
X0165716Y0054405D01*
X0168387Y0051734D01*
X0172165Y0051734D01*
X0174836Y0054405D01*
X0174836Y0058183D01*
X0172165Y0060854D01*
X0172642Y0060377D02*
X0177946Y0060377D01*
X0176348Y0058778D02*
X0174240Y0058778D01*
X0174836Y0057180D02*
X0175730Y0057180D01*
X0175730Y0055581D02*
X0174836Y0055581D01*
X0174413Y0053983D02*
X0176130Y0053983D01*
X0177728Y0052384D02*
X0172815Y0052384D01*
X0167737Y0052384D02*
X0162847Y0052384D01*
X0164445Y0053983D02*
X0166139Y0053983D01*
X0165716Y0055581D02*
X0164845Y0055581D01*
X0164845Y0057180D02*
X0165716Y0057180D01*
X0166312Y0058778D02*
X0164227Y0058778D01*
X0162628Y0060377D02*
X0167910Y0060377D01*
X0168114Y0061975D02*
X0162460Y0061975D01*
X0164058Y0063574D02*
X0166516Y0063574D01*
X0165713Y0065172D02*
X0164877Y0065172D01*
X0164877Y0066771D02*
X0165713Y0066771D01*
X0165929Y0068369D02*
X0164677Y0068369D01*
X0163079Y0069968D02*
X0167528Y0069968D01*
X0166946Y0073165D02*
X0163726Y0073165D01*
X0164893Y0074763D02*
X0165779Y0074763D01*
X0165779Y0076362D02*
X0164893Y0076362D01*
X0164893Y0077960D02*
X0165779Y0077960D01*
X0167228Y0079559D02*
X0163444Y0079559D01*
X0163311Y0082756D02*
X0167344Y0082756D01*
X0165779Y0084354D02*
X0164893Y0084354D01*
X0164893Y0085953D02*
X0165779Y0085953D01*
X0165779Y0087551D02*
X0164893Y0087551D01*
X0163858Y0089150D02*
X0166830Y0089150D01*
X0168429Y0090748D02*
X0162260Y0090748D01*
X0163175Y0092347D02*
X0167301Y0092347D01*
X0165702Y0093945D02*
X0164774Y0093945D01*
X0164795Y0095544D02*
X0165681Y0095544D01*
X0165681Y0097142D02*
X0164795Y0097142D01*
X0163798Y0098741D02*
X0166677Y0098741D01*
X0168276Y0100339D02*
X0162200Y0100339D01*
X0214605Y0058778D02*
X0214765Y0058778D01*
X0217674Y0049852D02*
X0217674Y0049796D01*
X0217674Y0049852D02*
X0225701Y0049852D01*
X0226170Y0050321D01*
X0204730Y0049187D02*
X0163930Y0049187D01*
X0165061Y0047589D02*
X0204730Y0047589D01*
X0204730Y0045990D02*
X0165061Y0045990D01*
X0165061Y0044392D02*
X0204730Y0044392D01*
X0204730Y0042793D02*
X0163576Y0042793D01*
X0179633Y0033202D02*
X0182785Y0033202D01*
X0189633Y0033202D02*
X0192785Y0033202D01*
X0199633Y0033202D02*
X0204730Y0033202D01*
X0204730Y0031603D02*
X0201232Y0031603D01*
X0201709Y0030005D02*
X0205522Y0030005D01*
X0201709Y0028406D02*
X0211421Y0028406D01*
X0209161Y0026808D02*
X0201709Y0026808D01*
X0200349Y0025209D02*
X0207721Y0025209D01*
X0206798Y0023611D02*
X0199224Y0023611D01*
X0200823Y0022012D02*
X0206253Y0022012D01*
X0205877Y0020414D02*
X0201709Y0020414D01*
X0201709Y0018815D02*
X0205877Y0018815D01*
X0206058Y0017217D02*
X0201709Y0017217D01*
X0200758Y0015618D02*
X0206487Y0015618D01*
X0094102Y0034800D02*
X0091033Y0034800D01*
X0091980Y0033202D02*
X0093155Y0033202D01*
X0092746Y0042793D02*
X0092389Y0042793D01*
X0081307Y0034800D02*
X0081216Y0034800D01*
D28*
X0148492Y0133539D03*
X0153911Y0143918D03*
X0165584Y0181007D03*
X0184866Y0196013D03*
X0182182Y0206493D03*
X0173936Y0213856D03*
X0174914Y0231786D03*
X0189809Y0231948D03*
X0215895Y0259369D03*
X0221177Y0253653D03*
X0258435Y0255508D03*
X0213176Y0172855D03*
X0223306Y0135598D03*
X0211728Y0062136D03*
X0217618Y0055396D03*
X0217674Y0049796D03*
X0211861Y0038131D03*
D29*
X0150186Y0235957D03*
D30*
X0150246Y0095888D03*
X0150328Y0086226D03*
X0160333Y0086226D03*
X0160235Y0095856D03*
X0170241Y0095856D03*
X0170339Y0086210D03*
X0180328Y0086243D03*
X0180246Y0095872D03*
X0190251Y0095872D03*
X0190333Y0086226D03*
X0190350Y0076221D03*
X0190317Y0066297D03*
X0180311Y0066281D03*
X0180328Y0076205D03*
X0170339Y0076221D03*
X0170273Y0066265D03*
X0160317Y0066281D03*
X0160333Y0076221D03*
X0150311Y0076205D03*
X0150295Y0066281D03*
X0140290Y0066281D03*
X0140322Y0076205D03*
X0130333Y0076221D03*
X0130301Y0066281D03*
X0130279Y0056260D03*
X0140281Y0056283D03*
X0140485Y0046178D03*
X0130415Y0046246D03*
X0120390Y0046235D03*
X0120288Y0056260D03*
X0120279Y0066265D03*
X0120328Y0076221D03*
X0120344Y0086226D03*
X0120230Y0095872D03*
X0130235Y0095872D03*
X0130350Y0086226D03*
X0140339Y0086210D03*
X0140241Y0095872D03*
X0150295Y0056271D03*
X0160285Y0056271D03*
X0170276Y0056294D03*
X0160501Y0046167D03*
X0150499Y0046190D03*
X0150510Y0036165D03*
X0160490Y0036165D03*
X0140520Y0036176D03*
X0140395Y0026207D03*
X0130373Y0026196D03*
X0130395Y0036207D03*
X0120390Y0036222D03*
X0120413Y0026242D03*
X0180290Y0056271D03*
X0190303Y0056283D03*
X0200271Y0056260D03*
X0200273Y0066281D03*
X0200339Y0076237D03*
X0210311Y0076237D03*
X0220333Y0076205D03*
X0220333Y0086210D03*
X0220251Y0095872D03*
X0210230Y0095872D03*
X0210328Y0086226D03*
X0200339Y0086226D03*
X0200257Y0095872D03*
X0230257Y0095856D03*
X0230339Y0086226D03*
X0230339Y0076221D03*
M02*
