G75*
%MOIN*%
%OFA0B0*%
%FSLAX25Y25*%
%IPPOS*%
%LPD*%
%AMOC8*
5,1,8,0,0,1.08239X$1,22.5*
%
%ADD10C,0.00600*%
%ADD11C,0.01000*%
%ADD12C,0.01600*%
%ADD13C,0.00400*%
%ADD14C,0.00300*%
%ADD15C,0.00591*%
%ADD16C,0.00500*%
%ADD17C,0.00800*%
D10*
X0081170Y0026724D02*
X0083670Y0024224D01*
X0088670Y0024224D01*
X0091170Y0026724D01*
X0091170Y0031724D01*
X0088670Y0034224D01*
X0091170Y0036724D01*
X0091170Y0041724D01*
X0088670Y0044224D01*
X0083670Y0044224D01*
X0081170Y0041724D01*
X0081170Y0036724D01*
X0083670Y0034224D01*
X0088670Y0034224D01*
X0093965Y0031724D02*
X0096465Y0034224D01*
X0093965Y0036724D01*
X0093965Y0041724D01*
X0096465Y0044224D01*
X0101465Y0044224D01*
X0103965Y0041724D01*
X0103965Y0036724D01*
X0101465Y0034224D01*
X0103965Y0031724D01*
X0103965Y0026724D01*
X0101465Y0024224D01*
X0096465Y0024224D01*
X0093965Y0026724D01*
X0093965Y0031724D01*
X0096465Y0034224D02*
X0101465Y0034224D01*
X0101465Y0044224D02*
X0103965Y0046724D01*
X0103965Y0051724D01*
X0101465Y0054224D01*
X0103965Y0056724D01*
X0103965Y0061724D01*
X0101465Y0064224D01*
X0103965Y0066724D01*
X0103965Y0071724D01*
X0101465Y0074224D01*
X0103965Y0076724D01*
X0103965Y0081724D01*
X0101465Y0084224D01*
X0096465Y0084224D01*
X0093965Y0081724D01*
X0093965Y0076724D01*
X0096465Y0074224D01*
X0101465Y0074224D01*
X0096465Y0074224D02*
X0093965Y0071724D01*
X0093965Y0066724D01*
X0096465Y0064224D01*
X0101465Y0064224D01*
X0096465Y0064224D02*
X0093965Y0061724D01*
X0093965Y0056724D01*
X0096465Y0054224D01*
X0101465Y0054224D01*
X0096465Y0054224D02*
X0093965Y0051724D01*
X0093965Y0046724D01*
X0096465Y0044224D01*
X0091170Y0046724D02*
X0088670Y0044224D01*
X0091170Y0046724D02*
X0091170Y0051724D01*
X0088670Y0054224D01*
X0091170Y0056724D01*
X0091170Y0061724D01*
X0088670Y0064224D01*
X0091170Y0066724D01*
X0091170Y0071724D01*
X0088670Y0074224D01*
X0091170Y0076724D01*
X0091170Y0081724D01*
X0088670Y0084224D01*
X0083670Y0084224D01*
X0081170Y0081724D01*
X0081170Y0076724D01*
X0083670Y0074224D01*
X0088670Y0074224D01*
X0083670Y0074224D02*
X0081170Y0071724D01*
X0081170Y0066724D01*
X0083670Y0064224D01*
X0088670Y0064224D01*
X0083670Y0064224D02*
X0081170Y0061724D01*
X0081170Y0056724D01*
X0083670Y0054224D01*
X0088670Y0054224D01*
X0083670Y0054224D02*
X0081170Y0051724D01*
X0081170Y0046724D01*
X0083670Y0044224D01*
X0083670Y0034224D02*
X0081170Y0031724D01*
X0081170Y0026724D01*
X0083670Y0094224D02*
X0081170Y0096724D01*
X0081170Y0101724D01*
X0083670Y0104224D01*
X0081170Y0106724D01*
X0081170Y0111724D01*
X0083670Y0114224D01*
X0081170Y0116724D01*
X0081170Y0121724D01*
X0083670Y0124224D01*
X0081170Y0126724D01*
X0081170Y0131724D01*
X0083670Y0134224D01*
X0081170Y0136724D01*
X0081170Y0141724D01*
X0083670Y0144224D01*
X0081170Y0146724D01*
X0081170Y0151724D01*
X0083670Y0154224D01*
X0088670Y0154224D01*
X0091170Y0151724D01*
X0091170Y0146724D01*
X0088670Y0144224D01*
X0091170Y0141724D01*
X0091170Y0136724D01*
X0088670Y0134224D01*
X0083670Y0134224D01*
X0088670Y0134224D02*
X0091170Y0131724D01*
X0091170Y0126724D01*
X0088670Y0124224D01*
X0091170Y0121724D01*
X0091170Y0116724D01*
X0088670Y0114224D01*
X0091170Y0111724D01*
X0091170Y0106724D01*
X0088670Y0104224D01*
X0091170Y0101724D01*
X0091170Y0096724D01*
X0088670Y0094224D01*
X0083670Y0094224D01*
X0093965Y0096724D02*
X0093965Y0101724D01*
X0096465Y0104224D01*
X0093965Y0106724D01*
X0093965Y0111724D01*
X0096465Y0114224D01*
X0093965Y0116724D01*
X0093965Y0121724D01*
X0096465Y0124224D01*
X0093965Y0126724D01*
X0093965Y0131724D01*
X0096465Y0134224D01*
X0093965Y0136724D01*
X0093965Y0141724D01*
X0096465Y0144224D01*
X0093965Y0146724D01*
X0093965Y0151724D01*
X0096465Y0154224D01*
X0101465Y0154224D01*
X0103965Y0151724D01*
X0103965Y0146724D01*
X0101465Y0144224D01*
X0103965Y0141724D01*
X0103965Y0136724D01*
X0101465Y0134224D01*
X0096465Y0134224D01*
X0101465Y0134224D02*
X0103965Y0131724D01*
X0103965Y0126724D01*
X0101465Y0124224D01*
X0103965Y0121724D01*
X0103965Y0116724D01*
X0101465Y0114224D01*
X0103965Y0111724D01*
X0103965Y0106724D01*
X0101465Y0104224D01*
X0103965Y0101724D01*
X0103965Y0096724D01*
X0101465Y0094224D01*
X0096465Y0094224D01*
X0093965Y0096724D01*
X0096465Y0104224D02*
X0101465Y0104224D01*
X0101465Y0114224D02*
X0096465Y0114224D01*
X0088670Y0114224D02*
X0083670Y0114224D01*
X0083670Y0104224D02*
X0088670Y0104224D01*
X0088670Y0124224D02*
X0083670Y0124224D01*
X0096465Y0124224D02*
X0101465Y0124224D01*
X0101465Y0144224D02*
X0096465Y0144224D01*
X0088670Y0144224D02*
X0083670Y0144224D01*
X0100544Y0163567D02*
X0100544Y0168567D01*
X0103044Y0171067D01*
X0100544Y0173567D01*
X0100544Y0178567D01*
X0103044Y0181067D01*
X0100544Y0183567D01*
X0100544Y0188567D01*
X0103044Y0191067D01*
X0100544Y0193567D01*
X0100544Y0198567D01*
X0103044Y0201067D01*
X0100544Y0203567D01*
X0100544Y0208567D01*
X0103044Y0211067D01*
X0100544Y0213567D01*
X0100544Y0218567D01*
X0103044Y0221067D01*
X0100544Y0223567D01*
X0100544Y0228567D01*
X0103044Y0231067D01*
X0100544Y0233567D01*
X0100544Y0238567D01*
X0103044Y0241067D01*
X0108044Y0241067D01*
X0110544Y0238567D01*
X0110544Y0233567D01*
X0108044Y0231067D01*
X0110544Y0228567D01*
X0110544Y0223567D01*
X0108044Y0221067D01*
X0103044Y0221067D01*
X0108044Y0221067D02*
X0110544Y0218567D01*
X0110544Y0213567D01*
X0108044Y0211067D01*
X0110544Y0208567D01*
X0110544Y0203567D01*
X0108044Y0201067D01*
X0110544Y0198567D01*
X0110544Y0193567D01*
X0108044Y0191067D01*
X0103044Y0191067D01*
X0108044Y0191067D02*
X0110544Y0188567D01*
X0110544Y0183567D01*
X0108044Y0181067D01*
X0110544Y0178567D01*
X0110544Y0173567D01*
X0108044Y0171067D01*
X0110544Y0168567D01*
X0110544Y0163567D01*
X0108044Y0161067D01*
X0103044Y0161067D01*
X0100544Y0163567D01*
X0103044Y0171067D02*
X0108044Y0171067D01*
X0113690Y0173457D02*
X0113690Y0178457D01*
X0116190Y0180957D01*
X0113690Y0183457D01*
X0113690Y0188457D01*
X0116190Y0190957D01*
X0113690Y0193457D01*
X0113690Y0198457D01*
X0116190Y0200957D01*
X0113690Y0203457D01*
X0113690Y0208457D01*
X0116190Y0210957D01*
X0113690Y0213457D01*
X0113690Y0218457D01*
X0116190Y0220957D01*
X0113690Y0223457D01*
X0113690Y0228457D01*
X0116190Y0230957D01*
X0113690Y0233457D01*
X0113690Y0238457D01*
X0116190Y0240957D01*
X0121190Y0240957D01*
X0123690Y0238457D01*
X0123690Y0233457D01*
X0121190Y0230957D01*
X0123690Y0228457D01*
X0123690Y0223457D01*
X0121190Y0220957D01*
X0116190Y0220957D01*
X0121190Y0220957D02*
X0123690Y0218457D01*
X0123690Y0213457D01*
X0121190Y0210957D01*
X0123690Y0208457D01*
X0123690Y0203457D01*
X0121190Y0200957D01*
X0123690Y0198457D01*
X0123690Y0193457D01*
X0121190Y0190957D01*
X0116190Y0190957D01*
X0121190Y0190957D02*
X0123690Y0188457D01*
X0123690Y0183457D01*
X0121190Y0180957D01*
X0123690Y0178457D01*
X0123690Y0173457D01*
X0121190Y0170957D01*
X0123690Y0168457D01*
X0123690Y0163457D01*
X0121190Y0160957D01*
X0116190Y0160957D01*
X0113690Y0163457D01*
X0113690Y0168457D01*
X0116190Y0170957D01*
X0113690Y0173457D01*
X0116190Y0170957D02*
X0121190Y0170957D01*
X0121190Y0180957D02*
X0116190Y0180957D01*
X0108044Y0181067D02*
X0103044Y0181067D01*
X0103044Y0201067D02*
X0108044Y0201067D01*
X0116190Y0200957D02*
X0121190Y0200957D01*
X0121190Y0210957D02*
X0116190Y0210957D01*
X0108044Y0211067D02*
X0103044Y0211067D01*
X0103044Y0231067D02*
X0108044Y0231067D01*
X0116190Y0230957D02*
X0121190Y0230957D01*
X0105870Y0245888D02*
X0105870Y0272288D01*
X0091270Y0272288D01*
X0091270Y0245888D01*
X0105870Y0245888D01*
X0101692Y0250637D02*
X0100624Y0249570D01*
X0101692Y0250637D02*
X0101692Y0252772D01*
X0100624Y0253840D01*
X0099557Y0253840D01*
X0098489Y0252772D01*
X0098489Y0251705D01*
X0098489Y0252772D02*
X0097421Y0253840D01*
X0096354Y0253840D01*
X0095286Y0252772D01*
X0095286Y0250637D01*
X0096354Y0249570D01*
X0100624Y0256015D02*
X0100624Y0257083D01*
X0101692Y0257083D01*
X0101692Y0256015D01*
X0100624Y0256015D01*
X0100624Y0259238D02*
X0101692Y0260305D01*
X0101692Y0262441D01*
X0100624Y0263508D01*
X0099557Y0263508D01*
X0098489Y0262441D01*
X0098489Y0261373D01*
X0098489Y0262441D02*
X0097421Y0263508D01*
X0096354Y0263508D01*
X0095286Y0262441D01*
X0095286Y0260305D01*
X0096354Y0259238D01*
X0097421Y0265683D02*
X0101692Y0267819D01*
X0097421Y0269954D01*
X0159928Y0270256D02*
X0159928Y0255256D01*
X0162428Y0252756D01*
X0167428Y0252756D01*
X0169928Y0255256D01*
X0169928Y0270256D01*
X0172428Y0272756D01*
X0177428Y0272756D01*
X0179928Y0270256D01*
X0179928Y0255256D01*
X0182428Y0252756D01*
X0187428Y0252756D01*
X0189928Y0255256D01*
X0192428Y0252756D01*
X0197428Y0252756D01*
X0199928Y0255256D01*
X0199928Y0270256D01*
X0197428Y0272756D01*
X0192428Y0272756D01*
X0189928Y0270256D01*
X0189928Y0255256D01*
X0179928Y0255256D02*
X0177428Y0252756D01*
X0172428Y0252756D01*
X0169928Y0255256D01*
X0169928Y0270256D02*
X0167428Y0272756D01*
X0162428Y0272756D01*
X0159928Y0270256D01*
X0179928Y0270256D02*
X0182428Y0272756D01*
X0187428Y0272756D01*
X0189928Y0270256D01*
X0223926Y0238457D02*
X0223926Y0233457D01*
X0226426Y0230957D01*
X0223926Y0228457D01*
X0223926Y0223457D01*
X0226426Y0220957D01*
X0231426Y0220957D01*
X0233926Y0223457D01*
X0233926Y0228457D01*
X0231426Y0230957D01*
X0226426Y0230957D01*
X0231426Y0230957D02*
X0233926Y0233457D01*
X0233926Y0238457D01*
X0231426Y0240957D01*
X0226426Y0240957D01*
X0223926Y0238457D01*
X0237179Y0238581D02*
X0237179Y0233581D01*
X0239679Y0231081D01*
X0237179Y0228581D01*
X0237179Y0223581D01*
X0239679Y0221081D01*
X0244679Y0221081D01*
X0247179Y0223581D01*
X0247179Y0228581D01*
X0244679Y0231081D01*
X0239679Y0231081D01*
X0244679Y0231081D02*
X0247179Y0233581D01*
X0247179Y0238581D01*
X0244679Y0241081D01*
X0239679Y0241081D01*
X0237179Y0238581D01*
X0239679Y0221081D02*
X0237179Y0218581D01*
X0237179Y0213581D01*
X0239679Y0211081D01*
X0237179Y0208581D01*
X0237179Y0203581D01*
X0239679Y0201081D01*
X0237179Y0198581D01*
X0237179Y0193581D01*
X0239679Y0191081D01*
X0244679Y0191081D01*
X0247179Y0193581D01*
X0247179Y0198581D01*
X0244679Y0201081D01*
X0239679Y0201081D01*
X0244679Y0201081D02*
X0247179Y0203581D01*
X0247179Y0208581D01*
X0244679Y0211081D01*
X0239679Y0211081D01*
X0244679Y0211081D02*
X0247179Y0213581D01*
X0247179Y0218581D01*
X0244679Y0221081D01*
X0233926Y0218457D02*
X0233926Y0213457D01*
X0231426Y0210957D01*
X0233926Y0208457D01*
X0233926Y0203457D01*
X0231426Y0200957D01*
X0233926Y0198457D01*
X0233926Y0193457D01*
X0231426Y0190957D01*
X0226426Y0190957D01*
X0223926Y0193457D01*
X0223926Y0198457D01*
X0226426Y0200957D01*
X0223926Y0203457D01*
X0223926Y0208457D01*
X0226426Y0210957D01*
X0223926Y0213457D01*
X0223926Y0218457D01*
X0226426Y0220957D01*
X0231426Y0220957D02*
X0233926Y0218457D01*
X0231426Y0210957D02*
X0226426Y0210957D01*
X0226426Y0200957D02*
X0231426Y0200957D01*
X0231426Y0190957D02*
X0233926Y0188457D01*
X0233926Y0183457D01*
X0231426Y0180957D01*
X0233926Y0178457D01*
X0233926Y0173457D01*
X0231426Y0170957D01*
X0233926Y0168457D01*
X0233926Y0163457D01*
X0231426Y0160957D01*
X0226426Y0160957D01*
X0223926Y0163457D01*
X0223926Y0168457D01*
X0226426Y0170957D01*
X0223926Y0173457D01*
X0223926Y0178457D01*
X0226426Y0180957D01*
X0223926Y0183457D01*
X0223926Y0188457D01*
X0226426Y0190957D01*
X0226426Y0180957D02*
X0231426Y0180957D01*
X0237179Y0178581D02*
X0237179Y0173581D01*
X0239679Y0171081D01*
X0237179Y0168581D01*
X0237179Y0163581D01*
X0239679Y0161081D01*
X0244679Y0161081D01*
X0247179Y0163581D01*
X0247179Y0168581D01*
X0244679Y0171081D01*
X0239679Y0171081D01*
X0244679Y0171081D02*
X0247179Y0173581D01*
X0247179Y0178581D01*
X0244679Y0181081D01*
X0239679Y0181081D01*
X0237179Y0178581D01*
X0239679Y0181081D02*
X0237179Y0183581D01*
X0237179Y0188581D01*
X0239679Y0191081D01*
X0244679Y0191081D02*
X0247179Y0188581D01*
X0247179Y0183581D01*
X0244679Y0181081D01*
X0258039Y0183148D02*
X0258039Y0188148D01*
X0260539Y0190648D01*
X0258039Y0193148D01*
X0258039Y0198148D01*
X0260539Y0200648D01*
X0258039Y0203148D01*
X0258039Y0208148D01*
X0260539Y0210648D01*
X0265539Y0210648D01*
X0268039Y0208148D01*
X0268039Y0203148D01*
X0265539Y0200648D01*
X0268039Y0198148D01*
X0268039Y0193148D01*
X0265539Y0190648D01*
X0260539Y0190648D01*
X0265539Y0190648D02*
X0268039Y0188148D01*
X0268039Y0183148D01*
X0265539Y0180648D01*
X0268039Y0178148D01*
X0268039Y0173148D01*
X0265539Y0170648D01*
X0268039Y0168148D01*
X0268039Y0163148D01*
X0265539Y0160648D01*
X0260539Y0160648D01*
X0258039Y0163148D01*
X0258039Y0168148D01*
X0260539Y0170648D01*
X0258039Y0173148D01*
X0258039Y0178148D01*
X0260539Y0180648D01*
X0258039Y0183148D01*
X0260539Y0180648D02*
X0265539Y0180648D01*
X0271255Y0182814D02*
X0271255Y0187814D01*
X0273755Y0190314D01*
X0271255Y0192814D01*
X0271255Y0197814D01*
X0273755Y0200314D01*
X0271255Y0202814D01*
X0271255Y0207814D01*
X0273755Y0210314D01*
X0278755Y0210314D01*
X0281255Y0207814D01*
X0281255Y0202814D01*
X0278755Y0200314D01*
X0281255Y0197814D01*
X0281255Y0192814D01*
X0278755Y0190314D01*
X0273755Y0190314D01*
X0278755Y0190314D02*
X0281255Y0187814D01*
X0281255Y0182814D01*
X0278755Y0180314D01*
X0281255Y0177814D01*
X0281255Y0172814D01*
X0278755Y0170314D01*
X0281255Y0167814D01*
X0281255Y0162814D01*
X0278755Y0160314D01*
X0273755Y0160314D01*
X0271255Y0162814D01*
X0271255Y0167814D01*
X0273755Y0170314D01*
X0271255Y0172814D01*
X0271255Y0177814D01*
X0273755Y0180314D01*
X0271255Y0182814D01*
X0273755Y0180314D02*
X0278755Y0180314D01*
X0278755Y0170314D02*
X0273755Y0170314D01*
X0265539Y0170648D02*
X0260539Y0170648D01*
X0260539Y0160648D02*
X0258039Y0158148D01*
X0258039Y0153148D01*
X0260539Y0150648D01*
X0258039Y0148148D01*
X0258039Y0143148D01*
X0260539Y0140648D01*
X0258039Y0138148D01*
X0258039Y0133148D01*
X0260539Y0130648D01*
X0265539Y0130648D01*
X0268039Y0133148D01*
X0268039Y0138148D01*
X0265539Y0140648D01*
X0260539Y0140648D01*
X0265539Y0140648D02*
X0268039Y0143148D01*
X0268039Y0148148D01*
X0265539Y0150648D01*
X0260539Y0150648D01*
X0265539Y0150648D02*
X0268039Y0153148D01*
X0268039Y0158148D01*
X0265539Y0160648D01*
X0271255Y0157814D02*
X0273755Y0160314D01*
X0271255Y0157814D02*
X0271255Y0152814D01*
X0273755Y0150314D01*
X0271255Y0147814D01*
X0271255Y0142814D01*
X0273755Y0140314D01*
X0271255Y0137814D01*
X0271255Y0132814D01*
X0273755Y0130314D01*
X0278755Y0130314D01*
X0281255Y0132814D01*
X0281255Y0137814D01*
X0278755Y0140314D01*
X0273755Y0140314D01*
X0278755Y0140314D02*
X0281255Y0142814D01*
X0281255Y0147814D01*
X0278755Y0150314D01*
X0273755Y0150314D01*
X0278755Y0150314D02*
X0281255Y0152814D01*
X0281255Y0157814D01*
X0278755Y0160314D01*
X0255151Y0148147D02*
X0255151Y0143147D01*
X0252651Y0140647D01*
X0247651Y0140647D01*
X0245151Y0143147D01*
X0245151Y0148147D01*
X0247651Y0150647D01*
X0252651Y0150647D01*
X0255151Y0148147D01*
X0253022Y0140544D02*
X0248022Y0140544D01*
X0245522Y0138044D01*
X0245522Y0133044D01*
X0248022Y0130544D01*
X0253022Y0130544D01*
X0255522Y0133044D01*
X0255522Y0138044D01*
X0253022Y0140544D01*
X0260539Y0130648D02*
X0258039Y0128148D01*
X0258039Y0123148D01*
X0260539Y0120648D01*
X0258039Y0118148D01*
X0258039Y0113148D01*
X0260539Y0110648D01*
X0265539Y0110648D01*
X0268039Y0113148D01*
X0268039Y0118148D01*
X0265539Y0120648D01*
X0260539Y0120648D01*
X0265539Y0120648D02*
X0268039Y0123148D01*
X0268039Y0128148D01*
X0265539Y0130648D01*
X0271255Y0127814D02*
X0273755Y0130314D01*
X0271255Y0127814D02*
X0271255Y0122814D01*
X0273755Y0120314D01*
X0271255Y0117814D01*
X0271255Y0112814D01*
X0273755Y0110314D01*
X0278755Y0110314D01*
X0281255Y0112814D01*
X0281255Y0117814D01*
X0278755Y0120314D01*
X0273755Y0120314D01*
X0278755Y0120314D02*
X0281255Y0122814D01*
X0281255Y0127814D01*
X0278755Y0130314D01*
X0279089Y0104566D02*
X0274089Y0104566D01*
X0271589Y0102066D01*
X0271589Y0097066D01*
X0274089Y0094566D01*
X0271589Y0092066D01*
X0271589Y0087066D01*
X0274089Y0084566D01*
X0279089Y0084566D01*
X0281589Y0087066D01*
X0281589Y0092066D01*
X0279089Y0094566D01*
X0274089Y0094566D01*
X0279089Y0094566D02*
X0281589Y0097066D01*
X0281589Y0102066D01*
X0279089Y0104566D01*
X0268206Y0101899D02*
X0268206Y0096899D01*
X0265706Y0094399D01*
X0268206Y0091899D01*
X0268206Y0086899D01*
X0265706Y0084399D01*
X0260706Y0084399D01*
X0258206Y0086899D01*
X0258206Y0091899D01*
X0260706Y0094399D01*
X0258206Y0096899D01*
X0258206Y0101899D01*
X0260706Y0104399D01*
X0265706Y0104399D01*
X0268206Y0101899D01*
X0265706Y0094399D02*
X0260706Y0094399D01*
X0260706Y0084399D02*
X0258206Y0081899D01*
X0258206Y0076899D01*
X0260706Y0074399D01*
X0258206Y0071899D01*
X0258206Y0066899D01*
X0260706Y0064399D01*
X0258206Y0061899D01*
X0258206Y0056899D01*
X0260706Y0054399D01*
X0265706Y0054399D01*
X0268206Y0056899D01*
X0268206Y0061899D01*
X0265706Y0064399D01*
X0260706Y0064399D01*
X0265706Y0064399D02*
X0268206Y0066899D01*
X0268206Y0071899D01*
X0265706Y0074399D01*
X0260706Y0074399D01*
X0265706Y0074399D02*
X0268206Y0076899D01*
X0268206Y0081899D01*
X0265706Y0084399D01*
X0271589Y0082066D02*
X0274089Y0084566D01*
X0271589Y0082066D02*
X0271589Y0077066D01*
X0274089Y0074566D01*
X0271589Y0072066D01*
X0271589Y0067066D01*
X0274089Y0064566D01*
X0271589Y0062066D01*
X0271589Y0057066D01*
X0274089Y0054566D01*
X0279089Y0054566D01*
X0281589Y0057066D01*
X0281589Y0062066D01*
X0279089Y0064566D01*
X0274089Y0064566D01*
X0279089Y0064566D02*
X0281589Y0067066D01*
X0281589Y0072066D01*
X0279089Y0074566D01*
X0274089Y0074566D01*
X0279089Y0074566D02*
X0281589Y0077066D01*
X0281589Y0082066D01*
X0279089Y0084566D01*
X0279089Y0054566D02*
X0281589Y0052066D01*
X0281589Y0047066D01*
X0279089Y0044566D01*
X0281589Y0042066D01*
X0281589Y0037066D01*
X0279089Y0034566D01*
X0281589Y0032066D01*
X0281589Y0027066D01*
X0279089Y0024566D01*
X0274089Y0024566D01*
X0271589Y0027066D01*
X0271589Y0032066D01*
X0274089Y0034566D01*
X0271589Y0037066D01*
X0271589Y0042066D01*
X0274089Y0044566D01*
X0271589Y0047066D01*
X0271589Y0052066D01*
X0274089Y0054566D01*
X0268206Y0051899D02*
X0268206Y0046899D01*
X0265706Y0044399D01*
X0268206Y0041899D01*
X0268206Y0036899D01*
X0265706Y0034399D01*
X0268206Y0031899D01*
X0268206Y0026899D01*
X0265706Y0024399D01*
X0260706Y0024399D01*
X0258206Y0026899D01*
X0258206Y0031899D01*
X0260706Y0034399D01*
X0258206Y0036899D01*
X0258206Y0041899D01*
X0260706Y0044399D01*
X0258206Y0046899D01*
X0258206Y0051899D01*
X0260706Y0054399D01*
X0265706Y0054399D02*
X0268206Y0051899D01*
X0265706Y0044399D02*
X0260706Y0044399D01*
X0260706Y0034399D02*
X0265706Y0034399D01*
X0274089Y0034566D02*
X0279089Y0034566D01*
X0279089Y0044566D02*
X0274089Y0044566D01*
X0216426Y0109161D02*
X0211426Y0109161D01*
X0208926Y0111661D01*
X0208926Y0116661D01*
X0211426Y0119161D01*
X0216426Y0119161D01*
X0218926Y0116661D01*
X0218926Y0111661D01*
X0216426Y0109161D01*
X0208926Y0111644D02*
X0208926Y0116644D01*
X0206426Y0119144D01*
X0201426Y0119144D01*
X0198926Y0116644D01*
X0198926Y0111644D01*
X0201426Y0109144D01*
X0206426Y0109144D01*
X0208926Y0111644D01*
X0198926Y0111651D02*
X0196426Y0109151D01*
X0191426Y0109151D01*
X0188926Y0111651D01*
X0188926Y0116651D01*
X0191426Y0119151D01*
X0196426Y0119151D01*
X0198926Y0116651D01*
X0198926Y0111651D01*
X0188926Y0111653D02*
X0186426Y0109153D01*
X0181426Y0109153D01*
X0178926Y0111653D01*
X0178926Y0116653D01*
X0181426Y0119153D01*
X0186426Y0119153D01*
X0188926Y0116653D01*
X0188926Y0111653D01*
X0168926Y0111449D02*
X0166426Y0108949D01*
X0161426Y0108949D01*
X0158926Y0111449D01*
X0156426Y0108949D01*
X0151426Y0108949D01*
X0148926Y0111449D01*
X0148926Y0116449D01*
X0151426Y0118949D01*
X0156426Y0118949D01*
X0158926Y0116449D01*
X0158926Y0111449D01*
X0158926Y0116449D01*
X0161426Y0118949D01*
X0166426Y0118949D01*
X0168926Y0116449D01*
X0168926Y0111449D01*
X0148926Y0111449D02*
X0146426Y0108949D01*
X0141426Y0108949D01*
X0138926Y0111449D01*
X0136426Y0108949D01*
X0131426Y0108949D01*
X0128926Y0111449D01*
X0128926Y0116449D01*
X0131426Y0118949D01*
X0136426Y0118949D01*
X0138926Y0116449D01*
X0138926Y0111449D01*
X0138926Y0116449D01*
X0141426Y0118949D01*
X0146426Y0118949D01*
X0148926Y0116449D01*
X0148926Y0111449D01*
X0145935Y0137708D02*
X0142435Y0137708D01*
X0145935Y0137708D02*
X0145935Y0139308D01*
X0145935Y0141908D01*
X0145035Y0141308D02*
X0144993Y0141255D01*
X0144954Y0141199D01*
X0144918Y0141141D01*
X0144886Y0141081D01*
X0144857Y0141020D01*
X0144831Y0140957D01*
X0144809Y0140892D01*
X0144790Y0140827D01*
X0144775Y0140760D01*
X0144764Y0140693D01*
X0144757Y0140625D01*
X0144753Y0140557D01*
X0144754Y0140489D01*
X0144758Y0140421D01*
X0144766Y0140353D01*
X0144777Y0140286D01*
X0144793Y0140220D01*
X0144812Y0140154D01*
X0144834Y0140090D01*
X0144860Y0140027D01*
X0144890Y0139966D01*
X0144923Y0139906D01*
X0144960Y0139849D01*
X0144999Y0139793D01*
X0145042Y0139740D01*
X0145087Y0139689D01*
X0145135Y0139641D01*
X0145186Y0139596D01*
X0145239Y0139553D01*
X0145295Y0139514D01*
X0145352Y0139478D01*
X0145412Y0139445D01*
X0145473Y0139415D01*
X0145536Y0139389D01*
X0145601Y0139366D01*
X0145666Y0139347D01*
X0145732Y0139332D01*
X0145800Y0139320D01*
X0145867Y0139313D01*
X0145935Y0139309D01*
X0141435Y0143308D02*
X0138635Y0143308D01*
X0134135Y0141908D02*
X0134135Y0137708D01*
X0137635Y0137708D01*
X0157916Y0137313D02*
X0161416Y0137313D01*
X0157916Y0137313D02*
X0157916Y0141513D01*
X0162416Y0142913D02*
X0165216Y0142913D01*
X0169716Y0141513D02*
X0169716Y0138913D01*
X0169716Y0137313D01*
X0166216Y0137313D01*
X0169716Y0138913D02*
X0169648Y0138917D01*
X0169581Y0138924D01*
X0169513Y0138936D01*
X0169447Y0138951D01*
X0169382Y0138970D01*
X0169317Y0138993D01*
X0169254Y0139019D01*
X0169193Y0139049D01*
X0169133Y0139082D01*
X0169076Y0139118D01*
X0169020Y0139157D01*
X0168967Y0139200D01*
X0168916Y0139245D01*
X0168868Y0139293D01*
X0168823Y0139344D01*
X0168780Y0139397D01*
X0168741Y0139453D01*
X0168704Y0139510D01*
X0168671Y0139570D01*
X0168641Y0139631D01*
X0168615Y0139694D01*
X0168593Y0139758D01*
X0168574Y0139824D01*
X0168558Y0139890D01*
X0168547Y0139957D01*
X0168539Y0140025D01*
X0168535Y0140093D01*
X0168534Y0140161D01*
X0168538Y0140229D01*
X0168545Y0140297D01*
X0168556Y0140364D01*
X0168571Y0140431D01*
X0168590Y0140496D01*
X0168612Y0140561D01*
X0168638Y0140624D01*
X0168667Y0140685D01*
X0168699Y0140745D01*
X0168735Y0140803D01*
X0168774Y0140859D01*
X0168816Y0140912D01*
X0182293Y0141513D02*
X0182293Y0137313D01*
X0185793Y0137313D01*
X0190593Y0137313D02*
X0194093Y0137313D01*
X0194093Y0138913D01*
X0194093Y0141513D01*
X0193193Y0140913D02*
X0193151Y0140860D01*
X0193112Y0140804D01*
X0193076Y0140746D01*
X0193044Y0140686D01*
X0193015Y0140625D01*
X0192989Y0140562D01*
X0192967Y0140497D01*
X0192948Y0140432D01*
X0192933Y0140365D01*
X0192922Y0140298D01*
X0192915Y0140230D01*
X0192911Y0140162D01*
X0192912Y0140094D01*
X0192916Y0140026D01*
X0192924Y0139958D01*
X0192935Y0139891D01*
X0192951Y0139825D01*
X0192970Y0139759D01*
X0192992Y0139695D01*
X0193018Y0139632D01*
X0193048Y0139571D01*
X0193081Y0139511D01*
X0193118Y0139454D01*
X0193157Y0139398D01*
X0193200Y0139345D01*
X0193245Y0139294D01*
X0193293Y0139246D01*
X0193344Y0139201D01*
X0193397Y0139158D01*
X0193453Y0139119D01*
X0193510Y0139083D01*
X0193570Y0139050D01*
X0193631Y0139020D01*
X0193694Y0138994D01*
X0193759Y0138971D01*
X0193824Y0138952D01*
X0193890Y0138937D01*
X0193958Y0138925D01*
X0194025Y0138918D01*
X0194093Y0138914D01*
X0189593Y0142913D02*
X0186793Y0142913D01*
X0206956Y0141514D02*
X0206956Y0137314D01*
X0210456Y0137314D01*
X0211456Y0142914D02*
X0214256Y0142914D01*
X0215256Y0137314D02*
X0218756Y0137314D01*
X0218756Y0138914D01*
X0218756Y0141514D01*
X0217856Y0140913D02*
X0217814Y0140860D01*
X0217775Y0140804D01*
X0217739Y0140746D01*
X0217707Y0140686D01*
X0217678Y0140625D01*
X0217652Y0140562D01*
X0217630Y0140497D01*
X0217611Y0140432D01*
X0217596Y0140365D01*
X0217585Y0140298D01*
X0217578Y0140230D01*
X0217574Y0140162D01*
X0217575Y0140094D01*
X0217579Y0140026D01*
X0217587Y0139958D01*
X0217598Y0139891D01*
X0217614Y0139825D01*
X0217633Y0139759D01*
X0217655Y0139695D01*
X0217681Y0139632D01*
X0217711Y0139571D01*
X0217744Y0139511D01*
X0217781Y0139454D01*
X0217820Y0139398D01*
X0217863Y0139345D01*
X0217908Y0139294D01*
X0217956Y0139246D01*
X0218007Y0139201D01*
X0218060Y0139158D01*
X0218116Y0139119D01*
X0218173Y0139083D01*
X0218233Y0139050D01*
X0218294Y0139020D01*
X0218357Y0138994D01*
X0218422Y0138971D01*
X0218487Y0138952D01*
X0218553Y0138937D01*
X0218621Y0138925D01*
X0218688Y0138918D01*
X0218756Y0138914D01*
X0226426Y0170957D02*
X0231426Y0170957D01*
X0260539Y0200648D02*
X0265539Y0200648D01*
X0273755Y0200314D02*
X0278755Y0200314D01*
X0198993Y0206116D02*
X0198993Y0210316D01*
X0195493Y0210316D01*
X0190693Y0210316D02*
X0187193Y0210316D01*
X0187193Y0208716D01*
X0187193Y0206116D01*
X0188094Y0206716D02*
X0188136Y0206769D01*
X0188175Y0206825D01*
X0188211Y0206883D01*
X0188243Y0206943D01*
X0188272Y0207004D01*
X0188298Y0207067D01*
X0188320Y0207132D01*
X0188339Y0207197D01*
X0188354Y0207264D01*
X0188365Y0207331D01*
X0188372Y0207399D01*
X0188376Y0207467D01*
X0188375Y0207535D01*
X0188371Y0207603D01*
X0188363Y0207671D01*
X0188352Y0207738D01*
X0188336Y0207804D01*
X0188317Y0207870D01*
X0188295Y0207934D01*
X0188269Y0207997D01*
X0188239Y0208058D01*
X0188206Y0208118D01*
X0188169Y0208175D01*
X0188130Y0208231D01*
X0188087Y0208284D01*
X0188042Y0208335D01*
X0187994Y0208383D01*
X0187943Y0208428D01*
X0187890Y0208471D01*
X0187834Y0208510D01*
X0187777Y0208546D01*
X0187717Y0208579D01*
X0187656Y0208609D01*
X0187593Y0208635D01*
X0187528Y0208658D01*
X0187463Y0208677D01*
X0187397Y0208692D01*
X0187329Y0208704D01*
X0187262Y0208711D01*
X0187194Y0208715D01*
X0191693Y0204716D02*
X0194493Y0204716D01*
X0172965Y0206079D02*
X0172965Y0210279D01*
X0169465Y0210279D01*
X0164665Y0210279D02*
X0161165Y0210279D01*
X0161165Y0208679D01*
X0161165Y0206079D01*
X0162066Y0206679D02*
X0162108Y0206732D01*
X0162147Y0206788D01*
X0162183Y0206846D01*
X0162215Y0206906D01*
X0162244Y0206967D01*
X0162270Y0207030D01*
X0162292Y0207095D01*
X0162311Y0207160D01*
X0162326Y0207227D01*
X0162337Y0207294D01*
X0162344Y0207362D01*
X0162348Y0207430D01*
X0162347Y0207498D01*
X0162343Y0207566D01*
X0162335Y0207634D01*
X0162324Y0207701D01*
X0162308Y0207767D01*
X0162289Y0207833D01*
X0162267Y0207897D01*
X0162241Y0207960D01*
X0162211Y0208021D01*
X0162178Y0208081D01*
X0162141Y0208138D01*
X0162102Y0208194D01*
X0162059Y0208247D01*
X0162014Y0208298D01*
X0161966Y0208346D01*
X0161915Y0208391D01*
X0161862Y0208434D01*
X0161806Y0208473D01*
X0161749Y0208509D01*
X0161689Y0208542D01*
X0161628Y0208572D01*
X0161565Y0208598D01*
X0161500Y0208621D01*
X0161435Y0208640D01*
X0161369Y0208655D01*
X0161301Y0208667D01*
X0161234Y0208674D01*
X0161166Y0208678D01*
X0165665Y0204679D02*
X0168465Y0204679D01*
D11*
X0159781Y0225144D02*
X0159665Y0225144D01*
X0159665Y0237482D01*
X0159431Y0237482D01*
X0157685Y0235736D01*
X0157686Y0235736D01*
X0159549Y0237599D01*
X0159666Y0237599D01*
X0161528Y0235736D01*
X0158148Y0246689D02*
X0158148Y0266661D01*
D12*
X0154678Y0250103D02*
X0158136Y0246644D01*
X0158177Y0246644D01*
X0161310Y0249777D01*
X0161310Y0249737D01*
X0161147Y0249574D01*
X0158148Y0246689D02*
X0158091Y0246689D01*
X0154677Y0250103D01*
X0154678Y0250103D01*
D13*
X0154848Y0252185D02*
X0154081Y0252952D01*
X0154081Y0254487D01*
X0154848Y0255254D01*
X0155616Y0255254D01*
X0156383Y0254487D01*
X0156383Y0252952D01*
X0155616Y0252185D01*
X0154848Y0252185D01*
X0154081Y0252952D02*
X0153314Y0252185D01*
X0152546Y0252185D01*
X0151779Y0252952D01*
X0151779Y0254487D01*
X0152546Y0255254D01*
X0153314Y0255254D01*
X0154081Y0254487D01*
X0152546Y0256789D02*
X0151779Y0257556D01*
X0151779Y0259091D01*
X0152546Y0259858D01*
X0153314Y0259858D01*
X0156383Y0256789D01*
X0156383Y0259858D01*
X0155616Y0261393D02*
X0156383Y0262160D01*
X0156383Y0263695D01*
X0155616Y0264462D01*
X0154848Y0264462D01*
X0154081Y0263695D01*
X0154081Y0261393D01*
X0155616Y0261393D01*
X0154081Y0261393D02*
X0152546Y0262928D01*
X0151779Y0264462D01*
X0154081Y0265997D02*
X0152546Y0267532D01*
X0151779Y0269066D01*
X0154081Y0268299D02*
X0154081Y0265997D01*
X0155616Y0265997D01*
X0156383Y0266764D01*
X0156383Y0268299D01*
X0155616Y0269066D01*
X0154848Y0269066D01*
X0154081Y0268299D01*
X0157296Y0271734D02*
X0155761Y0273269D01*
X0155761Y0276338D01*
X0158831Y0276338D02*
X0158831Y0273269D01*
X0157296Y0271734D01*
X0189765Y0250478D02*
X0189765Y0247409D01*
X0190533Y0246641D01*
X0192067Y0246641D01*
X0192835Y0247409D01*
X0192835Y0248943D01*
X0191300Y0248943D01*
X0192835Y0250478D02*
X0192067Y0251245D01*
X0190533Y0251245D01*
X0189765Y0250478D01*
X0194369Y0251245D02*
X0194369Y0246641D01*
X0197438Y0246641D02*
X0194369Y0251245D01*
X0197438Y0251245D02*
X0197438Y0246641D01*
X0198973Y0246641D02*
X0201275Y0246641D01*
X0202042Y0247409D01*
X0202042Y0250478D01*
X0201275Y0251245D01*
X0198973Y0251245D01*
X0198973Y0246641D01*
X0264673Y0250342D02*
X0265441Y0249575D01*
X0266208Y0249575D01*
X0266975Y0250342D01*
X0266975Y0251877D01*
X0267743Y0252644D01*
X0268510Y0252644D01*
X0269277Y0251877D01*
X0269277Y0250342D01*
X0268510Y0249575D01*
X0265441Y0252644D02*
X0264673Y0251877D01*
X0264673Y0250342D01*
X0264673Y0254179D02*
X0269277Y0254179D01*
X0267743Y0255714D01*
X0269277Y0257248D01*
X0264673Y0257248D01*
X0255372Y0157899D02*
X0253837Y0157899D01*
X0253070Y0157132D01*
X0255372Y0157899D02*
X0256139Y0157132D01*
X0256139Y0156365D01*
X0253070Y0153295D01*
X0256139Y0153295D01*
X0251535Y0153295D02*
X0248466Y0153295D01*
X0250001Y0153295D02*
X0250001Y0157899D01*
X0248466Y0156365D01*
X0243125Y0147727D02*
X0240055Y0143123D01*
X0236986Y0143123D02*
X0236986Y0147727D01*
X0235451Y0147727D02*
X0238521Y0147727D01*
X0240055Y0147727D02*
X0243125Y0143123D01*
X0243304Y0137696D02*
X0240235Y0133092D01*
X0238700Y0133092D02*
X0237166Y0134627D01*
X0237933Y0134627D02*
X0235631Y0134627D01*
X0235631Y0133092D02*
X0235631Y0137696D01*
X0237933Y0137696D01*
X0238700Y0136929D01*
X0238700Y0135394D01*
X0237933Y0134627D01*
X0240235Y0137696D02*
X0243304Y0133092D01*
X0251103Y0127659D02*
X0251103Y0126892D01*
X0251870Y0126125D01*
X0254172Y0126125D01*
X0254172Y0127659D02*
X0253405Y0128426D01*
X0251870Y0128426D01*
X0251103Y0127659D01*
X0254172Y0127659D02*
X0254172Y0124590D01*
X0253405Y0123823D01*
X0251870Y0123823D01*
X0251103Y0124590D01*
X0252336Y0117448D02*
X0253870Y0117448D01*
X0254638Y0116681D01*
X0254638Y0115914D01*
X0253870Y0115146D01*
X0252336Y0115146D01*
X0251568Y0115914D01*
X0251568Y0116681D01*
X0252336Y0117448D01*
X0252336Y0115146D02*
X0251568Y0114379D01*
X0251568Y0113612D01*
X0252336Y0112844D01*
X0253870Y0112844D01*
X0254638Y0113612D01*
X0254638Y0114379D01*
X0253870Y0115146D01*
X0255075Y0101472D02*
X0252006Y0101472D01*
X0255075Y0101472D02*
X0255075Y0100705D01*
X0252006Y0097635D01*
X0252006Y0096868D01*
X0255496Y0091593D02*
X0253961Y0090825D01*
X0252427Y0089291D01*
X0254729Y0089291D01*
X0255496Y0088523D01*
X0255496Y0087756D01*
X0254729Y0086989D01*
X0253194Y0086989D01*
X0252427Y0087756D01*
X0252427Y0089291D01*
X0252216Y0081503D02*
X0252216Y0079201D01*
X0253751Y0079968D01*
X0254518Y0079968D01*
X0255286Y0079201D01*
X0255286Y0077666D01*
X0254518Y0076899D01*
X0252984Y0076899D01*
X0252216Y0077666D01*
X0252216Y0081503D02*
X0255286Y0081503D01*
X0254518Y0071413D02*
X0252216Y0069111D01*
X0255286Y0069111D01*
X0254518Y0066809D02*
X0254518Y0071413D01*
X0254729Y0061534D02*
X0255496Y0060766D01*
X0255496Y0059999D01*
X0254729Y0059232D01*
X0255496Y0058464D01*
X0255496Y0057697D01*
X0254729Y0056930D01*
X0253194Y0056930D01*
X0252427Y0057697D01*
X0253961Y0059232D02*
X0254729Y0059232D01*
X0254729Y0061534D02*
X0253194Y0061534D01*
X0252427Y0060766D01*
X0253404Y0051234D02*
X0252637Y0050467D01*
X0253404Y0051234D02*
X0254939Y0051234D01*
X0255706Y0050467D01*
X0255706Y0049699D01*
X0252637Y0046630D01*
X0255706Y0046630D01*
X0254803Y0041144D02*
X0254803Y0036540D01*
X0256337Y0036540D02*
X0253268Y0036540D01*
X0253268Y0039610D02*
X0254803Y0041144D01*
X0255360Y0031475D02*
X0256127Y0030708D01*
X0253058Y0027638D01*
X0253825Y0026871D01*
X0255360Y0026871D01*
X0256127Y0027638D01*
X0256127Y0030708D01*
X0255360Y0031475D02*
X0253825Y0031475D01*
X0253058Y0030708D01*
X0253058Y0027638D01*
X0188684Y0038212D02*
X0187917Y0037444D01*
X0185615Y0037444D01*
X0185615Y0035910D02*
X0185615Y0040514D01*
X0187917Y0040514D01*
X0188684Y0039746D01*
X0188684Y0038212D01*
X0184080Y0037444D02*
X0184080Y0036677D01*
X0183313Y0035910D01*
X0181778Y0035910D01*
X0181011Y0036677D01*
X0179476Y0036677D02*
X0178709Y0035910D01*
X0177174Y0035910D01*
X0176407Y0036677D01*
X0176407Y0039746D01*
X0177174Y0040514D01*
X0178709Y0040514D01*
X0179476Y0039746D01*
X0181011Y0039746D02*
X0181778Y0040514D01*
X0183313Y0040514D01*
X0184080Y0039746D01*
X0183313Y0038212D02*
X0184080Y0037444D01*
X0183313Y0038212D02*
X0181778Y0038212D01*
X0181011Y0038979D01*
X0181011Y0039746D01*
X0174872Y0040514D02*
X0173338Y0040514D01*
X0174105Y0040514D02*
X0174105Y0035910D01*
X0173338Y0035910D02*
X0174872Y0035910D01*
X0115174Y0031895D02*
X0112105Y0031895D01*
X0112105Y0029593D01*
X0113639Y0030361D01*
X0114406Y0030361D01*
X0115174Y0029593D01*
X0115174Y0028059D01*
X0114406Y0027291D01*
X0112872Y0027291D01*
X0112105Y0028059D01*
X0110570Y0027291D02*
X0110570Y0030361D01*
X0109035Y0031895D01*
X0107501Y0030361D01*
X0107501Y0027291D01*
X0107501Y0029593D02*
X0110570Y0029593D01*
X0110149Y0036961D02*
X0110149Y0040030D01*
X0108615Y0041565D01*
X0107080Y0040030D01*
X0107080Y0036961D01*
X0107080Y0039263D02*
X0110149Y0039263D01*
X0111684Y0039263D02*
X0114753Y0039263D01*
X0113986Y0036961D02*
X0113986Y0041565D01*
X0111684Y0039263D01*
X0112661Y0046840D02*
X0111894Y0047607D01*
X0112661Y0046840D02*
X0114196Y0046840D01*
X0114963Y0047607D01*
X0114963Y0048375D01*
X0114196Y0049142D01*
X0113429Y0049142D01*
X0114196Y0049142D02*
X0114963Y0049909D01*
X0114963Y0050677D01*
X0114196Y0051444D01*
X0112661Y0051444D01*
X0111894Y0050677D01*
X0110360Y0049909D02*
X0110360Y0046840D01*
X0110360Y0049142D02*
X0107290Y0049142D01*
X0107290Y0049909D02*
X0108825Y0051444D01*
X0110360Y0049909D01*
X0107290Y0049909D02*
X0107290Y0046840D01*
X0107080Y0056509D02*
X0107080Y0059579D01*
X0108615Y0061113D01*
X0110149Y0059579D01*
X0110149Y0056509D01*
X0111684Y0056509D02*
X0114753Y0059579D01*
X0114753Y0060346D01*
X0113986Y0061113D01*
X0112451Y0061113D01*
X0111684Y0060346D01*
X0110149Y0058811D02*
X0107080Y0058811D01*
X0111684Y0056509D02*
X0114753Y0056509D01*
X0114753Y0066599D02*
X0111684Y0066599D01*
X0113218Y0066599D02*
X0113218Y0071203D01*
X0111684Y0069668D01*
X0110149Y0069668D02*
X0110149Y0066599D01*
X0110149Y0068901D02*
X0107080Y0068901D01*
X0107080Y0069668D02*
X0108615Y0071203D01*
X0110149Y0069668D01*
X0107080Y0069668D02*
X0107080Y0066599D01*
X0106870Y0076899D02*
X0106870Y0079968D01*
X0108404Y0081503D01*
X0109939Y0079968D01*
X0109939Y0076899D01*
X0111473Y0077666D02*
X0114543Y0080736D01*
X0114543Y0077666D01*
X0113775Y0076899D01*
X0112241Y0076899D01*
X0111473Y0077666D01*
X0111473Y0080736D01*
X0112241Y0081503D01*
X0113775Y0081503D01*
X0114543Y0080736D01*
X0109939Y0079201D02*
X0106870Y0079201D01*
X0107563Y0096658D02*
X0109097Y0098193D01*
X0109097Y0101262D01*
X0110632Y0101262D02*
X0112167Y0101262D01*
X0111399Y0101262D02*
X0111399Y0096658D01*
X0110632Y0096658D02*
X0112167Y0096658D01*
X0113701Y0096658D02*
X0113701Y0101262D01*
X0116771Y0096658D01*
X0116771Y0101262D01*
X0117748Y0106958D02*
X0115446Y0106958D01*
X0115446Y0111562D01*
X0117748Y0111562D01*
X0118516Y0110794D01*
X0118516Y0107725D01*
X0117748Y0106958D01*
X0113912Y0106958D02*
X0113912Y0111562D01*
X0110842Y0111562D02*
X0113912Y0106958D01*
X0110842Y0106958D02*
X0110842Y0111562D01*
X0109308Y0110794D02*
X0108540Y0111562D01*
X0107006Y0111562D01*
X0106239Y0110794D01*
X0106239Y0107725D01*
X0107006Y0106958D01*
X0108540Y0106958D01*
X0109308Y0107725D01*
X0109308Y0109260D01*
X0107773Y0109260D01*
X0107006Y0116837D02*
X0108540Y0116837D01*
X0109308Y0117605D01*
X0109308Y0119139D01*
X0107773Y0119139D01*
X0106239Y0117605D02*
X0107006Y0116837D01*
X0106239Y0117605D02*
X0106239Y0120674D01*
X0107006Y0121441D01*
X0108540Y0121441D01*
X0109308Y0120674D01*
X0110842Y0121441D02*
X0113912Y0116837D01*
X0113912Y0121441D01*
X0115446Y0121441D02*
X0117748Y0121441D01*
X0118516Y0120674D01*
X0118516Y0117605D01*
X0117748Y0116837D01*
X0115446Y0116837D01*
X0115446Y0121441D01*
X0110842Y0121441D02*
X0110842Y0116837D01*
X0108961Y0126927D02*
X0107427Y0126927D01*
X0106659Y0127694D01*
X0106659Y0129229D02*
X0108194Y0129996D01*
X0108961Y0129996D01*
X0109728Y0129229D01*
X0109728Y0127694D01*
X0108961Y0126927D01*
X0111263Y0128462D02*
X0112798Y0126927D01*
X0114332Y0128462D01*
X0114332Y0131531D01*
X0111263Y0131531D02*
X0111263Y0128462D01*
X0106659Y0129229D02*
X0106659Y0131531D01*
X0109728Y0131531D01*
X0110842Y0136806D02*
X0111610Y0136806D01*
X0111610Y0137574D01*
X0110842Y0137574D01*
X0110842Y0136806D01*
X0109308Y0137574D02*
X0108540Y0136806D01*
X0107006Y0136806D01*
X0106239Y0137574D01*
X0107773Y0139108D02*
X0108540Y0139108D01*
X0109308Y0138341D01*
X0109308Y0137574D01*
X0108540Y0139108D02*
X0109308Y0139876D01*
X0109308Y0140643D01*
X0108540Y0141410D01*
X0107006Y0141410D01*
X0106239Y0140643D01*
X0106870Y0147316D02*
X0106870Y0151920D01*
X0109172Y0151920D01*
X0109939Y0151153D01*
X0109939Y0149618D01*
X0109172Y0148851D01*
X0106870Y0148851D01*
X0108404Y0148851D02*
X0109939Y0147316D01*
X0111473Y0147316D02*
X0114543Y0147316D01*
X0116077Y0148084D02*
X0116845Y0147316D01*
X0118379Y0147316D01*
X0119147Y0148084D01*
X0119147Y0148851D01*
X0118379Y0149618D01*
X0116845Y0149618D01*
X0116077Y0150386D01*
X0116077Y0151153D01*
X0116845Y0151920D01*
X0118379Y0151920D01*
X0119147Y0151153D01*
X0120681Y0151920D02*
X0120681Y0147316D01*
X0123751Y0147316D01*
X0122216Y0149618D02*
X0120681Y0149618D01*
X0120681Y0151920D02*
X0123751Y0151920D01*
X0125285Y0151920D02*
X0128355Y0151920D01*
X0126820Y0151920D02*
X0126820Y0147316D01*
X0120818Y0141410D02*
X0120818Y0138341D01*
X0119283Y0136806D01*
X0117748Y0138341D01*
X0117748Y0141410D01*
X0116214Y0140643D02*
X0116214Y0139876D01*
X0115446Y0139108D01*
X0116214Y0138341D01*
X0116214Y0137574D01*
X0115446Y0136806D01*
X0113912Y0136806D01*
X0113144Y0137574D01*
X0114679Y0139108D02*
X0115446Y0139108D01*
X0116214Y0140643D02*
X0115446Y0141410D01*
X0113912Y0141410D01*
X0113144Y0140643D01*
X0111473Y0147316D02*
X0111473Y0151920D01*
X0114543Y0151920D01*
X0113008Y0149618D02*
X0111473Y0149618D01*
X0130333Y0107584D02*
X0130333Y0102980D01*
X0133403Y0102980D01*
X0134937Y0104515D02*
X0136472Y0102980D01*
X0138006Y0104515D01*
X0138006Y0107584D01*
X0140124Y0107671D02*
X0140124Y0103068D01*
X0140124Y0105370D02*
X0143193Y0105370D01*
X0144728Y0104602D02*
X0144728Y0107671D01*
X0143193Y0107671D02*
X0143193Y0103068D01*
X0144728Y0104602D02*
X0146262Y0103068D01*
X0147797Y0104602D01*
X0147797Y0107671D01*
X0150611Y0107723D02*
X0150611Y0103119D01*
X0153680Y0103119D01*
X0155215Y0104654D02*
X0156749Y0103119D01*
X0158284Y0104654D01*
X0158284Y0107723D01*
X0160321Y0107739D02*
X0160321Y0103135D01*
X0160321Y0105437D02*
X0163390Y0105437D01*
X0164924Y0104670D02*
X0164924Y0107739D01*
X0163390Y0107739D02*
X0163390Y0103135D01*
X0164924Y0104670D02*
X0166459Y0103135D01*
X0167994Y0104670D01*
X0167994Y0107739D01*
X0180220Y0107671D02*
X0180220Y0103068D01*
X0183289Y0103068D01*
X0184824Y0104602D02*
X0186359Y0103068D01*
X0187893Y0104602D01*
X0187893Y0107671D01*
X0189823Y0107656D02*
X0189823Y0103052D01*
X0189823Y0105354D02*
X0192892Y0105354D01*
X0194426Y0104586D02*
X0194426Y0107656D01*
X0192892Y0107656D02*
X0192892Y0103052D01*
X0194426Y0104586D02*
X0195961Y0103052D01*
X0197496Y0104586D01*
X0197496Y0107656D01*
X0200536Y0107604D02*
X0200536Y0103000D01*
X0203605Y0103000D01*
X0205140Y0104535D02*
X0206674Y0103000D01*
X0208209Y0104535D01*
X0208209Y0107604D01*
X0210506Y0107775D02*
X0210506Y0103171D01*
X0210506Y0105473D02*
X0213576Y0105473D01*
X0215110Y0104705D02*
X0215110Y0107775D01*
X0213576Y0107775D02*
X0213576Y0103171D01*
X0215110Y0104705D02*
X0216645Y0103171D01*
X0218180Y0104705D01*
X0218180Y0107775D01*
X0205140Y0107604D02*
X0205140Y0104535D01*
X0184824Y0104602D02*
X0184824Y0107671D01*
X0155215Y0107723D02*
X0155215Y0104654D01*
X0134937Y0104515D02*
X0134937Y0107584D01*
X0107563Y0096658D02*
X0106028Y0098193D01*
X0106028Y0101262D01*
D14*
X0146269Y0144822D02*
X0149405Y0147958D01*
X0147837Y0147958D02*
X0147837Y0144822D01*
X0149405Y0144822D02*
X0146269Y0147958D01*
X0146269Y0146390D02*
X0149405Y0146390D01*
X0153985Y0160206D02*
X0154952Y0160206D01*
X0155436Y0160690D01*
X0156448Y0160206D02*
X0156448Y0163109D01*
X0155436Y0162625D02*
X0154952Y0163109D01*
X0153985Y0163109D01*
X0153501Y0162625D01*
X0153501Y0160690D01*
X0153985Y0160206D01*
X0156448Y0161658D02*
X0158383Y0161658D01*
X0159394Y0161174D02*
X0160845Y0161174D01*
X0161329Y0161658D01*
X0161329Y0162625D01*
X0160845Y0163109D01*
X0159394Y0163109D01*
X0159394Y0160206D01*
X0158383Y0160206D02*
X0158383Y0163109D01*
X0162341Y0163109D02*
X0162341Y0160206D01*
X0163792Y0160206D01*
X0164276Y0160690D01*
X0164276Y0162625D01*
X0163792Y0163109D01*
X0162341Y0163109D01*
X0165287Y0161658D02*
X0167222Y0161658D01*
X0166255Y0162625D02*
X0166255Y0160690D01*
X0174915Y0160325D02*
X0175882Y0160325D01*
X0175399Y0160325D02*
X0175399Y0163228D01*
X0175882Y0163228D02*
X0174915Y0163228D01*
X0176879Y0162744D02*
X0176879Y0160809D01*
X0177363Y0160325D01*
X0178330Y0160325D01*
X0178814Y0160809D01*
X0178814Y0162744D01*
X0178330Y0163228D01*
X0177363Y0163228D01*
X0176879Y0162744D01*
X0179826Y0162744D02*
X0180309Y0163228D01*
X0181277Y0163228D01*
X0181761Y0162744D01*
X0181761Y0162260D01*
X0179826Y0160325D01*
X0181761Y0160325D01*
X0182772Y0161777D02*
X0184707Y0161777D01*
X0183740Y0162744D02*
X0183740Y0160809D01*
X0192998Y0160325D02*
X0193965Y0160325D01*
X0193481Y0160325D02*
X0193481Y0163228D01*
X0192998Y0163228D02*
X0193965Y0163228D01*
X0194962Y0162744D02*
X0194962Y0160809D01*
X0195446Y0160325D01*
X0196413Y0160325D01*
X0196897Y0160809D01*
X0196897Y0162744D01*
X0196413Y0163228D01*
X0195446Y0163228D01*
X0194962Y0162744D01*
X0197908Y0162260D02*
X0198876Y0163228D01*
X0198876Y0160325D01*
X0199843Y0160325D02*
X0197908Y0160325D01*
X0200855Y0160809D02*
X0201339Y0160325D01*
X0202306Y0160325D01*
X0202790Y0160809D01*
X0202790Y0161777D01*
X0202306Y0162260D01*
X0201822Y0162260D01*
X0200855Y0161777D01*
X0200855Y0163228D01*
X0202790Y0163228D01*
X0203802Y0161777D02*
X0205736Y0161777D01*
X0197563Y0147563D02*
X0194427Y0144427D01*
X0195995Y0144427D02*
X0195995Y0147563D01*
X0194427Y0147563D02*
X0197563Y0144427D01*
X0197563Y0145995D02*
X0194427Y0145995D01*
X0173186Y0145995D02*
X0170050Y0145995D01*
X0170050Y0147563D02*
X0173186Y0144427D01*
X0171618Y0144427D02*
X0171618Y0147563D01*
X0173186Y0147563D02*
X0170050Y0144427D01*
X0219090Y0144428D02*
X0222226Y0147564D01*
X0220658Y0147564D02*
X0220658Y0144428D01*
X0222226Y0144428D02*
X0219090Y0147564D01*
X0219090Y0145996D02*
X0222226Y0145996D01*
X0250907Y0162413D02*
X0251391Y0161929D01*
X0253326Y0161929D01*
X0253810Y0162413D01*
X0253810Y0163380D01*
X0253326Y0163864D01*
X0252359Y0163864D01*
X0252359Y0162896D01*
X0251391Y0163864D02*
X0250907Y0163380D01*
X0250907Y0162413D01*
X0250907Y0164875D02*
X0253810Y0166810D01*
X0250907Y0166810D01*
X0250907Y0167822D02*
X0250907Y0169273D01*
X0251391Y0169757D01*
X0253326Y0169757D01*
X0253810Y0169273D01*
X0253810Y0167822D01*
X0250907Y0167822D01*
X0250907Y0164875D02*
X0253810Y0164875D01*
X0253300Y0173795D02*
X0253300Y0175730D01*
X0253300Y0174762D02*
X0250398Y0174762D01*
X0251365Y0173795D01*
X0251849Y0176741D02*
X0251365Y0177709D01*
X0251365Y0178192D01*
X0251849Y0178676D01*
X0252816Y0178676D01*
X0253300Y0178192D01*
X0253300Y0177225D01*
X0252816Y0176741D01*
X0251849Y0176741D02*
X0250398Y0176741D01*
X0250398Y0178676D01*
X0250891Y0185281D02*
X0250407Y0185764D01*
X0250407Y0186732D01*
X0250891Y0187216D01*
X0251375Y0187216D01*
X0253310Y0185281D01*
X0253310Y0187216D01*
X0253194Y0195288D02*
X0251259Y0197223D01*
X0253194Y0197223D01*
X0253678Y0196740D01*
X0253678Y0195772D01*
X0253194Y0195288D01*
X0251259Y0195288D01*
X0250775Y0195772D01*
X0250775Y0196740D01*
X0251259Y0197223D01*
X0251964Y0204973D02*
X0251964Y0206908D01*
X0253415Y0206424D02*
X0250513Y0206424D01*
X0251964Y0204973D01*
X0251772Y0214932D02*
X0251289Y0215899D01*
X0251289Y0216383D01*
X0251772Y0216867D01*
X0252740Y0216867D01*
X0253223Y0216383D01*
X0253223Y0215416D01*
X0252740Y0214932D01*
X0251772Y0214932D02*
X0250321Y0214932D01*
X0250321Y0216867D01*
X0250028Y0223317D02*
X0250028Y0225169D01*
X0250645Y0225786D01*
X0251879Y0225786D01*
X0252496Y0225169D01*
X0252496Y0223317D01*
X0252496Y0224552D02*
X0253731Y0225786D01*
X0253731Y0227000D02*
X0250028Y0229469D01*
X0250028Y0227000D02*
X0253731Y0229469D01*
X0253633Y0234101D02*
X0249929Y0234101D01*
X0249929Y0232867D02*
X0249929Y0235336D01*
X0249929Y0236550D02*
X0253633Y0239019D01*
X0253633Y0236550D02*
X0249929Y0239019D01*
X0250028Y0223317D02*
X0253731Y0223317D01*
X0186859Y0203202D02*
X0183723Y0200066D01*
X0183723Y0201634D02*
X0186859Y0201634D01*
X0186859Y0200066D02*
X0183723Y0203202D01*
X0185291Y0203202D02*
X0185291Y0200066D01*
X0160831Y0200029D02*
X0157695Y0203165D01*
X0157695Y0201597D02*
X0160831Y0201597D01*
X0160831Y0203165D02*
X0157695Y0200029D01*
X0159263Y0200029D02*
X0159263Y0203165D01*
X0161883Y0225564D02*
X0163818Y0225564D01*
X0164830Y0226048D02*
X0165313Y0225564D01*
X0166281Y0225564D01*
X0166765Y0226048D01*
X0166765Y0226532D01*
X0166281Y0227015D01*
X0165313Y0227015D01*
X0164830Y0227499D01*
X0164830Y0227983D01*
X0165313Y0228467D01*
X0166281Y0228467D01*
X0166765Y0227983D01*
X0167776Y0228467D02*
X0167776Y0225564D01*
X0167776Y0226532D02*
X0169227Y0226532D01*
X0169711Y0227015D01*
X0169711Y0227983D01*
X0169227Y0228467D01*
X0167776Y0228467D01*
X0170723Y0227499D02*
X0171690Y0228467D01*
X0171690Y0225564D01*
X0170723Y0225564D02*
X0172658Y0225564D01*
X0173669Y0225564D02*
X0175604Y0227499D01*
X0175604Y0227983D01*
X0175120Y0228467D01*
X0174153Y0228467D01*
X0173669Y0227983D01*
X0173669Y0225564D02*
X0175604Y0225564D01*
X0163818Y0228467D02*
X0161883Y0228467D01*
X0161883Y0225564D01*
X0161883Y0227015D02*
X0162851Y0227015D01*
X0114220Y0245618D02*
X0111084Y0248754D01*
X0112652Y0248754D02*
X0112652Y0245618D01*
X0111084Y0245618D02*
X0114220Y0248754D01*
X0114220Y0247186D02*
X0111084Y0247186D01*
X0097343Y0241512D02*
X0097343Y0240086D01*
X0096867Y0239611D01*
X0095917Y0239611D01*
X0095441Y0240086D01*
X0095441Y0241512D01*
X0094491Y0241512D02*
X0097343Y0241512D01*
X0095441Y0240562D02*
X0094491Y0239611D01*
X0094491Y0238612D02*
X0094491Y0236711D01*
X0094966Y0235712D02*
X0094491Y0235237D01*
X0094491Y0234286D01*
X0094966Y0233811D01*
X0095441Y0233811D01*
X0095917Y0234286D01*
X0095917Y0235237D01*
X0096392Y0235712D01*
X0096867Y0235712D01*
X0097343Y0235237D01*
X0097343Y0234286D01*
X0096867Y0233811D01*
X0097343Y0232812D02*
X0097343Y0230911D01*
X0097343Y0231861D02*
X0094491Y0231861D01*
X0094571Y0230459D02*
X0096506Y0230459D01*
X0097473Y0229491D01*
X0096506Y0228524D01*
X0094571Y0228524D01*
X0094571Y0227512D02*
X0094571Y0226061D01*
X0095055Y0225577D01*
X0096990Y0225577D01*
X0097473Y0226061D01*
X0097473Y0227512D01*
X0094571Y0227512D01*
X0096022Y0228524D02*
X0096022Y0230459D01*
X0095055Y0224566D02*
X0094571Y0224082D01*
X0094571Y0223115D01*
X0095055Y0222631D01*
X0096990Y0222631D02*
X0097473Y0223115D01*
X0097473Y0224082D01*
X0096990Y0224566D01*
X0095055Y0224566D01*
X0095348Y0220029D02*
X0094865Y0219545D01*
X0094865Y0218578D01*
X0095348Y0218094D01*
X0094865Y0217083D02*
X0097767Y0217083D01*
X0097283Y0218094D02*
X0097767Y0218578D01*
X0097767Y0219545D01*
X0097283Y0220029D01*
X0095348Y0220029D01*
X0096316Y0217083D02*
X0096316Y0215148D01*
X0095832Y0214136D02*
X0095832Y0212685D01*
X0096316Y0212201D01*
X0097283Y0212201D01*
X0097767Y0212685D01*
X0097767Y0214136D01*
X0094865Y0214136D01*
X0094865Y0215148D02*
X0097767Y0215148D01*
X0097767Y0211190D02*
X0094865Y0211190D01*
X0094865Y0209738D01*
X0095348Y0209255D01*
X0097283Y0209255D01*
X0097767Y0209738D01*
X0097767Y0211190D01*
X0097021Y0207560D02*
X0097989Y0206592D01*
X0095086Y0206592D01*
X0095086Y0205625D02*
X0095086Y0207560D01*
X0095570Y0204613D02*
X0095086Y0204129D01*
X0095086Y0203162D01*
X0095570Y0202678D01*
X0096054Y0202678D01*
X0096538Y0203162D01*
X0096538Y0204613D01*
X0095570Y0204613D01*
X0096538Y0204613D02*
X0097505Y0203646D01*
X0097989Y0202678D01*
X0096999Y0198358D02*
X0097966Y0197391D01*
X0095064Y0197391D01*
X0095064Y0198358D02*
X0095064Y0196423D01*
X0096515Y0195412D02*
X0096515Y0193477D01*
X0095064Y0193961D02*
X0097966Y0193961D01*
X0096515Y0195412D01*
X0096923Y0188109D02*
X0097891Y0187141D01*
X0094988Y0187141D01*
X0094988Y0186174D02*
X0094988Y0188109D01*
X0094988Y0185162D02*
X0096923Y0183227D01*
X0097407Y0183227D01*
X0097891Y0183711D01*
X0097891Y0184678D01*
X0097407Y0185162D01*
X0094988Y0185162D02*
X0094988Y0183227D01*
X0094798Y0177966D02*
X0094798Y0176031D01*
X0094798Y0176998D02*
X0097700Y0176998D01*
X0096733Y0177966D01*
X0097217Y0175019D02*
X0097700Y0174535D01*
X0097700Y0173568D01*
X0097217Y0173084D01*
X0096733Y0173084D01*
X0096249Y0173568D01*
X0095766Y0173084D01*
X0095282Y0173084D01*
X0094798Y0173568D01*
X0094798Y0174535D01*
X0095282Y0175019D01*
X0096249Y0174052D02*
X0096249Y0173568D01*
X0095671Y0169620D02*
X0094704Y0168653D01*
X0095671Y0167685D01*
X0097606Y0167685D01*
X0097123Y0166674D02*
X0095188Y0166674D01*
X0094704Y0166190D01*
X0094704Y0165223D01*
X0095188Y0164739D01*
X0095188Y0163727D02*
X0094704Y0163244D01*
X0094704Y0162276D01*
X0095188Y0161792D01*
X0097123Y0161792D02*
X0097606Y0162276D01*
X0097606Y0163244D01*
X0097123Y0163727D01*
X0095188Y0163727D01*
X0097123Y0164739D02*
X0097606Y0165223D01*
X0097606Y0166190D01*
X0097123Y0166674D01*
X0097606Y0169620D02*
X0095671Y0169620D01*
X0097343Y0236711D02*
X0097343Y0238612D01*
X0094491Y0238612D01*
X0095917Y0238612D02*
X0095917Y0237661D01*
X0251941Y0035713D02*
X0253876Y0035713D01*
X0252908Y0035713D02*
X0252908Y0032811D01*
X0254887Y0032811D02*
X0256822Y0035713D01*
X0254887Y0035713D02*
X0256822Y0032811D01*
X0257107Y0025948D02*
X0255172Y0023045D01*
X0254161Y0023045D02*
X0253193Y0024013D01*
X0253677Y0024013D02*
X0252226Y0024013D01*
X0252226Y0023045D02*
X0252226Y0025948D01*
X0253677Y0025948D01*
X0254161Y0025464D01*
X0254161Y0024497D01*
X0253677Y0024013D01*
X0255172Y0025948D02*
X0257107Y0023045D01*
D15*
X0216085Y0109126D02*
X0209195Y0109126D01*
X0201917Y0109150D01*
X0193185Y0109126D02*
X0184661Y0109126D01*
X0184661Y0109150D01*
X0184592Y0119124D02*
X0184592Y0119147D01*
X0192816Y0119147D01*
X0201711Y0119170D02*
X0216027Y0119170D01*
X0208826Y0119147D02*
X0201711Y0119170D01*
X0165707Y0118957D02*
X0151842Y0118957D01*
X0144025Y0118957D02*
X0135686Y0118930D01*
X0135091Y0118934D01*
X0135039Y0108933D02*
X0135797Y0108910D01*
X0144689Y0108910D01*
X0152348Y0108937D02*
X0165910Y0108937D01*
D16*
X0168709Y0125285D02*
X0160409Y0125285D01*
X0160409Y0129385D01*
X0168709Y0129385D01*
X0168709Y0125285D01*
X0191717Y0125285D02*
X0191717Y0129385D01*
X0200017Y0129385D01*
X0200017Y0125285D01*
X0191717Y0125285D01*
X0212842Y0125567D02*
X0212842Y0129667D01*
X0221142Y0129667D01*
X0221142Y0125567D01*
X0212842Y0125567D01*
X0208751Y0152295D02*
X0208751Y0156395D01*
X0217051Y0156395D01*
X0217051Y0152295D01*
X0208751Y0152295D01*
X0192797Y0152453D02*
X0192797Y0156553D01*
X0184497Y0156553D01*
X0184497Y0152453D01*
X0192797Y0152453D01*
X0167993Y0151667D02*
X0167993Y0155767D01*
X0159693Y0155767D01*
X0159693Y0151667D01*
X0167993Y0151667D01*
X0144371Y0151665D02*
X0144371Y0155765D01*
X0136071Y0155765D01*
X0136071Y0151665D01*
X0144371Y0151665D01*
X0144053Y0129385D02*
X0135753Y0129385D01*
X0135753Y0125285D01*
X0144053Y0125285D01*
X0144053Y0129385D01*
X0164418Y0189040D02*
X0164418Y0193140D01*
X0172718Y0193140D01*
X0172718Y0189040D01*
X0164418Y0189040D01*
X0189567Y0189195D02*
X0189567Y0193295D01*
X0197867Y0193295D01*
X0197867Y0189195D01*
X0189567Y0189195D01*
X0188706Y0218596D02*
X0188706Y0222696D01*
X0197006Y0222696D01*
X0197006Y0218596D01*
X0188706Y0218596D01*
X0171146Y0218523D02*
X0171146Y0222623D01*
X0162846Y0222623D01*
X0162846Y0218523D01*
X0171146Y0218523D01*
X0255599Y0233909D02*
X0255599Y0273648D01*
X0278582Y0273648D01*
X0278582Y0233764D01*
X0255745Y0233764D01*
X0255745Y0233861D01*
X0255794Y0233861D01*
X0255794Y0233909D01*
X0255696Y0233909D01*
X0255696Y0233764D01*
X0255745Y0233764D01*
X0261603Y0245832D02*
X0272627Y0245832D01*
X0272627Y0261580D01*
X0261603Y0261580D01*
X0261603Y0245832D01*
D17*
X0211012Y0240917D02*
X0211012Y0175957D01*
X0201170Y0175957D01*
X0201170Y0240917D01*
X0211012Y0240917D01*
X0155107Y0240917D02*
X0155107Y0175957D01*
X0145264Y0175957D01*
X0145264Y0240917D01*
X0155107Y0240917D01*
X0156201Y0172673D02*
X0162701Y0172673D01*
X0162761Y0172671D01*
X0162822Y0172666D01*
X0162881Y0172657D01*
X0162940Y0172644D01*
X0162999Y0172628D01*
X0163056Y0172608D01*
X0163111Y0172585D01*
X0163166Y0172558D01*
X0163218Y0172529D01*
X0163269Y0172496D01*
X0163318Y0172460D01*
X0163364Y0172422D01*
X0163408Y0172380D01*
X0163450Y0172336D01*
X0163488Y0172290D01*
X0163524Y0172241D01*
X0163557Y0172190D01*
X0163586Y0172138D01*
X0163613Y0172083D01*
X0163636Y0172028D01*
X0163656Y0171971D01*
X0163672Y0171912D01*
X0163685Y0171853D01*
X0163694Y0171794D01*
X0163699Y0171733D01*
X0163701Y0171673D01*
X0156201Y0172673D02*
X0156141Y0172671D01*
X0156080Y0172666D01*
X0156021Y0172657D01*
X0155962Y0172644D01*
X0155903Y0172628D01*
X0155846Y0172608D01*
X0155791Y0172585D01*
X0155736Y0172558D01*
X0155684Y0172529D01*
X0155633Y0172496D01*
X0155584Y0172460D01*
X0155538Y0172422D01*
X0155494Y0172380D01*
X0155452Y0172336D01*
X0155414Y0172290D01*
X0155378Y0172241D01*
X0155345Y0172190D01*
X0155316Y0172138D01*
X0155289Y0172083D01*
X0155266Y0172028D01*
X0155246Y0171971D01*
X0155230Y0171912D01*
X0155217Y0171853D01*
X0155208Y0171794D01*
X0155203Y0171733D01*
X0155201Y0171673D01*
X0155201Y0165673D02*
X0155203Y0165613D01*
X0155208Y0165552D01*
X0155217Y0165493D01*
X0155230Y0165434D01*
X0155246Y0165375D01*
X0155266Y0165318D01*
X0155289Y0165263D01*
X0155316Y0165208D01*
X0155345Y0165156D01*
X0155378Y0165105D01*
X0155414Y0165056D01*
X0155452Y0165010D01*
X0155494Y0164966D01*
X0155538Y0164924D01*
X0155584Y0164886D01*
X0155633Y0164850D01*
X0155684Y0164817D01*
X0155736Y0164788D01*
X0155791Y0164761D01*
X0155846Y0164738D01*
X0155903Y0164718D01*
X0155962Y0164702D01*
X0156021Y0164689D01*
X0156080Y0164680D01*
X0156141Y0164675D01*
X0156201Y0164673D01*
X0162701Y0164673D01*
X0162761Y0164675D01*
X0162822Y0164680D01*
X0162881Y0164689D01*
X0162940Y0164702D01*
X0162999Y0164718D01*
X0163056Y0164738D01*
X0163111Y0164761D01*
X0163166Y0164788D01*
X0163218Y0164817D01*
X0163269Y0164850D01*
X0163318Y0164886D01*
X0163364Y0164924D01*
X0163408Y0164966D01*
X0163450Y0165010D01*
X0163488Y0165056D01*
X0163524Y0165105D01*
X0163557Y0165156D01*
X0163586Y0165208D01*
X0163613Y0165263D01*
X0163636Y0165318D01*
X0163656Y0165375D01*
X0163672Y0165434D01*
X0163685Y0165493D01*
X0163694Y0165552D01*
X0163699Y0165613D01*
X0163701Y0165673D01*
X0174455Y0165673D02*
X0174457Y0165613D01*
X0174462Y0165552D01*
X0174471Y0165493D01*
X0174484Y0165434D01*
X0174500Y0165375D01*
X0174520Y0165318D01*
X0174543Y0165263D01*
X0174570Y0165208D01*
X0174599Y0165156D01*
X0174632Y0165105D01*
X0174668Y0165056D01*
X0174706Y0165010D01*
X0174748Y0164966D01*
X0174792Y0164924D01*
X0174838Y0164886D01*
X0174887Y0164850D01*
X0174938Y0164817D01*
X0174990Y0164788D01*
X0175045Y0164761D01*
X0175100Y0164738D01*
X0175157Y0164718D01*
X0175216Y0164702D01*
X0175275Y0164689D01*
X0175334Y0164680D01*
X0175395Y0164675D01*
X0175455Y0164673D01*
X0181955Y0164673D01*
X0182015Y0164675D01*
X0182076Y0164680D01*
X0182135Y0164689D01*
X0182194Y0164702D01*
X0182253Y0164718D01*
X0182310Y0164738D01*
X0182365Y0164761D01*
X0182420Y0164788D01*
X0182472Y0164817D01*
X0182523Y0164850D01*
X0182572Y0164886D01*
X0182618Y0164924D01*
X0182662Y0164966D01*
X0182704Y0165010D01*
X0182742Y0165056D01*
X0182778Y0165105D01*
X0182811Y0165156D01*
X0182840Y0165208D01*
X0182867Y0165263D01*
X0182890Y0165318D01*
X0182910Y0165375D01*
X0182926Y0165434D01*
X0182939Y0165493D01*
X0182948Y0165552D01*
X0182953Y0165613D01*
X0182955Y0165673D01*
X0182955Y0171673D02*
X0182953Y0171733D01*
X0182948Y0171794D01*
X0182939Y0171853D01*
X0182926Y0171912D01*
X0182910Y0171971D01*
X0182890Y0172028D01*
X0182867Y0172083D01*
X0182840Y0172138D01*
X0182811Y0172190D01*
X0182778Y0172241D01*
X0182742Y0172290D01*
X0182704Y0172336D01*
X0182662Y0172380D01*
X0182618Y0172422D01*
X0182572Y0172460D01*
X0182523Y0172496D01*
X0182472Y0172529D01*
X0182420Y0172558D01*
X0182365Y0172585D01*
X0182310Y0172608D01*
X0182253Y0172628D01*
X0182194Y0172644D01*
X0182135Y0172657D01*
X0182076Y0172666D01*
X0182015Y0172671D01*
X0181955Y0172673D01*
X0175455Y0172673D01*
X0175395Y0172671D01*
X0175334Y0172666D01*
X0175275Y0172657D01*
X0175216Y0172644D01*
X0175157Y0172628D01*
X0175100Y0172608D01*
X0175045Y0172585D01*
X0174990Y0172558D01*
X0174938Y0172529D01*
X0174887Y0172496D01*
X0174838Y0172460D01*
X0174792Y0172422D01*
X0174748Y0172380D01*
X0174706Y0172336D01*
X0174668Y0172290D01*
X0174632Y0172241D01*
X0174599Y0172190D01*
X0174570Y0172138D01*
X0174543Y0172083D01*
X0174520Y0172028D01*
X0174500Y0171971D01*
X0174484Y0171912D01*
X0174471Y0171853D01*
X0174462Y0171794D01*
X0174457Y0171733D01*
X0174455Y0171673D01*
X0192811Y0171673D02*
X0192813Y0171733D01*
X0192818Y0171794D01*
X0192827Y0171853D01*
X0192840Y0171912D01*
X0192856Y0171971D01*
X0192876Y0172028D01*
X0192899Y0172083D01*
X0192926Y0172138D01*
X0192955Y0172190D01*
X0192988Y0172241D01*
X0193024Y0172290D01*
X0193062Y0172336D01*
X0193104Y0172380D01*
X0193148Y0172422D01*
X0193194Y0172460D01*
X0193243Y0172496D01*
X0193294Y0172529D01*
X0193346Y0172558D01*
X0193401Y0172585D01*
X0193456Y0172608D01*
X0193513Y0172628D01*
X0193572Y0172644D01*
X0193631Y0172657D01*
X0193690Y0172666D01*
X0193751Y0172671D01*
X0193811Y0172673D01*
X0200311Y0172673D01*
X0200371Y0172671D01*
X0200432Y0172666D01*
X0200491Y0172657D01*
X0200550Y0172644D01*
X0200609Y0172628D01*
X0200666Y0172608D01*
X0200721Y0172585D01*
X0200776Y0172558D01*
X0200828Y0172529D01*
X0200879Y0172496D01*
X0200928Y0172460D01*
X0200974Y0172422D01*
X0201018Y0172380D01*
X0201060Y0172336D01*
X0201098Y0172290D01*
X0201134Y0172241D01*
X0201167Y0172190D01*
X0201196Y0172138D01*
X0201223Y0172083D01*
X0201246Y0172028D01*
X0201266Y0171971D01*
X0201282Y0171912D01*
X0201295Y0171853D01*
X0201304Y0171794D01*
X0201309Y0171733D01*
X0201311Y0171673D01*
X0201311Y0165673D02*
X0201309Y0165613D01*
X0201304Y0165552D01*
X0201295Y0165493D01*
X0201282Y0165434D01*
X0201266Y0165375D01*
X0201246Y0165318D01*
X0201223Y0165263D01*
X0201196Y0165208D01*
X0201167Y0165156D01*
X0201134Y0165105D01*
X0201098Y0165056D01*
X0201060Y0165010D01*
X0201018Y0164966D01*
X0200974Y0164924D01*
X0200928Y0164886D01*
X0200879Y0164850D01*
X0200828Y0164817D01*
X0200776Y0164788D01*
X0200721Y0164761D01*
X0200666Y0164738D01*
X0200609Y0164718D01*
X0200550Y0164702D01*
X0200491Y0164689D01*
X0200432Y0164680D01*
X0200371Y0164675D01*
X0200311Y0164673D01*
X0193811Y0164673D01*
X0193751Y0164675D01*
X0193690Y0164680D01*
X0193631Y0164689D01*
X0193572Y0164702D01*
X0193513Y0164718D01*
X0193456Y0164738D01*
X0193401Y0164761D01*
X0193346Y0164788D01*
X0193294Y0164817D01*
X0193243Y0164850D01*
X0193194Y0164886D01*
X0193148Y0164924D01*
X0193104Y0164966D01*
X0193062Y0165010D01*
X0193024Y0165056D01*
X0192988Y0165105D01*
X0192955Y0165156D01*
X0192926Y0165208D01*
X0192899Y0165263D01*
X0192876Y0165318D01*
X0192856Y0165375D01*
X0192840Y0165434D01*
X0192827Y0165493D01*
X0192818Y0165552D01*
X0192813Y0165613D01*
X0192811Y0165673D01*
X0193709Y0033848D02*
X0198709Y0033848D01*
X0201209Y0031348D01*
X0201209Y0016348D01*
X0198709Y0013848D01*
X0193709Y0013848D01*
X0191209Y0016348D01*
X0191209Y0031348D01*
X0193709Y0033848D01*
X0191209Y0031348D02*
X0188709Y0033848D01*
X0183709Y0033848D01*
X0181209Y0031348D01*
X0181209Y0016348D01*
X0183709Y0013848D01*
X0188709Y0013848D01*
X0191209Y0016348D01*
X0181209Y0016348D02*
X0178709Y0013848D01*
X0173709Y0013848D01*
X0171209Y0016348D01*
X0171209Y0031348D01*
X0173709Y0033848D01*
X0178709Y0033848D01*
X0181209Y0031348D01*
X0178709Y0012529D02*
X0173709Y0012529D01*
M02*
