G75*
%MOIN*%
%OFA0B0*%
%FSLAX25Y25*%
%IPPOS*%
%LPD*%
%AMOC8*
5,1,8,0,0,1.08239X$1,22.5*
%
%ADD10C,0.06000*%
%ADD11R,0.05600X0.05600*%
%ADD12C,0.05600*%
%ADD13OC8,0.06000*%
%ADD14OC8,0.07400*%
%ADD15C,0.01600*%
%ADD16R,0.03962X0.03962*%
%ADD17OC8,0.03962*%
%ADD18OC8,0.05906*%
D10*
X0083170Y0029224D02*
X0089170Y0029224D01*
X0095965Y0029224D02*
X0101965Y0029224D01*
X0101965Y0039224D02*
X0095965Y0039224D01*
X0089170Y0039224D02*
X0083170Y0039224D01*
X0083170Y0049224D02*
X0089170Y0049224D01*
X0095965Y0049224D02*
X0101965Y0049224D01*
X0101965Y0059224D02*
X0095965Y0059224D01*
X0089170Y0059224D02*
X0083170Y0059224D01*
X0083170Y0069224D02*
X0089170Y0069224D01*
X0095965Y0069224D02*
X0101965Y0069224D01*
X0101965Y0079224D02*
X0095965Y0079224D01*
X0089170Y0079224D02*
X0083170Y0079224D01*
X0083170Y0099224D02*
X0089170Y0099224D01*
X0095965Y0099224D02*
X0101965Y0099224D01*
X0101965Y0109224D02*
X0095965Y0109224D01*
X0089170Y0109224D02*
X0083170Y0109224D01*
X0083170Y0119224D02*
X0089170Y0119224D01*
X0095965Y0119224D02*
X0101965Y0119224D01*
X0101965Y0129224D02*
X0095965Y0129224D01*
X0089170Y0129224D02*
X0083170Y0129224D01*
X0083170Y0139224D02*
X0089170Y0139224D01*
X0095965Y0139224D02*
X0101965Y0139224D01*
X0101965Y0149224D02*
X0095965Y0149224D01*
X0089170Y0149224D02*
X0083170Y0149224D01*
X0102544Y0166067D02*
X0108544Y0166067D01*
X0115690Y0165957D02*
X0121690Y0165957D01*
X0121690Y0175957D02*
X0115690Y0175957D01*
X0108544Y0176067D02*
X0102544Y0176067D01*
X0102544Y0186067D02*
X0108544Y0186067D01*
X0115690Y0185957D02*
X0121690Y0185957D01*
X0121690Y0195957D02*
X0115690Y0195957D01*
X0108544Y0196067D02*
X0102544Y0196067D01*
X0102544Y0206067D02*
X0108544Y0206067D01*
X0115690Y0205957D02*
X0121690Y0205957D01*
X0121690Y0215957D02*
X0115690Y0215957D01*
X0108544Y0216067D02*
X0102544Y0216067D01*
X0102544Y0226067D02*
X0108544Y0226067D01*
X0115690Y0225957D02*
X0121690Y0225957D01*
X0121690Y0235957D02*
X0115690Y0235957D01*
X0108544Y0236067D02*
X0102544Y0236067D01*
X0225926Y0235957D02*
X0231926Y0235957D01*
X0239179Y0236081D02*
X0245179Y0236081D01*
X0245179Y0226081D02*
X0239179Y0226081D01*
X0231926Y0225957D02*
X0225926Y0225957D01*
X0225926Y0215957D02*
X0231926Y0215957D01*
X0239179Y0216081D02*
X0245179Y0216081D01*
X0245179Y0206081D02*
X0239179Y0206081D01*
X0231926Y0205957D02*
X0225926Y0205957D01*
X0225926Y0195957D02*
X0231926Y0195957D01*
X0239179Y0196081D02*
X0245179Y0196081D01*
X0245179Y0186081D02*
X0239179Y0186081D01*
X0231926Y0185957D02*
X0225926Y0185957D01*
X0225926Y0175957D02*
X0231926Y0175957D01*
X0239179Y0176081D02*
X0245179Y0176081D01*
X0245179Y0166081D02*
X0239179Y0166081D01*
X0231926Y0165957D02*
X0225926Y0165957D01*
X0260039Y0165648D02*
X0266039Y0165648D01*
X0273255Y0165314D02*
X0279255Y0165314D01*
X0279255Y0155314D02*
X0273255Y0155314D01*
X0266039Y0155648D02*
X0260039Y0155648D01*
X0260039Y0145648D02*
X0266039Y0145648D01*
X0273255Y0145314D02*
X0279255Y0145314D01*
X0279255Y0135314D02*
X0273255Y0135314D01*
X0266039Y0135648D02*
X0260039Y0135648D01*
X0260039Y0125648D02*
X0266039Y0125648D01*
X0273255Y0125314D02*
X0279255Y0125314D01*
X0279255Y0115314D02*
X0273255Y0115314D01*
X0266039Y0115648D02*
X0260039Y0115648D01*
X0260206Y0099399D02*
X0266206Y0099399D01*
X0273589Y0099566D02*
X0279589Y0099566D01*
X0279589Y0089566D02*
X0273589Y0089566D01*
X0266206Y0089399D02*
X0260206Y0089399D01*
X0260206Y0079399D02*
X0266206Y0079399D01*
X0273589Y0079566D02*
X0279589Y0079566D01*
X0279589Y0069566D02*
X0273589Y0069566D01*
X0266206Y0069399D02*
X0260206Y0069399D01*
X0260206Y0059399D02*
X0266206Y0059399D01*
X0273589Y0059566D02*
X0279589Y0059566D01*
X0279589Y0049566D02*
X0273589Y0049566D01*
X0266206Y0049399D02*
X0260206Y0049399D01*
X0260206Y0039399D02*
X0266206Y0039399D01*
X0273589Y0039566D02*
X0279589Y0039566D01*
X0279589Y0029566D02*
X0273589Y0029566D01*
X0266206Y0029399D02*
X0260206Y0029399D01*
X0260039Y0175648D02*
X0266039Y0175648D01*
X0273255Y0175314D02*
X0279255Y0175314D01*
X0279255Y0185314D02*
X0273255Y0185314D01*
X0266039Y0185648D02*
X0260039Y0185648D01*
X0260039Y0195648D02*
X0266039Y0195648D01*
X0273255Y0195314D02*
X0279255Y0195314D01*
X0279255Y0205314D02*
X0273255Y0205314D01*
X0266039Y0205648D02*
X0260039Y0205648D01*
D11*
X0206091Y0235996D03*
X0150186Y0235996D03*
D12*
X0150186Y0228122D03*
X0150186Y0220248D03*
X0150186Y0212374D03*
X0150186Y0204500D03*
X0150186Y0196626D03*
X0150186Y0188752D03*
X0150186Y0180878D03*
X0206091Y0180878D03*
X0206091Y0188752D03*
X0206091Y0196626D03*
X0206091Y0204500D03*
X0206091Y0212374D03*
X0206091Y0220248D03*
X0206091Y0228122D03*
D13*
X0194928Y0257756D03*
X0194928Y0267756D03*
X0184928Y0267756D03*
X0184928Y0257756D03*
X0174928Y0257756D03*
X0164928Y0257756D03*
X0164928Y0267756D03*
X0174928Y0267756D03*
X0250151Y0145647D03*
X0250522Y0135544D03*
X0213926Y0114161D03*
X0203926Y0114144D03*
X0193926Y0114151D03*
X0183926Y0114153D03*
X0163926Y0113949D03*
X0153926Y0113949D03*
X0143926Y0113949D03*
X0133926Y0113949D03*
D14*
X0176209Y0028848D03*
X0176209Y0018848D03*
X0186209Y0018848D03*
X0196209Y0018848D03*
X0196209Y0028848D03*
X0186209Y0028848D03*
D15*
X0211861Y0038131D02*
X0211861Y0062136D01*
X0211728Y0062136D01*
X0217618Y0055396D02*
X0217722Y0055396D01*
X0217722Y0070114D01*
X0241604Y0070114D01*
X0241645Y0070073D01*
X0241645Y0092715D01*
X0241748Y0092818D01*
X0241612Y0145703D01*
X0242181Y0145700D01*
X0241571Y0145700D01*
X0241571Y0156568D01*
X0251578Y0156568D01*
X0251538Y0242428D01*
X0198658Y0242428D01*
X0189809Y0233971D01*
X0189809Y0231948D01*
X0189900Y0232039D01*
X0182200Y0226827D02*
X0199160Y0226827D01*
X0200455Y0228122D01*
X0206091Y0228122D01*
X0209492Y0228124D01*
X0221955Y0227893D01*
X0223891Y0225957D01*
X0228926Y0225957D01*
X0229050Y0226081D01*
X0242179Y0226081D01*
X0242055Y0235957D02*
X0242179Y0236081D01*
X0242055Y0235957D02*
X0228926Y0235957D01*
X0228926Y0235996D01*
X0206091Y0235996D01*
X0213726Y0248123D02*
X0213726Y0253653D01*
X0221177Y0253653D01*
X0215895Y0259369D02*
X0205060Y0259369D01*
X0205060Y0251148D01*
X0186244Y0251148D01*
X0184928Y0252464D01*
X0184928Y0257756D01*
X0174928Y0257756D02*
X0174928Y0251556D01*
X0176134Y0250350D01*
X0176134Y0250284D01*
X0177132Y0249286D01*
X0177132Y0249220D01*
X0178390Y0248199D01*
X0213726Y0248123D01*
X0222664Y0245247D02*
X0223311Y0245306D01*
X0236016Y0245306D01*
X0236016Y0255409D01*
X0235902Y0255522D01*
X0258435Y0255508D01*
X0222664Y0245247D02*
X0174092Y0245082D01*
X0164932Y0235996D01*
X0150186Y0235996D01*
X0150186Y0262801D01*
X0174917Y0262801D01*
X0174917Y0267756D01*
X0174928Y0267756D01*
X0178631Y0274169D02*
X0151557Y0274169D01*
X0146885Y0271490D01*
X0146885Y0250146D01*
X0143921Y0247182D01*
X0143921Y0226512D01*
X0143900Y0226297D01*
X0143900Y0220515D01*
X0147251Y0220515D01*
X0148801Y0220496D01*
X0150186Y0220248D01*
X0143900Y0220515D02*
X0140143Y0220515D01*
X0135585Y0215957D01*
X0118690Y0215957D01*
X0126453Y0216067D01*
X0105544Y0216067D01*
X0105544Y0206067D02*
X0126453Y0206067D01*
X0118690Y0205957D01*
X0134315Y0205957D01*
X0140850Y0212492D01*
X0150068Y0212492D01*
X0150186Y0212374D01*
X0150186Y0204500D02*
X0150054Y0204368D01*
X0141697Y0204368D01*
X0133285Y0195957D01*
X0118690Y0195957D01*
X0126453Y0196067D01*
X0105544Y0196067D01*
X0105544Y0186067D02*
X0126453Y0186067D01*
X0118690Y0185957D01*
X0131240Y0185957D01*
X0142035Y0196752D01*
X0150060Y0196752D01*
X0150186Y0196626D01*
X0149971Y0188966D02*
X0150186Y0188752D01*
X0149971Y0188966D02*
X0143221Y0188966D01*
X0130211Y0175957D01*
X0118690Y0175957D01*
X0126453Y0176067D01*
X0105544Y0176067D01*
X0105544Y0166067D02*
X0126453Y0166067D01*
X0118690Y0165957D01*
X0130859Y0165949D01*
X0143662Y0180767D01*
X0150074Y0180767D01*
X0150186Y0180878D01*
X0151520Y0180878D01*
X0159438Y0180989D01*
X0158923Y0180979D01*
X0159279Y0180979D01*
X0159232Y0226659D01*
X0164359Y0231786D01*
X0174914Y0231786D01*
X0182200Y0226827D02*
X0182200Y0226252D01*
X0182182Y0206493D01*
X0173933Y0200452D02*
X0186034Y0181534D01*
X0185859Y0135568D01*
X0223306Y0135598D01*
X0242181Y0145700D02*
X0250151Y0145647D01*
X0263039Y0145648D02*
X0275920Y0145648D01*
X0276255Y0145314D01*
X0276255Y0135314D02*
X0263373Y0135314D01*
X0263039Y0135648D01*
X0263039Y0125648D02*
X0263373Y0125314D01*
X0276255Y0125314D01*
X0276255Y0115314D02*
X0263373Y0115314D01*
X0263039Y0115648D01*
X0263373Y0099566D02*
X0263206Y0099399D01*
X0263373Y0099566D02*
X0276589Y0099566D01*
X0276589Y0089566D02*
X0276422Y0089399D01*
X0263206Y0089399D01*
X0263373Y0079566D02*
X0263206Y0079399D01*
X0263373Y0079566D02*
X0276589Y0079566D01*
X0276589Y0069566D02*
X0276422Y0069399D01*
X0263206Y0069399D01*
X0263373Y0059566D02*
X0263206Y0059399D01*
X0263373Y0059566D02*
X0276589Y0059566D01*
X0276589Y0049566D02*
X0263373Y0049566D01*
X0263206Y0049399D01*
X0263206Y0039399D02*
X0276422Y0039399D01*
X0276589Y0039566D01*
X0276589Y0029566D02*
X0263373Y0029566D01*
X0263206Y0029399D01*
X0262987Y0024630D01*
X0225147Y0024552D01*
X0225092Y0030111D01*
X0217622Y0030108D01*
X0217674Y0049796D01*
X0153926Y0113949D02*
X0153905Y0137213D01*
X0153911Y0143918D01*
X0148492Y0133539D02*
X0148492Y0118515D01*
X0143926Y0113949D01*
X0098965Y0099224D02*
X0086170Y0099224D01*
X0086170Y0079224D02*
X0098965Y0079224D01*
X0098965Y0069224D02*
X0086170Y0069224D01*
X0086170Y0059224D02*
X0098965Y0059224D01*
X0098965Y0049224D02*
X0086170Y0049224D01*
X0086170Y0039224D02*
X0098965Y0039224D01*
X0098965Y0029224D02*
X0086170Y0029224D01*
X0086170Y0129224D02*
X0098965Y0129224D01*
X0098965Y0139224D02*
X0086170Y0139224D01*
X0086170Y0149224D02*
X0098965Y0149224D01*
X0159438Y0180989D02*
X0159648Y0180960D01*
X0165584Y0180979D01*
X0165584Y0181007D01*
X0184866Y0196013D02*
X0197266Y0183614D01*
X0197266Y0181353D01*
X0197212Y0172694D01*
X0213176Y0172855D01*
X0228700Y0175957D02*
X0215859Y0188797D01*
X0209286Y0188797D01*
X0206091Y0188752D01*
X0206091Y0196626D02*
X0209453Y0196413D01*
X0217383Y0196413D01*
X0227840Y0185957D01*
X0228926Y0185957D01*
X0229050Y0186081D01*
X0242179Y0186081D01*
X0242179Y0196081D02*
X0229050Y0196081D01*
X0228926Y0195957D01*
X0225900Y0195957D01*
X0225849Y0195905D01*
X0225507Y0195905D01*
X0216706Y0204706D01*
X0209447Y0204706D01*
X0206091Y0204500D01*
X0209241Y0204706D01*
X0209241Y0212153D02*
X0206091Y0212374D01*
X0209292Y0212323D01*
X0220939Y0212323D01*
X0226985Y0206276D01*
X0227181Y0206081D01*
X0242179Y0206081D01*
X0242179Y0216081D02*
X0226978Y0216081D01*
X0226854Y0215957D01*
X0219478Y0215957D01*
X0215200Y0220234D01*
X0206105Y0220234D01*
X0206091Y0220248D01*
X0226854Y0215957D02*
X0228926Y0215957D01*
X0228926Y0205957D02*
X0227438Y0205957D01*
X0227204Y0205722D01*
X0227204Y0206058D01*
X0227181Y0206081D01*
X0229050Y0176081D02*
X0228926Y0175957D01*
X0228700Y0175957D01*
X0229050Y0176081D02*
X0242179Y0176081D01*
X0263039Y0185648D02*
X0263373Y0185314D01*
X0276255Y0185314D01*
X0276255Y0195314D02*
X0275920Y0195648D01*
X0263039Y0195648D01*
X0263373Y0205314D02*
X0263039Y0205648D01*
X0263373Y0205314D02*
X0276255Y0205314D01*
X0276255Y0165314D02*
X0263373Y0165314D01*
X0263039Y0165648D01*
X0263039Y0155648D02*
X0263373Y0155314D01*
X0276255Y0155314D01*
X0173933Y0200452D02*
X0173936Y0213856D01*
X0150186Y0235957D02*
X0150186Y0235996D01*
X0184928Y0267756D02*
X0184928Y0268062D01*
X0178631Y0274169D01*
D16*
X0215895Y0259369D03*
X0221177Y0253653D03*
X0189809Y0231948D03*
X0174914Y0231786D03*
X0173936Y0213856D03*
X0182182Y0206493D03*
X0184866Y0196013D03*
X0165584Y0181007D03*
X0153911Y0143918D03*
X0148492Y0133539D03*
X0213176Y0172855D03*
X0223306Y0135598D03*
X0211728Y0062136D03*
X0217618Y0055396D03*
X0217674Y0049796D03*
X0211861Y0038131D03*
X0258435Y0255508D03*
D17*
X0150186Y0235957D03*
D18*
X0150246Y0095888D03*
X0150328Y0086226D03*
X0160333Y0086226D03*
X0160235Y0095856D03*
X0170241Y0095856D03*
X0170339Y0086210D03*
X0180328Y0086243D03*
X0180246Y0095872D03*
X0190251Y0095872D03*
X0190333Y0086226D03*
X0190350Y0076221D03*
X0190317Y0066297D03*
X0180311Y0066281D03*
X0180328Y0076205D03*
X0170339Y0076221D03*
X0170273Y0066265D03*
X0160317Y0066281D03*
X0160333Y0076221D03*
X0150311Y0076205D03*
X0150295Y0066281D03*
X0140290Y0066281D03*
X0140322Y0076205D03*
X0130333Y0076221D03*
X0130301Y0066281D03*
X0130279Y0056260D03*
X0140281Y0056283D03*
X0140485Y0046178D03*
X0130415Y0046246D03*
X0120390Y0046235D03*
X0120288Y0056260D03*
X0120279Y0066265D03*
X0120328Y0076221D03*
X0120344Y0086226D03*
X0120230Y0095872D03*
X0130235Y0095872D03*
X0130350Y0086226D03*
X0140339Y0086210D03*
X0140241Y0095872D03*
X0150295Y0056271D03*
X0160285Y0056271D03*
X0170276Y0056294D03*
X0160501Y0046167D03*
X0150499Y0046190D03*
X0150510Y0036165D03*
X0160490Y0036165D03*
X0140520Y0036176D03*
X0140395Y0026207D03*
X0130373Y0026196D03*
X0130395Y0036207D03*
X0120390Y0036222D03*
X0120413Y0026242D03*
X0180290Y0056271D03*
X0190303Y0056283D03*
X0200271Y0056260D03*
X0200273Y0066281D03*
X0200339Y0076237D03*
X0210311Y0076237D03*
X0220333Y0076205D03*
X0220333Y0086210D03*
X0220251Y0095872D03*
X0210230Y0095872D03*
X0210328Y0086226D03*
X0200339Y0086226D03*
X0200257Y0095872D03*
X0230257Y0095856D03*
X0230339Y0086226D03*
X0230339Y0076221D03*
M02*
