G75*
%MOIN*%
%OFA0B0*%
%FSLAX25Y25*%
%IPPOS*%
%LPD*%
%AMOC8*
5,1,8,0,0,1.08239X$1,22.5*
%
%ADD10R,0.06400X0.03500*%
%ADD11R,0.06400X0.12500*%
%ADD12R,0.04000X0.04000*%
%ADD13R,0.01600X0.03200*%
%ADD14R,0.02100X0.04600*%
%ADD15R,0.05512X0.06299*%
%ADD16R,0.03200X0.06600*%
%ADD17R,0.06600X0.03200*%
D10*
X0111170Y0249988D03*
X0111170Y0259088D03*
X0111170Y0268188D03*
D11*
X0085970Y0259088D03*
D12*
X0125541Y0257769D03*
X0125377Y0263341D03*
X0125377Y0270841D03*
X0125541Y0250269D03*
D13*
X0136903Y0127335D03*
X0142903Y0127335D03*
X0161559Y0127335D03*
X0167559Y0127335D03*
X0192867Y0127335D03*
X0198867Y0127335D03*
X0213992Y0127617D03*
X0219992Y0127617D03*
X0215901Y0154345D03*
X0209901Y0154345D03*
X0191647Y0154503D03*
X0185647Y0154503D03*
X0166843Y0153717D03*
X0160843Y0153717D03*
X0143221Y0153715D03*
X0137221Y0153715D03*
X0165568Y0191090D03*
X0171568Y0191090D03*
X0190717Y0191245D03*
X0196717Y0191245D03*
X0195856Y0220646D03*
X0189856Y0220646D03*
X0169996Y0220573D03*
X0163996Y0220573D03*
D14*
X0167065Y0211779D03*
X0163365Y0203179D03*
X0170765Y0203179D03*
X0189393Y0203216D03*
X0196793Y0203216D03*
X0193093Y0211816D03*
X0191893Y0144413D03*
X0184493Y0144413D03*
X0188193Y0135813D03*
X0167516Y0144413D03*
X0160116Y0144413D03*
X0163816Y0135813D03*
X0143735Y0144808D03*
X0136335Y0144808D03*
X0140035Y0136208D03*
X0209156Y0144414D03*
X0216556Y0144414D03*
X0212856Y0135814D03*
D15*
X0258454Y0237958D03*
X0275776Y0237958D03*
X0275776Y0269454D03*
X0258454Y0269454D03*
D16*
X0243024Y0062451D03*
X0228851Y0062451D03*
X0228851Y0030955D03*
X0243024Y0030955D03*
D17*
X0246174Y0038041D03*
X0246174Y0049852D03*
X0246174Y0055364D03*
X0225701Y0055364D03*
X0225701Y0049852D03*
X0225701Y0038041D03*
M02*
