%
M48
M72
T01C0.02362
T02C0.03543
T03C0.03600
T04C0.03937
T05C0.04000
T06C0.11024
%
T01
X106167Y19194
X211728Y62136
X217618Y55396
X217674Y49796
X211861Y38131
X216186Y19242
X148492Y133539
X153911Y143918
X165584Y181007
X184866Y196013
X182182Y206493
X173936Y213856
X174914Y231786
X189809Y231948
X215895Y259369
X221177Y253653
X258435Y255508
X276175Y219227
X213176Y172855
X223306Y135598
X150186Y235957
X86171Y224217
T02
X235937Y52608
X235937Y40797
T03
X206091Y180878
X206091Y188752
X206091Y196626
X206091Y204500
X206091Y212374
X206091Y220248
X206091Y228122
X206091Y235996
X150186Y235996
X150186Y228122
X150186Y220248
X150186Y212374
X150186Y204500
X150186Y196626
X150186Y188752
X150186Y180878
T04
X150246Y95888
X150328Y86226
X160333Y86226
X160235Y95856
X170241Y95856
X170339Y86210
X180328Y86243
X180246Y95872
X190251Y95872
X190333Y86226
X190350Y76221
X190317Y66297
X180311Y66281
X180328Y76205
X170339Y76221
X170273Y66265
X160317Y66281
X160333Y76221
X150311Y76205
X150295Y66281
X140290Y66281
X140322Y76205
X130333Y76221
X130301Y66281
X130279Y56260
X140281Y56283
X140485Y46178
X130415Y46246
X120390Y46235
X120288Y56260
X120279Y66265
X120328Y76221
X120344Y86226
X120230Y95872
X130235Y95872
X130350Y86226
X140339Y86210
X140241Y95872
X150295Y56271
X160285Y56271
X170276Y56294
X160501Y46167
X150499Y46190
X150510Y36165
X160490Y36165
X140520Y36176
X140395Y26207
X130373Y26196
X130395Y36207
X120390Y36222
X120413Y26242
X180290Y56271
X190303Y56283
X200271Y56260
X200273Y66281
X200339Y76237
X210311Y76237
X220333Y76205
X220333Y86210
X220251Y95872
X210230Y95872
X210328Y86226
X200339Y86226
X200257Y95872
X230257Y95856
X230339Y86226
X230339Y76221
T05
X86170Y29224
X86170Y39224
X86170Y49224
X86170Y59224
X86170Y69224
X86170Y79224
X98965Y79224
X98965Y69224
X98965Y59224
X98965Y49224
X98965Y39224
X98965Y29224
X98965Y99224
X98965Y109224
X98965Y119224
X98965Y129224
X98965Y139224
X98965Y149224
X86170Y149224
X86170Y139224
X86170Y129224
X86170Y119224
X86170Y109224
X86170Y99224
X133926Y113949
X143926Y113949
X153926Y113949
X163926Y113949
X183926Y114153
X193926Y114151
X203926Y114144
X213926Y114161
X250522Y135544
X250151Y145647
X263039Y145648
X263039Y135648
X263039Y125648
X263039Y115648
X276255Y115314
X276255Y125314
X276255Y135314
X276255Y145314
X276255Y155314
X276255Y165314
X276255Y175314
X276255Y185314
X276255Y195314
X276255Y205314
X263039Y205648
X263039Y195648
X263039Y185648
X263039Y175648
X263039Y165648
X263039Y155648
X242179Y166081
X242179Y176081
X242179Y186081
X242179Y196081
X242179Y206081
X242179Y216081
X242179Y226081
X242179Y236081
X228926Y235957
X228926Y225957
X228926Y215957
X228926Y205957
X228926Y195957
X228926Y185957
X228926Y175957
X228926Y165957
X263206Y99399
X263206Y89399
X263206Y79399
X263206Y69399
X263206Y59399
X263206Y49399
X263206Y39399
X263206Y29399
X276589Y29566
X276589Y39566
X276589Y49566
X276589Y59566
X276589Y69566
X276589Y79566
X276589Y89566
X276589Y99566
X196209Y28848
X186209Y28848
X176209Y28848
X176209Y18848
X186209Y18848
X196209Y18848
X118690Y165957
X118690Y175957
X118690Y185957
X118690Y195957
X118690Y205957
X118690Y215957
X118690Y225957
X118690Y235957
X105544Y236067
X105544Y226067
X105544Y216067
X105544Y206067
X105544Y196067
X105544Y186067
X105544Y176067
X105544Y166067
X164928Y257756
X174928Y257756
X184928Y257756
X184928Y267756
X174928Y267756
X164928Y267756
X194928Y267756
X194928Y257756
T06
X276177Y219218
X86167Y224221
X106166Y19188
X216189Y19252
M30
