G75*
%MOIN*%
%OFA0B0*%
%FSLAX25Y25*%
%IPPOS*%
%LPD*%
%AMOC8*
5,1,8,0,0,1.08239X$1,22.5*
%
%ADD10C,0.00400*%
%ADD11C,0.00200*%
%ADD12C,0.00500*%
D10*
X0080769Y0260784D02*
X0080769Y0265988D01*
X0082504Y0265988D02*
X0079034Y0265988D01*
X0082124Y0269804D02*
X0082992Y0268936D01*
X0084727Y0268936D01*
X0085594Y0269804D01*
X0087281Y0269804D02*
X0088148Y0268936D01*
X0089883Y0268936D01*
X0090750Y0269804D01*
X0090750Y0273273D01*
X0089883Y0274141D01*
X0088148Y0274141D01*
X0087281Y0273273D01*
X0085594Y0273273D02*
X0085594Y0272406D01*
X0084727Y0271539D01*
X0082992Y0271539D01*
X0082124Y0270671D01*
X0082124Y0269804D01*
X0082124Y0273273D02*
X0082992Y0274141D01*
X0084727Y0274141D01*
X0085594Y0273273D01*
X0092453Y0274141D02*
X0094188Y0274141D01*
X0093321Y0274141D02*
X0093321Y0268936D01*
X0094188Y0268936D02*
X0092453Y0268936D01*
X0092816Y0265988D02*
X0089347Y0265988D01*
X0087660Y0265121D02*
X0087660Y0261651D01*
X0086793Y0260784D01*
X0085058Y0260784D01*
X0084190Y0261651D01*
X0084190Y0265121D02*
X0085058Y0265988D01*
X0086793Y0265988D01*
X0087660Y0265121D01*
X0091082Y0263386D02*
X0092816Y0263386D01*
X0092816Y0265988D02*
X0092816Y0260784D01*
X0089347Y0260784D01*
X0095371Y0261651D02*
X0095371Y0265988D01*
X0096238Y0265988D02*
X0094503Y0265988D01*
X0095875Y0268936D02*
X0095875Y0274141D01*
X0099344Y0274141D02*
X0095875Y0268936D01*
X0099344Y0268936D02*
X0099344Y0274141D01*
X0101031Y0273273D02*
X0101031Y0269804D01*
X0101899Y0268936D01*
X0103633Y0268936D01*
X0104501Y0269804D01*
X0104501Y0273273D01*
X0103633Y0274141D01*
X0101899Y0274141D01*
X0101031Y0273273D01*
X0106188Y0273273D02*
X0106188Y0271539D01*
X0107055Y0270671D01*
X0109657Y0270671D01*
X0107922Y0270671D02*
X0106188Y0268936D01*
X0105683Y0265988D02*
X0104816Y0265121D01*
X0104816Y0263386D01*
X0105683Y0262518D01*
X0108286Y0262518D01*
X0108286Y0260784D02*
X0108286Y0265988D01*
X0105683Y0265988D01*
X0103129Y0265121D02*
X0103129Y0261651D01*
X0102262Y0260784D01*
X0100527Y0260784D01*
X0099660Y0261651D01*
X0099660Y0265121D01*
X0100527Y0265988D01*
X0102262Y0265988D01*
X0103129Y0265121D01*
X0106551Y0262518D02*
X0104816Y0260784D01*
X0109972Y0263386D02*
X0110840Y0262518D01*
X0113442Y0262518D01*
X0113442Y0260784D02*
X0113442Y0265988D01*
X0110840Y0265988D01*
X0109972Y0265121D01*
X0109972Y0263386D01*
X0109657Y0268936D02*
X0109657Y0274141D01*
X0107055Y0274141D01*
X0106188Y0273273D01*
X0111344Y0274141D02*
X0114814Y0274141D01*
X0113079Y0274141D02*
X0113079Y0268936D01*
X0116500Y0269804D02*
X0117368Y0268936D01*
X0119103Y0268936D01*
X0119970Y0269804D01*
X0119970Y0273273D01*
X0119103Y0274141D01*
X0117368Y0274141D01*
X0116500Y0273273D01*
X0121657Y0274141D02*
X0125126Y0274141D01*
X0125126Y0268936D01*
X0121657Y0268936D01*
X0123392Y0271539D02*
X0125126Y0271539D01*
X0126813Y0268936D02*
X0130283Y0268936D01*
X0130283Y0274141D01*
X0131970Y0274141D02*
X0135439Y0274141D01*
X0135439Y0268936D01*
X0131970Y0268936D01*
X0132333Y0265988D02*
X0130598Y0264253D01*
X0130598Y0260784D01*
X0128911Y0260784D02*
X0126309Y0260784D01*
X0125442Y0261651D01*
X0125442Y0265121D01*
X0126309Y0265988D01*
X0128911Y0265988D01*
X0128911Y0260784D01*
X0130598Y0263386D02*
X0134068Y0263386D01*
X0134068Y0264253D02*
X0132333Y0265988D01*
X0134068Y0264253D02*
X0134068Y0260784D01*
X0135754Y0260784D02*
X0137489Y0262518D01*
X0136622Y0262518D02*
X0139224Y0262518D01*
X0139224Y0260784D02*
X0139224Y0265988D01*
X0136622Y0265988D01*
X0135754Y0265121D01*
X0135754Y0263386D01*
X0136622Y0262518D01*
X0140911Y0261651D02*
X0140911Y0263386D01*
X0142646Y0263386D01*
X0144380Y0265121D02*
X0143513Y0265988D01*
X0141778Y0265988D01*
X0140911Y0265121D01*
X0140911Y0261651D02*
X0141778Y0260784D01*
X0143513Y0260784D01*
X0144380Y0261651D01*
X0144380Y0265121D01*
X0146067Y0265121D02*
X0146067Y0263386D01*
X0146935Y0262518D01*
X0149537Y0262518D01*
X0149537Y0260784D02*
X0149537Y0265988D01*
X0146935Y0265988D01*
X0146067Y0265121D01*
X0145752Y0268936D02*
X0142282Y0268936D01*
X0144017Y0271539D02*
X0145752Y0271539D01*
X0147439Y0271539D02*
X0150908Y0271539D01*
X0150908Y0274141D02*
X0150908Y0268936D01*
X0151224Y0265988D02*
X0151224Y0261651D01*
X0152091Y0260784D01*
X0153826Y0260784D01*
X0154693Y0261651D01*
X0154693Y0265988D01*
X0154330Y0268936D02*
X0154330Y0274141D01*
X0156065Y0274141D02*
X0152595Y0274141D01*
X0147439Y0274141D02*
X0147439Y0268936D01*
X0145752Y0268936D02*
X0145752Y0274141D01*
X0142282Y0274141D01*
X0135439Y0271539D02*
X0133704Y0271539D01*
X0123755Y0265988D02*
X0123755Y0260784D01*
X0120285Y0260784D01*
X0122020Y0263386D02*
X0123755Y0263386D01*
X0123755Y0265988D02*
X0120285Y0265988D01*
X0097973Y0261651D02*
X0097105Y0260784D01*
X0096238Y0260784D01*
X0095371Y0261651D01*
X0215296Y0268836D02*
X0218365Y0268836D01*
X0219900Y0268836D02*
X0220667Y0268836D01*
X0220667Y0269603D01*
X0219900Y0269603D01*
X0219900Y0268836D01*
X0222202Y0268836D02*
X0225271Y0268836D01*
X0223736Y0268836D02*
X0223736Y0273439D01*
X0225271Y0271905D01*
X0226805Y0273439D02*
X0226805Y0270370D01*
X0228340Y0268836D01*
X0229875Y0270370D01*
X0229875Y0273439D01*
X0236013Y0272672D02*
X0236013Y0269603D01*
X0236781Y0268836D01*
X0239083Y0268836D01*
X0239083Y0273439D01*
X0236781Y0273439D01*
X0236013Y0272672D01*
X0240617Y0268836D02*
X0243687Y0268836D01*
X0243687Y0273439D01*
X0245221Y0273439D02*
X0248290Y0273439D01*
X0248290Y0268836D01*
X0245221Y0268836D01*
X0246756Y0271137D02*
X0248290Y0271137D01*
X0249825Y0268836D02*
X0251360Y0268836D01*
X0250592Y0268836D02*
X0250592Y0273439D01*
X0249825Y0273439D02*
X0251360Y0273439D01*
X0252894Y0273439D02*
X0252894Y0268836D01*
X0252894Y0271137D02*
X0255964Y0271137D01*
X0257498Y0270370D02*
X0257498Y0269603D01*
X0258266Y0268836D01*
X0259800Y0268836D01*
X0260568Y0269603D01*
X0259800Y0271137D02*
X0258266Y0271137D01*
X0257498Y0270370D01*
X0255964Y0268836D02*
X0255964Y0273439D01*
X0257498Y0272672D02*
X0258266Y0273439D01*
X0259800Y0273439D01*
X0260568Y0272672D01*
X0260568Y0271905D01*
X0259800Y0271137D01*
X0260925Y0266274D02*
X0262460Y0266274D01*
X0263227Y0265506D01*
X0260925Y0266274D02*
X0260158Y0265506D01*
X0260158Y0264739D01*
X0263227Y0261670D01*
X0260158Y0261670D01*
X0258623Y0261670D02*
X0255554Y0264739D01*
X0255554Y0265506D01*
X0256322Y0266274D01*
X0257856Y0266274D01*
X0258623Y0265506D01*
X0258623Y0261670D02*
X0255554Y0261670D01*
X0254020Y0261670D02*
X0250950Y0264739D01*
X0250950Y0265506D01*
X0251718Y0266274D01*
X0253252Y0266274D01*
X0254020Y0265506D01*
X0254020Y0261670D02*
X0250950Y0261670D01*
X0249416Y0261670D02*
X0246346Y0261670D01*
X0247881Y0261670D02*
X0247881Y0266274D01*
X0249416Y0264739D01*
X0266706Y0271137D02*
X0267473Y0270370D01*
X0269775Y0270370D01*
X0269775Y0268836D02*
X0269775Y0273439D01*
X0267473Y0273439D01*
X0266706Y0272672D01*
X0266706Y0271137D01*
X0271310Y0270370D02*
X0271310Y0269603D01*
X0272077Y0268836D01*
X0273612Y0268836D01*
X0274379Y0269603D01*
X0273612Y0271137D02*
X0274379Y0271905D01*
X0274379Y0272672D01*
X0273612Y0273439D01*
X0272077Y0273439D01*
X0271310Y0272672D01*
X0272077Y0271137D02*
X0271310Y0270370D01*
X0272077Y0271137D02*
X0273612Y0271137D01*
X0275914Y0268836D02*
X0278983Y0268836D01*
X0278983Y0273439D01*
X0275914Y0273439D01*
X0277449Y0271137D02*
X0278983Y0271137D01*
X0278574Y0266274D02*
X0279341Y0265506D01*
X0279341Y0264739D01*
X0278574Y0263972D01*
X0277039Y0263972D01*
X0276272Y0263204D01*
X0276272Y0262437D01*
X0277039Y0261670D01*
X0278574Y0261670D01*
X0279341Y0262437D01*
X0276272Y0265506D02*
X0277039Y0266274D01*
X0278574Y0266274D01*
X0274737Y0266274D02*
X0271668Y0261670D01*
X0271668Y0266274D01*
X0270133Y0264739D02*
X0270133Y0263972D01*
X0269366Y0263972D01*
X0269366Y0264739D01*
X0270133Y0264739D01*
X0270133Y0262437D02*
X0270133Y0261670D01*
X0269366Y0261670D01*
X0269366Y0262437D01*
X0270133Y0262437D01*
X0274737Y0261670D02*
X0274737Y0266274D01*
X0218365Y0271905D02*
X0216830Y0273439D01*
X0216830Y0268836D01*
D11*
X0152898Y0257700D02*
X0152898Y0255498D01*
X0151430Y0255498D01*
X0150688Y0255498D02*
X0149220Y0255498D01*
X0148478Y0255498D02*
X0147010Y0255498D01*
X0146268Y0255865D02*
X0145901Y0255498D01*
X0145167Y0255498D01*
X0144800Y0255865D01*
X0144800Y0257333D02*
X0145167Y0257700D01*
X0145901Y0257700D01*
X0146268Y0257333D01*
X0146268Y0255865D01*
X0147744Y0256599D02*
X0148478Y0256599D01*
X0148478Y0257700D02*
X0148478Y0255498D01*
X0148478Y0257700D02*
X0147010Y0257700D01*
X0144058Y0257700D02*
X0142590Y0257700D01*
X0143324Y0257700D02*
X0143324Y0255498D01*
X0141848Y0255498D02*
X0141848Y0257700D01*
X0140747Y0257700D01*
X0140380Y0257333D01*
X0140380Y0256599D01*
X0140747Y0256232D01*
X0141848Y0256232D01*
X0141114Y0256232D02*
X0140380Y0255498D01*
X0139638Y0255865D02*
X0139271Y0255498D01*
X0138538Y0255498D01*
X0138171Y0255865D01*
X0138171Y0257333D01*
X0138538Y0257700D01*
X0139271Y0257700D01*
X0139638Y0257333D01*
X0139638Y0255865D01*
X0137429Y0255498D02*
X0137429Y0257700D01*
X0135961Y0255498D01*
X0135961Y0257700D01*
X0135219Y0257700D02*
X0134485Y0257700D01*
X0134852Y0257700D02*
X0134852Y0255498D01*
X0135219Y0255498D02*
X0134485Y0255498D01*
X0133745Y0255865D02*
X0133378Y0255498D01*
X0132645Y0255498D01*
X0132278Y0255865D01*
X0131536Y0255865D02*
X0131169Y0255498D01*
X0130435Y0255498D01*
X0130068Y0255865D01*
X0130068Y0256232D01*
X0130435Y0256599D01*
X0131169Y0256599D01*
X0131536Y0256966D01*
X0131536Y0257333D01*
X0131169Y0257700D01*
X0130435Y0257700D01*
X0130068Y0257333D01*
X0132278Y0257333D02*
X0132645Y0257700D01*
X0133378Y0257700D01*
X0133745Y0257333D01*
X0133745Y0255865D01*
X0127116Y0255498D02*
X0126382Y0255498D01*
X0126749Y0255498D02*
X0126749Y0257700D01*
X0127116Y0257700D02*
X0126382Y0257700D01*
X0125643Y0257700D02*
X0124542Y0257700D01*
X0124175Y0257333D01*
X0124175Y0255865D01*
X0124542Y0255498D01*
X0125643Y0255498D01*
X0125643Y0257700D01*
X0123433Y0257700D02*
X0123433Y0255498D01*
X0121965Y0255498D01*
X0121223Y0255498D02*
X0121223Y0256966D01*
X0120489Y0257700D01*
X0119755Y0256966D01*
X0119755Y0255498D01*
X0119013Y0255865D02*
X0118646Y0255498D01*
X0117912Y0255498D01*
X0117545Y0255865D01*
X0117545Y0256232D01*
X0117912Y0256599D01*
X0118646Y0256599D01*
X0119013Y0256966D01*
X0119013Y0257333D01*
X0118646Y0257700D01*
X0117912Y0257700D01*
X0117545Y0257333D01*
X0119755Y0256599D02*
X0121223Y0256599D01*
X0121965Y0257700D02*
X0123433Y0257700D01*
X0123433Y0256599D02*
X0122699Y0256599D01*
X0114593Y0256599D02*
X0113125Y0256599D01*
X0113125Y0256966D02*
X0113125Y0255498D01*
X0112383Y0255498D02*
X0112383Y0257700D01*
X0110915Y0255498D01*
X0110915Y0257700D01*
X0110173Y0257700D02*
X0109072Y0257700D01*
X0108705Y0257333D01*
X0108705Y0255865D01*
X0109072Y0255498D01*
X0110173Y0255498D01*
X0110173Y0257700D01*
X0113125Y0256966D02*
X0113859Y0257700D01*
X0114593Y0256966D01*
X0114593Y0255498D01*
X0105754Y0255498D02*
X0105754Y0257700D01*
X0104653Y0257700D01*
X0104286Y0257333D01*
X0104286Y0256599D01*
X0104653Y0256232D01*
X0105754Y0256232D01*
X0103544Y0256232D02*
X0102443Y0256232D01*
X0102076Y0256599D01*
X0102076Y0257333D01*
X0102443Y0257700D01*
X0103544Y0257700D01*
X0103544Y0255498D01*
X0102810Y0256232D02*
X0102076Y0255498D01*
X0101334Y0255865D02*
X0100967Y0255498D01*
X0100233Y0255498D01*
X0099866Y0255865D01*
X0099866Y0257333D01*
X0100233Y0257700D01*
X0100967Y0257700D01*
X0101334Y0257333D01*
X0101334Y0255865D01*
X0099124Y0255865D02*
X0098757Y0255498D01*
X0098390Y0255498D01*
X0098023Y0255865D01*
X0098023Y0257700D01*
X0098390Y0257700D02*
X0097656Y0257700D01*
X0096914Y0257700D02*
X0096914Y0255498D01*
X0095446Y0255498D01*
X0094704Y0255865D02*
X0094337Y0255498D01*
X0093603Y0255498D01*
X0093236Y0255865D01*
X0093236Y0257333D02*
X0093603Y0257700D01*
X0094337Y0257700D01*
X0094704Y0257333D01*
X0094704Y0255865D01*
X0096180Y0256599D02*
X0096914Y0256599D01*
X0096914Y0257700D02*
X0095446Y0257700D01*
X0092494Y0257700D02*
X0091026Y0257700D01*
X0091760Y0257700D02*
X0091760Y0255498D01*
X0090284Y0255865D02*
X0089917Y0255498D01*
X0089184Y0255498D01*
X0088817Y0255865D01*
X0088817Y0256232D01*
X0089184Y0256599D01*
X0089917Y0256599D01*
X0090284Y0256966D01*
X0090284Y0257333D01*
X0089917Y0257700D01*
X0089184Y0257700D01*
X0088817Y0257333D01*
X0150688Y0257700D02*
X0150688Y0255498D01*
X0152164Y0256599D02*
X0152898Y0256599D01*
X0152898Y0257700D02*
X0151430Y0257700D01*
D12*
X0108816Y0034763D02*
X0108816Y0030692D01*
X0114921Y0030692D01*
X0114921Y0034763D01*
X0114921Y0036770D02*
X0108816Y0036770D01*
X0108816Y0040840D01*
X0108816Y0042847D02*
X0108816Y0046917D01*
X0109834Y0048924D02*
X0108816Y0049942D01*
X0108816Y0051977D01*
X0109834Y0052994D01*
X0113904Y0052994D02*
X0114921Y0051977D01*
X0114921Y0049942D01*
X0113904Y0048924D01*
X0109834Y0048924D01*
X0111869Y0044882D02*
X0111869Y0042847D01*
X0114921Y0042847D02*
X0108816Y0042847D01*
X0114921Y0042847D02*
X0114921Y0046917D01*
X0114921Y0055001D02*
X0114921Y0059071D01*
X0114921Y0061078D02*
X0114921Y0064131D01*
X0113904Y0065149D01*
X0111869Y0065149D01*
X0110851Y0064131D01*
X0110851Y0061078D01*
X0108816Y0061078D02*
X0114921Y0061078D01*
X0114921Y0057036D02*
X0108816Y0057036D01*
X0110851Y0063113D02*
X0108816Y0065149D01*
X0109834Y0067156D02*
X0108816Y0068173D01*
X0108816Y0070208D01*
X0109834Y0071226D01*
X0113904Y0071226D01*
X0114921Y0070208D01*
X0114921Y0068173D01*
X0113904Y0067156D01*
X0109834Y0067156D01*
X0108816Y0073233D02*
X0114921Y0073233D01*
X0108816Y0077303D01*
X0114921Y0077303D01*
X0114921Y0079310D02*
X0114921Y0081345D01*
X0114921Y0080327D02*
X0108816Y0080327D01*
X0108816Y0079310D02*
X0108816Y0081345D01*
X0109834Y0083361D02*
X0108816Y0084379D01*
X0108816Y0086414D01*
X0109834Y0087432D01*
X0109834Y0089439D02*
X0108816Y0090456D01*
X0108816Y0092491D01*
X0109834Y0093509D01*
X0110851Y0093509D01*
X0111869Y0092491D01*
X0111869Y0090456D01*
X0112886Y0089439D01*
X0113904Y0089439D01*
X0114921Y0090456D01*
X0114921Y0092491D01*
X0113904Y0093509D01*
X0114921Y0095516D02*
X0109834Y0095516D01*
X0108816Y0096533D01*
X0108816Y0098568D01*
X0109834Y0099586D01*
X0114921Y0099586D01*
X0114921Y0101593D02*
X0114921Y0104646D01*
X0113904Y0105663D01*
X0111869Y0105663D01*
X0110851Y0104646D01*
X0110851Y0101593D01*
X0108816Y0101593D02*
X0114921Y0101593D01*
X0113904Y0107670D02*
X0109834Y0107670D01*
X0108816Y0108688D01*
X0108816Y0110723D01*
X0109834Y0111740D01*
X0111869Y0111740D01*
X0111869Y0109705D01*
X0113904Y0107670D02*
X0114921Y0108688D01*
X0114921Y0110723D01*
X0113904Y0111740D01*
X0114921Y0113747D02*
X0114921Y0116800D01*
X0113904Y0117817D01*
X0111869Y0117817D01*
X0110851Y0116800D01*
X0110851Y0113747D01*
X0108816Y0113747D02*
X0114921Y0113747D01*
X0110851Y0115782D02*
X0108816Y0117817D01*
X0108816Y0119825D02*
X0112886Y0119825D01*
X0114921Y0121860D01*
X0112886Y0123895D01*
X0108816Y0123895D01*
X0108816Y0125902D02*
X0108816Y0128954D01*
X0109834Y0129972D01*
X0113904Y0129972D01*
X0114921Y0128954D01*
X0114921Y0125902D01*
X0108816Y0125902D01*
X0111869Y0123895D02*
X0111869Y0119825D01*
X0111869Y0131979D02*
X0111869Y0134014D01*
X0114921Y0136049D02*
X0114921Y0131979D01*
X0108816Y0131979D01*
X0108816Y0136049D01*
X0108816Y0138056D02*
X0108816Y0139074D01*
X0109834Y0139074D01*
X0109834Y0138056D01*
X0108816Y0138056D01*
X0109834Y0141095D02*
X0108816Y0142112D01*
X0108816Y0144147D01*
X0109834Y0145165D01*
X0109834Y0147172D02*
X0108816Y0148189D01*
X0108816Y0150224D01*
X0109834Y0151242D01*
X0113904Y0151242D01*
X0114921Y0150224D01*
X0114921Y0148189D01*
X0113904Y0147172D01*
X0109834Y0147172D01*
X0113904Y0145165D02*
X0114921Y0144147D01*
X0114921Y0142112D01*
X0113904Y0141095D01*
X0109834Y0141095D01*
X0108816Y0153249D02*
X0114921Y0153249D01*
X0112886Y0155284D01*
X0114921Y0157319D01*
X0108816Y0157319D01*
X0113904Y0087432D02*
X0114921Y0086414D01*
X0114921Y0084379D01*
X0113904Y0083361D01*
X0109834Y0083361D01*
X0111869Y0032727D02*
X0111869Y0030692D01*
M02*
